<svg width="395" height="504" xmlns="http://www.w3.org/2000/svg" xmlns:xlink="http://www.w3.org/1999/xlink" overflow="hidden"><defs><clipPath id="clip0"><rect x="419" y="24" width="395" height="504"/></clipPath><clipPath id="clip1"><rect x="420" y="24" width="393" height="503"/></clipPath><clipPath id="clip2"><rect x="420" y="24" width="393" height="503"/></clipPath></defs><g clip-path="url(#clip0)" transform="translate(-419 -24)"><g clip-path="url(#clip1)"><g clip-path="url(#clip2)"><path d="M219.209 153.211C221.446 154.206 222.077 154.308 224.348 154.078 225.884 153.923 227.351 152.85 229.111 153.905 231.291 152.603 232.742 145.735 233.528 143.004L237.426 129.471C238.669 126.955 239.789 123.825 241.814 121.953 243.541 120.357 246.479 119.796 247.386 117.442 249.067 113.082 246.26 107.35 246.26 102.869 246.26 100.197 245.621 97.4754 244.99 94.946 244.418 92.6562 245.682 90.7712 245.682 88.5557 245.682 84.4114 249.4 82.3493 245.047 78.898 243.371 77.6768 244.164 76.0653 243.46 74.5606 242.757 73.0591 241.257 72.287 240.284 71.0617 237.903 68.0654 237.354 65.3705 237.714 61.6063 237.845 60.2409 238.53 56.9363 239.331 55.8812 243.744 47.8251 246.209 42.9569 254.315 38.2426 254.425 38.1784 256.54 36.8183 256.047 36.6521 256.047 36.5889 256.053 36.5814 255.989 36.5654 255.537 34.7426 249.499 36.6926 248.541 37.1727 245.32 38.7855 242.148 41.8401 239.591 44.4015 237.487 46.5082 234.578 48.838 232.922 51.2836 221.751 59.6854 212.322 61.8209 199 60.3051 197.45 60.1287 193.206 68.5836 193.4 69.0667 193.18 69.3407 193.134 69.6314 192.996 69.963 190.514 73.3503 185.874 75.6026 184.162 79.2159 182.501 82.7189 181.838 87.3325 179.629 90.4063 177.952 94.759 175.473 97.9958 173.249 102.002L167.244 112.816C166.358 114.336 165.353 115.897 164.126 117.124 162.93 118.32 161.061 118.956 159.998 120.276 157.587 123.271 153.034 127.712 149.23 128.604 146.652 129.208 144.443 129.233 142.041 130.397 137.844 131.238 131.883 132.449 127.751 130.917 125.193 129.969 120.033 128.083 117.386 128.083 115.061 128.083 113.422 130.658 111.497 131.842 108.982 133.39 104.034 134.655 102.172 136.295 98.9215 138.198 95.1527 137.112 92.2124 135.601 90.0841 134.508 87.5699 134.279 85.2835 133.693 81.7875 132.797 78.6778 145.78 74.4865 146.474 72.9569 146.727 72.6906 148.78 71.9171 149.799L70.127 152.459C69.7166 155.65 64.5977 158.509 63.1117 161.481 60.8269 166.051 57.9535 170.847 56.4139 175.765 55.8408 176.53 55.9125 177.781 55.4614 178.686 54.9153 179.782 53.9533 181.26 54.1333 182.531 54.2583 183.415 56.5416 182.81 57.0491 182.502 58.4409 183.555 58.1405 182.439 59.3009 181.664 59.7671 181.352 59.9911 181.3 60.3114 181.664 60.6217 182.016 61.34 181.814 61.7839 181.924 61.7839 182.5 60.5127 183.594 60.2249 184.295 59.7978 185.336 59.0185 184.811 58.3196 184.613 57.0855 184.264 56.8735 185.92 55.6346 185.625 54.2382 185.293 52.8632 183.883 52.8632 186.608 53.7479 187.977 53.2934 189.937 52.968 191.423 52.6437 192.903 53.3954 193.722 53.5454 195.124 53.5703 195.36 54.1323 198.447 54.6423 197.105 54.9345 196.336 54.6711 195.263 54.6711 194.445 54.6711 192.868 54.5025 187.927 55.5517 186.869 56.0624 186.869 57.2606 188.109 57.8035 188.401 59.5764 189.354 59.306 190.729 59.5645 192.493 59.8313 194.312 60.9859 196.231 61.9895 197.741 62.6875 198.356 63.3833 200.525 63.9092 201.428 64.4875 202.42 65.1699 201.787 65.8146 202.339 66.6339 203.04 67.0164 202.355 67.4745 201.746 67.8185 201.288 68.1008 201.095 68.6727 201.095 69.3649 201.095 69.971 199.943 70.6358 199.592 71.5525 199.108 72.6606 199.168 73.6093 199.563 74.3608 199.656 75.8465 202.103 76.6261 201.384 77.0401 201.002 76.6692 200.294 76.496 199.881 76.1816 199.129 77.2182 197.87 76.3373 196.989 75.8281 196.48 74.9465 196.588 74.2876 196.613 73.8922 196.628 72.9334 196.87 72.6998 196.44 72.4883 196.051 73.9673 195.017 74.1577 194.502 74.4814 193.627 74.3973 192.427 74.8651 191.625 76.06 189.529 73.791 188.768 73.3205 186.955 72.7495 184.754 77.0329 182.999 78.3437 181.794 78.908 180.144 79.7045 180.958 81.1874 180.464 83.1172 179.821 83.6327 177.094 85.128 175.837 87.3727 173.952 85.7433 173.211 86.4849 170.98 86.5333 170.194 85.9766 169.536 86.6869 168.825 87.285 168.227 87.6218 167.16 87.4662 166.31 87.9258 165.784 89.0514 164.902 89.0831 164.184 89.1214 163.313 88.6216 162.249 89.0974 161.553 89.6255 160.858 90.1396 160.582 90.8007 160.064 91.0081 160.082 91.8182 159.713 92.1431 159.659 93.9079 159.367 95.2636 160.662 96.9066 160.888 98.6526 161.128 100.526 159.674 102.435 159.674 102.233 159.667 102.289 159.74 102.317 159.601 103.491 159.305 105.471 157.577 104.944 156.276 104.483 155.139 102.576 154.051 102.576 152.951 102.6 152.943 102.684 152.859 102.692 152.835L106.156 154.223C107.552 154.782 105.922 151.21 105.81 150.522 105.409 148.054 107.607 149.169 108.639 149.336 109.629 149.497 110.477 147.876 111.497 147.457 113.442 146.658 112.939 142.148 116.492 142.397 117.547 142.47 118.133 143.903 117.675 144.768 117.203 145.659 115.521 145.528 115.135 146.474 114.136 148.918 116.239 148.536 112.912 149.568 111.947 149.866 112.768 151.141 111.122 151.736 109.07 152.477 108.703 157.44 109.216 157.086 110.497 156.202 110.632 151.687 113.2 152.344 115.88 153.029 114.72 151.205 116.116 151.1 117.454 151 118.634 149.77 119.956 149.77 120.998 149.77 120.478 150.785 120.62 151.476 120.937 153.023 126.953 147.341 128.703 147.341 130.727 146.255 139.176 158.334 140.366 154.686 142.067 149.477 154.089 148.041 158.641 146.907 160.893 144.824 166.321 147.348 169.323 145.144 171.414 143.607 169.79 141.289 170.42 141.009 171.923 140.342 172.923 138.406 174.779 138.406 174.794 138.451 174.778 138.435 174.837 138.435L174.866 138.464C174.866 139.293 172.638 139.751 173.047 140.98 173.298 141.735 176.97 143.086 177.955 143.148 179.35 143.237 181.718 142.745 182.285 141.356 183.633 138.049 183.084 137.126 186.5 138.522 187.656 138.994 189.042 139.304 190.08 139.997 190.519 140.289 191.99 141.674 192.332 141.76 192.391 141.998 193.425 142.71 193.66 142.946 196.146 143.427 197.665 145.556 199.665 142.165 202.587 137.209 206.277 142.601 208.816 144.623 210.564 146.015 212.417 147.425 214.388 148.527 216.466 149.688 216.667 151.562 218.256 152.98L219.209 153.211ZM359.89 504.969C359.993 506.219 361.996 507.787 362.431 509.104 362.856 510.392 363.737 512.933 363.181 514.222L363.384 514.8C363.437 514.814 363.515 514.865 363.528 514.916 364.638 515.102 366.418 517.378 367.368 517.143 367.68 515.878 367.197 513.866 367.05 512.429 366.763 509.635 366.362 506.369 366.473 503.61 366.538 501.988 366.613 500.247 367.281 498.752 368.147 496.811 369.873 495.786 370.803 493.923 372.95 491.362 373.455 487.857 375.826 485.48 376.83 484.475 377.837 483.993 378.915 483.138 379.942 482.323 380.445 482.285 380.445 480.911 380.445 479.407 383.955 478.784 383.506 476.892 383.197 475.591 381.73 475.502 381.196 474.492 380.703 473.561 380.194 469.806 379.781 469.519 378.955 468.943 373.98 469.239 372.824 469.172 368.935 468.792 369.508 468.261 368.349 464.979 367.678 463.078 367.408 462.145 365.289 462.145 364.506 462.145 362.63 468.575 360.208 463.707 359.68 462.645 359.565 460.947 358.129 460.815 357.058 460.717 356.168 458.322 355.675 458.444 355.308 459.926 355.547 461.592 354.145 462.637 353.075 463.435 352.442 461.01 352.038 460.352 351.051 458.747 349.831 459.774 348.4 459.774 347.614 459.774 347.702 460.927 347.476 461.48 347.233 462.077 345.917 462.447 345.917 462.897 347.595 463.453 349.74 462.378 349.237 465.124L348.602 468.593C348.412 469.635 349.844 469.569 349.844 470.502 349.844 475.664 352.788 473.514 354.405 477.413 354.599 479.474 352.125 480.869 355.098 482.531 356.851 483.51 356.428 484.535 357.84 485.538 360.867 487.687 358.663 489.652 359.313 492.275 359.586 493.376 360.981 493.597 361.824 494.097 363.157 494.886 361.899 496.25 361.103 497.046 359.053 498.606 358.511 501.307 359.371 503.61L359.89 504.969ZM286.158 121.23C286.085 120.915 286.385 120.344 286.619 120.132 287.086 119.709 288.39 119.536 288.871 120.074 289.093 120.321 288.898 120.711 288.64 120.854 288.127 121.14 287.404 121.23 286.822 121.23L286.158 121.23ZM296.781 106.397C295.788 106.933 292.135 107.083 292.365 108.739 292.647 110.774 295.86 110.328 293.548 112.44 293.373 112.601 292.357 113.174 292.422 113.336 292.19 113.608 292.061 114.708 292.018 115.1 290.804 115.966 286.052 119.313 284.916 118.744 282.09 117.328 283.628 114.228 279.373 115.534 278.67 115.75 275.596 113.762 275.447 112.845 275.027 110.251 278.955 109.818 279.633 107.611 280.1 106.092 280.944 106.48 282.058 105.992L282.376 105.876C283.831 106.965 288.535 103.736 290.401 103.736 292.317 103.736 293.769 104.468 295.598 103.418 296.265 103.035 296.8 102.769 297.532 102.58 297.899 102.485 297.984 103.023 298.398 103.042 299.963 103.116 303.278 101.677 302.411 104.344 301.857 106.045 298.405 106.455 296.781 106.397ZM330.761 199.158C330.228 198.388 329.535 196.813 329.837 195.832 330.15 194.817 330.753 195.167 331.569 195.167 333.23 195.167 334.715 194.645 336.304 194.271 337.671 193.95 339.475 192.912 340.807 192.912L340.836 192.941C340.836 193.426 338.637 195.506 338.18 195.89 337.017 196.869 336.357 198.521 335.091 199.331 334.315 199.829 332.363 201.822 331.454 200.228L330.761 199.158ZM433.941 362.675C432.991 361.441 432.584 359.465 432.584 357.904 432.584 357.059 432.966 354.332 434.316 354.781 435.029 355.019 434.91 356.981 434.98 357.615 435.146 359.118 435.379 360.425 435.904 361.808 436.253 362.73 435.975 363.746 434.807 363.514L433.941 362.675ZM473.463 509.596C474.082 508.357 477.669 502.603 476.552 501.384 474.913 499.596 476.362 495.58 474.704 494.964 472.707 494.223 471.303 493.805 469.71 492.362 468.748 491.491 465.466 490.78 465.466 489.037 465.356 489.037 465.284 489.066 465.177 489.094 463.787 487.867 463.086 487.275 462.348 485.596 461.863 484.492 461.409 483.917 460.096 484.381 457.938 485.145 455.749 483.122 454.236 481.605 453.077 480.444 450.833 480.192 449.992 479.003 448.64 477.091 446.555 475.563 445.43 473.625 444.808 472.55 444.414 471.942 444.045 473.451 443.275 476.59 441.355 479.168 440.234 482.068 439.706 484.509 438.201 486.626 438.935 489.152 439.443 490.901 440.35 491.036 440.35 493.143 440.35 496.469 436.047 499.248 439.195 502.396L439.512 502.54C439.943 504.278 442.292 504.254 442.775 505.576 443.294 507.003 444.697 507.336 445.979 507.543 447.211 507.741 447.531 508.421 448.433 509.046 449.557 509.825 451.383 509.121 452.735 509.798 454.744 510.804 454.976 512.066 457.498 512.516 459.352 513.063 460.395 514.762 462.088 515.35 464.461 516.174 466.922 516.437 469.19 517.345 472.427 518.641 471.626 514.727 473.896 513.962L473.925 513.904C473.925 512.936 472.281 511.785 473.088 510.434L473.463 509.596ZM286.504 487.62C286.276 486.876 284.121 483.808 284.887 483.543 285.494 483.332 286.042 483.371 286.446 482.733 286.92 481.986 287.237 480.453 288.438 481.345 290.158 482.623 291.766 482.834 293.202 481.027 293.887 480.164 293.762 479.924 294.79 479.35 295.457 478.977 296.699 478.393 296.464 477.441 295.248 477.141 294.508 477.062 293.317 476.429 292.808 476.159 293.662 474.915 293.49 474.232 292.77 474.053 292.375 473.662 291.931 473.046 291.506 472.456 290.101 472.204 289.391 471.225 289.233 469.961 287.373 469.498 288.149 468.102 288.816 466.903 291.576 461.83 293.144 461.943 293.969 462.002 294.839 462.75 295.713 462.261 296.445 461.852 296.713 460.834 297.561 460.41 298.428 459.976 300.79 459.263 301.747 459.051 303.186 458.732 303.31 459.398 304.374 459.398 306.328 459.398 308.556 458.629 310.033 460.352 311.557 462.133 310.271 463.529 313.497 464.603 315.841 465.476 315.332 467.037 316.73 468.709 318.047 470.283 321.549 473.457 323.341 473.133 325.601 472.725 324.153 476.471 326.806 477.095 328.211 477.425 330.063 478.685 331.281 478.685 333.564 478.685 335.101 478.796 336.968 480.044 338.09 480.794 338.238 479.927 337.285 479.495 336.531 479.152 335.067 477.961 334.572 477.297 334.954 476.786 333.333 474.175 335.034 474.521 336.58 474.836 336.92 475.753 338.642 474.752 341.64 473.01 340.86 474.372 339.999 471.774 339.846 471.312 340.586 470.496 340.75 470.068 340.831 469.857 340.266 469.129 340.172 468.824 339.24 465.8 344.276 471.04 344.647 471.196 345.771 471.667 347.435 470.894 348.314 471.456 348.627 471.657 347.974 474.092 348.256 474.839 349.151 476.235 348.541 476.717 350.335 477.615 352.086 478.492 351.111 481.415 353.424 482.849 354.543 483.543 354.834 485.173 356.281 486.058 357.56 486.84 357.787 487.367 357.523 488.747 357.306 489.88 359.462 491.827 357.523 492.564 355.503 493.331 353.799 491.155 353.799 494.906 354.841 496.5 355.627 497.048 357.032 498.203 357.845 498.87 355.738 502.908 355.156 503.783 354.182 505.249 351.819 504.824 350.306 504.506 349.211 504.277 347.045 501.67 346.668 502.338 345.951 503.605 345.249 503.289 344.387 502.424 343.692 501.727 343.411 502.565 342.771 502.742 342.282 502.878 341.848 502.287 341.385 502.251 340.377 502.173 339.575 502.867 338.527 502.714 336.776 502.457 335.781 502.262 333.994 502.887 332.13 502.708 331.948 504.778 330.732 505.692 329.674 506.487 328.478 505.548 327.759 506.906 326.854 508.614 325.222 510.613 323.399 508.786 321.712 507.094 321.018 505.857 318.578 505.345 313.359 504.251 310.339 495.841 304.894 495.572 303.913 493.728 298.427 491.934 296.464 491.147 294.98 490.553 293.547 490.335 291.989 490.106 291.25 489.998 290.498 490.038 289.766 489.875 288.821 489.665 288.292 489.021 287.428 488.661L286.504 487.62ZM187.337 143.524C186.938 143.003 186.515 142.035 187.077 141.471 187.459 141.089 188.2 141.246 188.665 141.356 189.166 141.474 189.718 141.574 190.109 141.934 190.465 142.262 191.193 142.958 190.686 143.466 190.093 144.062 188.842 144.277 188.059 144.016L187.337 143.524ZM125.181 170.503C124.93 170.033 124.665 169.416 124.488 168.883 124.354 168.479 124.33 168.016 124.892 168.016 125.405 168.016 126.191 168.408 126.365 168.941 126.463 169.243 126.432 169.6 126.336 169.895 126.22 170.252 125.891 170.387 125.586 170.503L125.181 170.503ZM116.145 180.796C115.074 179.403 113.683 177.113 116.578 177.674 117.613 177.874 118.821 177.129 119.869 177.095L122.583 177.008C122.594 177.044 122.65 177.083 122.698 177.095 122.845 177.688 122.455 178.138 122.612 178.772 122.985 178.865 123.793 179.777 123.305 180.103 122.254 180.803 120.68 178.977 119.869 180.103 119.562 180.529 119.536 180.74 119.407 181.201 119.363 181.36 119.248 182.181 119.119 182.213 119.095 182.309 118.969 182.35 118.945 182.445 117.795 182.73 117.727 182.701 116.809 181.779L116.145 180.796ZM100.209 195.717 103.471 191.351C104.282 190.265 103.171 189.421 104.02 188.286 104.703 187.372 105.485 187.25 106.127 186.608 106.624 186.111 104.256 185.574 105.665 184.7 107.125 183.795 108.598 183.966 106.618 181.982 105.068 180.428 104.141 176.995 103.933 174.84 103.933 173.341 103.466 171.362 104.828 170.387 106.112 169.468 107.373 170.554 108.755 170.358 110.992 170.04 111.02 165.471 110.631 163.91 110.252 162.39 110.634 160.578 110.313 159.283 109.019 158.957 108.102 160.513 106.474 160.324 106.136 160.285 104.174 162.93 103.616 163.447 103.105 163.919 103.098 165.953 102.894 166.743 102.55 168.076 99.827 168.353 98.679 168.594 96.2314 169.107 94.8503 169.173 92.3565 170.127 91.3184 170.524 90.3072 169.676 89.4407 170.213 88.6509 170.703 88.5356 173.27 88.3149 174.233 88.2875 174.517 88.3803 175.527 88.2282 175.707 87.5515 176.512 86.9086 176.12 87.8529 177.066 88.4406 177.655 87.8689 178.484 87.2179 177.992 86.5585 178.388 85.682 178.591 85.6299 179.698 85.5507 181.373 89.2284 179.455 90.0182 180.999 90.736 182.401 89.3811 184.105 87.9973 184.382 86.4989 184.682 86.2067 183.421 84.5041 184.556 83.7672 185.047 82.9779 185.712 82.0791 185.712 81.4093 185.712 79.5095 184.738 80.0294 186.435 80.7135 188.668 81.8541 188.583 79.8273 190.396L77.662 192.334C77.0539 192.878 75.9444 193.627 76.6227 194.387 77.0644 194.881 78.7297 192.354 80.0582 193.548 81.2848 194.65 82.9588 193.958 84.6485 194.098 84.6001 195.642 84.2755 195.445 85.9764 195.543 87.3662 195.624 85.9742 196.532 85.7743 196.96 85.345 197.881 85.9698 198.169 86.5248 198.724 87.6012 199.8 87.0285 201.457 87.9396 202.685 88.7769 203.814 90.4901 202.336 91.4616 202.049 93.2856 201.51 95.8915 201.42 97.4953 200.661 98.3006 200.281 98.154 199.506 98.1882 198.782 98.2359 197.765 98.8159 197.266 99.4295 196.498L100.209 195.717ZM81.3863 197.77C81.2702 197.27 81.0316 196.743 81.0687 196.208 81.1256 195.392 82.4365 195.997 82.6853 196.44 82.9898 196.981 82.9941 198.168 82.0791 197.972L81.3863 197.77ZM85.0526 208.469C84.6209 208.387 84.2277 208.327 83.8689 208.209 83.8689 207.932 84.2757 207.39 84.3598 207.052 84.541 206.321 83.7202 205.457 84.6195 205.028 85.1546 204.772 85.9587 204.766 86.5539 204.652 87.5343 204.464 86.3855 206.586 86.496 207.052 86.5789 207.402 86.7065 207.762 86.9003 208.093 87.1276 208.481 87.0791 208.587 86.9868 208.96 86.8306 208.999 86.6772 209.115 86.496 209.047L85.0526 208.469ZM71.5127 205.895C70.4221 205.055 69.0688 204.101 70.3291 203.206 71.6116 202.296 71.9396 201.394 73.447 202.512 76.6176 204.864 76.864 202.761 79.7118 201.413 80.4662 201.056 81.3603 201.124 82.1945 201.124 82.6935 201.124 81.5234 204.783 81.4439 205.606 81.3112 206.983 84.3099 209.319 83.9557 210.811 83.7224 211.794 83.3289 213.457 82.0501 213.529 80.8768 213.595 77.7083 214.354 78.9034 216.507 79.0494 216.771 79.4809 217.014 79.4809 217.317 79.4809 217.958 77.7432 217.122 77.5753 216.449 77.3648 215.607 77.5956 214.786 77.2579 213.934 76.2557 211.403 75.2678 209.977 73.1872 208.151L71.5127 205.895ZM72.2056 396.998C72.0908 396.069 71.0217 395.518 71.0798 394.425 71.1174 393.716 72.421 392.283 72.2344 391.909 72.0588 391.558 71.4774 391.503 71.4839 391.013L71.5127 388.931C70.0241 388.294 69.3002 391.133 68.164 390.29 67.2737 389.629 66.8757 387.177 66.9227 386.126 66.9481 385.558 67.5819 384.117 66.6051 384.276 65.3744 384.475 63.7648 386.05 62.6211 385.866 61.1123 385.622 62.2572 387.993 62.6499 388.844 64.3496 389.942 65.9846 392.023 66.6339 393.904 67.443 396.248 68.8268 398.44 69.5497 400.757 70.168 401.495 70.6665 402.555 71.5707 402.955 72.117 403.197 72.8108 403.164 73.3028 402.724 73.7142 402.355 73.3379 401.779 73.1005 401.422 72.5976 400.668 73.2112 400.364 72.9852 399.774 72.7757 399.228 72.9057 398.225 72.552 397.75L72.2056 396.998ZM79.625 414.406C79.1902 413.594 78.6437 411.402 79.5674 410.733 79.9136 410.483 80.4531 410.635 80.8087 410.415 81.4623 410.01 82.2567 408.661 83.1473 409.056 84.0453 409.455 82.4634 412.078 82.2812 412.67 82.169 413.036 82.2545 413.472 81.9924 413.769 81.6278 414.184 80.9294 414.356 80.4335 414.492L79.625 414.406ZM78.0373 442.425C78.1964 441.135 79.9717 441.616 80.7222 441.152 81.8567 440.452 80.581 439.165 80.2603 438.319 79.9511 437.504 80.3344 436.782 80.5202 436.005 80.7312 435.124 79.9972 434.046 80.1738 433.027 80.441 431.484 80.8145 430.325 81.2995 428.834 82.0237 426.608 84.196 425.384 80.8955 424.815 79.5153 424.578 78.9126 424.651 77.5176 424.121 73.6832 422.664 74.508 428.542 74.111 430.598 73.7888 432.266 73.2321 433.902 73.5913 435.629 74.0533 437.85 71.7695 440.01 74.1977 441.528 74.8133 441.764 75.0883 442.121 75.3235 442.743 75.486 443.172 75.9001 444.101 76.4783 443.581 77.0646 443.055 77.9086 444.273 78.2684 443.321L78.0373 442.425ZM420.197 339.312C420.197 341.031 418.257 343.46 418.696 344.893 419.185 346.487 419.781 347.415 419.851 349.201 420.019 353.517 417.962 353.535 415.491 356.603 414.94 357.288 414.827 358.191 414.25 358.83 413.665 359.477 412.359 359.443 412.171 360.304 410.923 361.711 411.735 363.278 411.132 364.237 410.451 365.321 409.188 363.167 408.389 363.167 404.765 363.167 405.044 361.195 401.807 364.439 401.348 364.9 400.977 364.454 400.537 364.613 399.794 364.881 399.635 365.864 398.978 366.319 398.246 366.827 397.171 366.801 396.236 367.504 394.144 369.075 390.111 371.894 388.903 374.241 387.992 376.07 386.492 377.539 385.958 379.62 385.531 381.285 386.478 382.858 386.103 384.651 385.243 388.753 389.96 391.289 392.916 393.065 395.49 394.612 399.003 393.586 401.172 395.089 402.145 395.763 403.277 397.552 404.406 397.836L404.521 398.154C405.909 399.768 407.876 401.725 408.303 403.822 408.703 405.785 406.925 407.462 407.639 409.344 409.81 415.07 400.863 414.42 400.104 417.614 399.863 418.631 394.673 418.117 393.147 418.048 389.006 417.861 384.057 421.023 381.686 424.149 380.98 425.279 379.298 426.586 379.116 427.532 378.887 428.726 379.167 431.984 378.019 432.448 376.826 432.929 377.384 430.912 377.384 430.423 377.384 429.992 378.491 427.009 377.586 427.243 376.281 427.58 373.22 427.793 372.361 428.862 371.297 430.185 371.634 433.454 373.025 434.5 374.568 435.662 375.392 435.469 377.124 435.137 377.845 434.998 378.483 435.664 379.376 435.455 381.95 434.851 383.149 434.264 383.851 437.074 384.117 438.142 384.362 441.203 383.216 441.556 381.951 441.945 378.533 438.988 378.799 440.717 379.003 442.046 379.716 443.291 379.953 444.563 380.161 445.328 381.148 446.904 381.945 447.165 381.945 449.977 383.315 449.986 384.428 452.225 385.176 453.73 379.698 454.016 378.828 454.886 377.285 456.428 376.634 457.141 374.584 458.124 372.102 459.315 370.861 457.671 368.954 456.563 367.336 455.622 363.737 451.915 362.285 452.601 359.289 454.019 360.142 452.186 357.897 451.242 356.022 449.74 354.796 448.244 352.499 447.397L347.014 445.373C346.075 445.026 345.155 443.935 344.444 443.695 344.444 443.232 346.619 443.761 346.927 443.811 347.882 443.966 348.966 444.105 349.872 444.418 351.208 444.881 354.791 447.132 355.934 446.905 356.234 446.013 352.529 441.238 351.517 441.238 350.68 441.238 349.343 441.963 349.005 440.862 348.464 439.096 348.1 437.861 347.071 436.264 345.33 433.562 348.696 435.714 349.987 435.223 351.695 434.575 354.912 435.645 354.289 432.419 354.289 430.135 350.876 430.465 349.352 430.77 346.708 431.3 345.633 429.119 347.418 427.33 348.342 426.403 347.811 425.894 348.399 424.814 348.638 424.375 346.546 422.452 346.003 422.154 345.077 421.645 341.009 425.29 341.009 426.028 341.009 426.266 342.618 429.621 341.442 429.036 340.441 428.537 340.596 426.571 339.392 426.433 338.168 426.293 335.706 424.939 334.86 425.103 332.857 424.439 330.363 425.452 328.566 424.207 327.608 423.543 325.023 421.575 323.976 421.575 323.243 421.575 320.507 422.895 320.367 422.327 319.198 422.037 318.603 424.675 317.163 423.715 315.728 422.759 315.486 423.764 314.247 422.385 313.515 421.57 313.083 422.559 312.573 423.137 310.621 425.345 311.601 424.512 309.83 423.542 309.225 423.21 308.344 423.445 307.838 423.108 307.062 422.591 307.053 421.443 306.51 420.795 304.68 417.134 306.721 418.424 309.108 418.308 310.793 418.226 311.476 413.934 311.476 412.612 310.498 412.612 308.888 416.365 307.578 416.862 307.374 416.94 306.454 416.802 306.568 416.573 305.849 416.162 306.359 413.236 306.221 412.38 305.837 409.989 304.212 410.345 302.439 409.229 301.615 408.709 300.618 407.669 299.87 407.002 299.475 406.65 296.102 405.275 298.08 404.892 298.903 404.732 303.797 405.442 302.959 403.243 302.793 402.808 301.666 400.988 301.198 400.988 300.014 400.988 299.04 402.559 298.311 403.359 296.718 405.108 296.83 403.113 295.8 402.781L294.558 400.959C296.223 399.014 298.242 400.76 300.043 398.819 301.762 396.968 305.415 397.072 303.537 393.297 302.208 390.628 303.335 390.608 303.335 388.121 303.335 385.758 301.054 384.235 301.054 382.309 301.054 381.175 301.147 379.526 299.783 379.099 299.058 378.267 296.642 376.42 296.926 375.282 297.317 373.716 299.184 373.644 299.524 371.668 299.872 369.644 297.351 361.794 295.309 361.316 293.59 359.593 291.068 357.536 288.698 356.835 286.407 356.157 282.756 356.558 280.961 355.129 280.735 353.53 283.18 354.613 283.848 354.868 284.735 355.208 286.317 354.919 287.283 354.868 289.688 354.743 291.899 355.075 294.212 354.492 294.913 353.263 293.732 353.108 292.826 352.584 291.637 351.897 291.347 350.794 289.939 350.271 287.337 349.305 285.878 346.082 283.357 345.644 281.502 345.322 279.709 346.093 278.103 344.806L277.785 344.835C277.734 344.784 277.63 344.707 277.612 344.632 277.354 344.545 277.005 343.533 277.468 343.418 277.92 342.052 285.276 343.242 286.388 343.62 289.074 344.533 291.322 345.63 294.183 344.112 296.57 342.845 297.055 341.29 297.214 344.661 297.296 346.395 298.457 346.516 299.755 347.206 301.125 347.934 300.813 348.309 301.602 349.374 301.86 349.722 305.14 350.357 305.557 350.069 306.401 349.485 304.258 346.853 304.258 345.644 304.431 345.139 304.354 343.374 305.355 343.736 306.541 344.164 306.947 346.335 308.704 345.76 309.97 345.346 310.454 344.086 311.764 343.649 312.588 343.375 313.081 342.032 313.929 341.509 315.161 340.751 316.224 340.443 317.192 339.312 317.87 338.52 317.568 335.9 317.654 334.859 318.182 333.36 317.31 331.728 317.74 330.262 318.188 328.733 318.41 329.914 319.53 329.683 320.555 329.473 321.226 328.445 322.273 328.122 323.338 327.794 323.789 328.271 324.784 328.324 330.071 328.607 332.113 319.177 329.461 315.775 327.396 312.148 323.396 311.814 319.674 311.814 316.826 311.814 314.037 308.489 311.447 308.489 311.347 308.085 309.733 306.395 310.263 305.684L318 309.848C320.263 311.065 323.138 310.279 325.593 310.686 327.133 310.941 328.67 312.968 330.269 312.334 333.184 311.179 334.784 310.845 337.14 313.202 338.911 314.973 342.597 313.497 344.589 312.566 345.554 311.832 351.585 307.415 351.46 309.645 351.334 311.885 348.32 312.883 348.977 315.255 349.164 315.932 348.842 318.369 348.486 318.927 347.765 320.056 346.125 317.99 345.397 317.712 344.917 317.529 343.529 317.992 342.943 318.06 341.105 318.27 341.613 320.615 342.106 321.847 342.722 323.388 345.589 323.767 345.743 325.635 345.711 325.719 345.665 325.894 345.599 325.982 347.252 329.303 348.945 333.387 343.116 332.228 340.783 331.764 341.628 334.332 340.345 334.859 339.328 335.277 338.559 337.155 337.198 337.606 337.198 338.644 340.542 338.859 341.269 338.705 342.717 338.397 349.46 334.317 348.053 338.127 347.133 340.618 348.443 339.618 349.554 341.163 351.705 344.155 346.357 344.806 344.155 344.806 343.28 344.806 339.928 344.816 340.403 346.367 340.988 348.28 343.895 347.116 345.137 347.032 345.947 346.876 346.545 347.332 347.36 346.946 348.99 346.173 348.682 346.712 350.362 346.627 353.229 346.483 351.852 347.123 352.095 349.519 352.154 350.102 353.203 353.063 351.892 353.394 351.605 354.555 350.373 354.761 350.882 356.314 352.972 356.314 354.756 356.199 355.241 353.885 355.613 352.112 356.714 351.596 356.714 349.519 356.714 348.407 357.4 347.659 357.637 346.657 358.008 345.098 357.396 343.324 357.868 341.799 358.433 339.972 358.584 338.16 358.763 336.16 360.278 335.377 359.774 333.259 360.755 332.604 361.622 332.025 362.466 333.127 363.382 332.951 365.495 332.545 366.616 330.175 366.962 328.266 367.511 325.24 364.364 324.029 364.364 320.98 364.364 319.719 363.274 319.387 362.921 318.32 362.701 317.656 362.926 315.327 363.123 314.734 363.814 314.734 365.638 316.016 366.731 316.151 367.883 316.293 371.767 318.696 371.148 319.592 369.922 321.369 369.181 322.74 369.993 324.883 370.36 325.851 371.493 326.235 371.985 327.168 372.79 328.692 370.93 330.244 372.101 331.939 373.248 333.6 373.052 335.343 373.746 337.433 374.932 339.057 374.634 339.02 374.526 340.671 374.471 341.514 375.285 342.162 374.959 343.071 374.832 343.425 373.883 344.069 373.544 344.314 371.196 346.016 373.02 346.428 369.965 344.43 368.501 343.473 368.564 345.706 368.435 346.512 368.132 348.399 366.296 349.783 365.519 351.543 364.973 352.78 364.136 355.565 364.45 356.835 365.48 357.088 366.379 353.016 368.608 353.741 369.308 353.968 369.821 353.22 370.484 353.22 371.248 353.22 371.06 353.956 371.379 354.435 371.846 355.135 373.596 353.89 374.324 354.897 375.167 356.063 377.557 358.437 377.557 355.042 377.557 352.796 375.405 353.764 377.759 352.064 378.423 351.584 377.834 349.773 378.164 348.883 379.01 346.597 379.663 346.195 378.596 344.054 378.322 343.502 379.024 342.558 378.972 341.857 378.924 341.227 378.035 339.538 377.788 338.792 378.43 336.499 376.871 335.722 376.403 333.847 376.03 332.354 376.005 331.349 375.19 329.944 374.936 329.505 373.381 327.333 374.41 326.965 376.582 326.19 375.962 325.194 375.277 323.553 374.32 321.265 374.087 319.32 374.295 316.816 373.294 315.814 373.023 314.109 372.476 312.797 372.156 312.029 371.983 311.24 371.755 310.455 371.552 309.756 371.019 309.019 370.86 308.373 370.63 308.373 370.072 309.093 369.849 309.298 369.067 310.022 368.096 309.869 367.164 310.281 365.949 310.819 365.117 311.823 363.758 312.277 363.22 313.287 359.728 313.279 358.648 312.999 357.823 312.786 357.236 309.704 357.58 308.98 358.311 307.441 363.449 305.296 365.172 304.18 366.566 303.278 368.126 301.89 369.33 300.739 370.664 299.464 372.468 298.606 373.862 297.385 377.107 293.32 384.006 289.61 388.73 287.785 391.309 286.789 393.934 285.249 396.784 285.819 398.957 286.254 400.714 288.915 402.327 289.115 403.262 290.426 406.955 290.785 408.389 291.053 410.459 290.665 412.852 291.334 414.654 292.267 415.679 292.797 416.95 294.41 417.714 295.303 418.824 296.6 421.1 297.206 421.583 298.946 421.921 300.168 419.484 303.119 418.811 304.036 416.702 306.972 414.772 310.098 413.99 313.78 412.836 319.218 416.914 323.068 418.205 327.919 418.096 329.836 418.713 332.205 419.187 334.05 419.625 335.759 420.551 336.599 420.313 338.531L420.197 339.312ZM237.339 312.709C237.002 312.398 236.454 311.398 236.733 310.946 236.904 310.668 237.831 311.11 238.032 311.206 238.419 311.389 238.99 311.356 239.418 311.495 239.664 311.574 240.962 311.924 240.601 312.333 240.049 312.961 238.699 312.949 237.946 312.999L237.339 312.709ZM246.693 312.854C246.377 312.008 245.756 309.993 245.971 309.124 246.207 308.171 247.482 305.997 248.425 305.683 248.873 305.534 248.737 308.264 248.8 308.777 248.96 310.054 249.343 311.517 250.388 312.362 251.626 313.364 251.43 315.154 252.669 315.774 253.314 316.097 255.137 316.15 254.805 316.96 253.599 319.914 251.408 315.957 250.764 315.023 249.76 313.566 248.288 315.057 247.155 313.924L246.693 312.854ZM246.722 334.569C245.97 331.332 246.236 327.718 249.58 326.155 251.31 325.346 252.671 321.599 253.102 319.88 253.202 319.856 253.175 319.856 253.275 319.88 253.565 321.055 254.328 323.025 255.498 323.61 256.732 324.228 258.366 322.743 259.598 322.743L259.627 322.772C259.627 324.525 256.281 326.506 255.816 328.584 254.965 332.378 256.358 335.536 253.564 339.052 252.632 340.225 250.764 339.688 249.464 339.688 247.635 339.688 247.583 337.216 246.982 336.16L246.722 334.569ZM222.154 342.55C221.119 341.428 224.888 341.353 225.301 341.278 226.108 341.131 226.553 340.29 227.033 339.717 227.41 339.266 227.679 338.751 228.043 338.3 228.198 338.108 228.795 337.547 228.852 337.374 229.057 337.374 228.907 338.322 228.88 338.502 228.603 340.398 230.176 341.878 227.581 342.377 225.93 342.694 224.723 342.987 222.933 342.839L222.154 342.55ZM208.066 331.36C207.689 331.157 207.282 330.532 207.315 330.088 207.348 329.646 208.166 329.684 208.441 329.741 208.823 329.819 209.302 329.974 209.625 330.203 209.88 330.385 210.501 330.865 210.144 331.186 209.986 331.329 209.708 331.328 209.509 331.36 209.239 331.403 208.966 331.472 208.701 331.504L208.066 331.36ZM205.698 327.543C205.643 326.822 205.905 325.85 206.651 325.519 207.316 325.225 208.166 325.138 208.903 324.912 209.094 324.853 210.118 324.66 209.942 325.172 209.484 326.506 207.889 327.398 206.42 327.398L205.698 327.543ZM293.952 319.129C293.357 318.02 293.993 316.939 294.963 318.088 296.078 319.407 297.467 320.473 298.773 321.529 299.39 322.027 299.737 322.655 300.448 323.148 300.767 323.369 302.763 324.19 302.555 324.709 303.137 325.29 301.043 324.786 300.852 324.709 299.358 324.111 298.868 323 297.734 322.078 297.412 321.815 296.937 321.503 296.551 321.355 295.864 321.093 295.371 320.437 294.761 320.054L293.952 319.129ZM353.885 341.365C353.537 341.074 353.079 340.29 352.846 339.89 352.447 339.204 352.258 338.927 352.442 338.184 354.071 337.861 354.552 337.073 355.617 335.842 355.803 335.626 356.384 335.039 356.686 335.148 357.184 335.328 356.615 336.871 356.541 337.316 356.352 338.46 356.137 339.258 356.137 340.382 356.137 341.597 356.102 342.319 354.694 342.203L353.885 341.365ZM371.841 352.064C371.586 351.731 371.396 351.234 371.553 350.82 371.665 350.522 371.84 350.377 372.13 350.473 372.548 350.613 373.069 350.816 373.198 351.283 373.254 351.486 373.116 351.692 372.967 351.803 372.709 351.995 372.53 352.006 372.216 352.006L371.841 352.064ZM413.875 366.55C413.248 363.819 412.613 362.835 414.452 360.391 415.595 358.873 417.856 358.201 418.321 356.314 418.575 355.281 420.447 353.603 421.525 353.394 422.525 353.2 422.649 355.426 422.968 356.227 423.383 357.269 424.184 358.171 424.672 359.263 425.22 360.492 426.385 360.206 427.068 361.056 427.594 361.71 426.633 362.397 426.317 362.965 425.474 364.481 427.611 364.993 425.653 366.695 424.582 367.626 422.885 367.931 421.727 369.037 421.14 369.597 419.601 370.655 418.754 370.309 417.729 369.891 417.889 367.651 416.473 368.227 415.003 368.825 415.175 368.77 414.25 367.533L413.875 366.55ZM293.721 377.683C293.309 376.79 293.946 375.739 294.414 374.994 294.777 374.418 295.36 373.721 296.089 373.721 296.504 373.721 296.118 374.631 296.031 374.849 295.712 375.65 295.709 376.194 295.973 376.96 296.217 377.668 294.702 377.943 294.241 377.943L293.721 377.683ZM175.847 382.396C175.511 382.059 175.008 381.265 175.097 380.777 175.284 379.742 176.647 380.87 176.973 381.239 177.233 381.534 177.406 381.921 177.406 382.309 177.406 382.622 177.017 382.85 176.742 382.685L175.847 382.396ZM176.482 401.104C176.391 400.973 176.309 400.867 176.309 400.699 176.309 400.403 176.364 400.239 176.627 400.092 176.767 400.014 177.073 399.955 177.233 400.034 177.362 400.099 177.526 400.191 177.608 400.295 177.727 400.446 177.839 400.557 177.839 400.786 177.839 400.995 177.365 401.104 177.204 401.104L176.482 401.104ZM185.172 408.94C184.771 408.418 184.565 407.092 185.057 406.598 185.241 406.413 185.341 406.598 185.547 406.598 185.942 406.598 186.405 405.741 186.847 405.991 187.058 406.11 186.991 406.594 186.991 406.858 186.991 407.149 186.974 407.412 187.077 407.668 187.172 407.902 187.386 408.462 187.222 408.709 186.998 409.045 186.136 409.316 185.749 409.316L185.172 408.94ZM179.687 416.227C179.393 415.681 179.456 414.732 179.456 414.087 179.456 413.598 179.754 413.342 180.178 413.48 180.941 413.729 181.227 414.498 181.39 415.186 181.463 415.493 181.469 415.696 181.275 415.967 181.032 416.304 180.607 416.256 180.264 416.256L179.687 416.227ZM189.156 457.085C187.91 455.839 186.451 455.755 184.797 455.755 183.158 455.755 184.687 453.168 184.912 452.574 185.503 451.015 178.509 451.629 177.637 451.764 175.831 452.044 175.477 449.761 173.913 449.249 174.114 448.982 176.114 448.091 176.569 448.179 177.832 448.423 177.53 446.151 176.078 446.878 174.959 447.438 174.447 447.143 173.422 447.022 171.831 445.108 174.494 443.954 175.991 442.83 179.311 440.336 182.096 441.104 185.316 443.234 186.838 444.241 187.895 446.104 189.185 447.398 191.518 449.739 192.226 450.434 195.652 451.157 199.808 449.841 205.112 464.724 206.68 467.87 208.133 470.787 207.576 470.946 205.005 471.485 201.207 472.281 203.221 472.581 200.069 470.213 198.498 469.033 196.305 469.946 194.786 467.697 193.63 465.987 188.641 469.106 185.951 467.957 183.172 466.77 183.22 464.322 182.285 461.885 182.009 461.167 181.916 457.56 182.689 457.403 184.193 457.097 186.989 462.051 189.098 462.579 189.82 462.759 192.452 462.02 191.465 461.336 190.821 460.889 189.006 460.711 188.781 459.803 189.139 459.682 189.864 457.955 189.272 457.808L189.156 457.085ZM191.956 472.439C190.763 471.244 192.686 468.374 194.266 469.865 194.833 470.4 195.411 470.736 196.085 471.109 196.573 471.379 197.235 471.48 197.615 471.89 198.339 472.672 199.072 473.118 200.04 473.683 200.541 473.975 201.235 474.575 200.213 474.637 199.2 474.697 198.102 473.657 197.124 473.422 195.892 473.127 194.498 473.21 193.256 472.757L191.956 472.439ZM202.061 434.964C201.588 434.71 200.996 434.381 200.819 433.866 200.746 433.651 201.375 432.883 201.454 432.565 201.717 431.513 201.174 429.985 201.714 429.066 202.058 428.48 202.768 429.553 202.927 429.933 203.191 430.566 203.345 431.335 203.735 431.899 204.674 433.257 205.763 434.762 203.216 434.762L202.061 434.964ZM213.262 447.629C212.957 447.375 212.834 446.747 212.742 446.357 212.556 445.561 213.028 445.014 213.839 445.229 214.311 445.354 214.587 445.967 215.081 446.155 215.56 446.337 216.647 446.938 216.495 447.572 216.405 447.949 216.173 448.293 215.803 448.468 215.095 448.803 214.715 448.704 213.955 448.642L213.262 447.629ZM223.135 449.914C222.716 449.591 222.199 448.801 222.096 448.294 221.99 447.771 222.206 447.774 222.702 447.774 223.501 447.774 224.066 448.681 224.377 449.307 224.507 449.567 224.583 449.817 224.463 450.087 224.34 450.364 224.023 450.231 223.799 450.203L223.135 449.914ZM243.864 472.786C243.212 472.319 242.134 469.75 241.496 469.75L241.468 469.779C241.468 470.505 242.541 473.08 242.16 473.249 241.3 473.63 239.976 472.883 239.36 472.266 238.661 471.564 235.33 469.108 234.51 469.519 232.455 470.547 232.116 469.538 230.728 467.841L226.686 462.897C225.789 461.8 224.223 462.391 223.049 461.509 222.154 460.837 221.045 458.415 219.931 458.415L219.902 458.444C219.902 459.386 220.712 460.295 221.086 461.104 222.366 461.504 222.451 463.276 222.818 464.314 224.26 468.393 229.32 472.172 232.287 475.186L236.358 479.321C237.689 480.673 239.804 477.491 241.034 476.718 241.391 476.192 242.337 476.076 242.94 475.967 243.699 475.829 244.353 475.968 245.047 475.62 245.368 475.459 245.463 475.13 245.394 474.781 245.334 474.478 244.889 473.526 244.585 473.451L243.864 472.786ZM273.426 459.774 271.088 465.846C270.55 467.241 270.837 468.641 270.337 469.952 269.167 473.023 266.719 476.229 266.613 479.668L263.466 489.499C262.858 491.4 261.996 494.034 259.598 493.432 259.509 492.802 259.222 492.223 259.222 491.494 259.222 490.761 258.614 490.515 258.529 489.962 258.295 488.425 259.465 487.843 258.212 486.29 258.123 484.936 257.576 481.567 256.48 480.68 255.768 480.104 251.952 478.425 253.506 477.875 254.407 477.556 255.757 478.479 256.393 478.02 256.756 477.758 257.414 475.939 257.721 475.389 258.266 474.411 257.862 470.679 258.789 470.964 259.546 471.197 260.582 472.304 261.359 472.063 264.557 471.072 260.32 467.822 259.569 466.887 258.972 466.146 260.412 464.433 260.926 463.764L265.141 457.923C266.829 455.583 269.087 456.634 270.25 453.441 270.57 452.564 271.837 451.24 272.387 450.348 273.344 448.795 274.234 446.983 274.783 445.229 274.481 444.154 275.115 442.047 275.476 440.979 276.146 438.996 276.333 436.524 277.612 434.849 278.303 433.944 279.106 432.943 279.633 431.928 279.821 431.567 281.221 429.182 281.74 429.702 281.74 433.47 280.567 437.604 280.095 441.384 279.612 445.253 277.759 448.37 276.833 452.082 276.637 452.622 276.732 453.205 276.602 453.76 276.435 454.473 275.91 455.291 275.476 455.87 275.236 456.191 274.946 456.498 274.725 456.825 274.457 457.221 274.394 457.67 274.206 458.097L273.426 459.774ZM236.546 457.981C236.397 457.787 235.843 456.955 236.401 456.955 236.749 456.955 236.897 457.287 237.238 457.287 237.62 457.287 238.595 457.211 238.595 457.808 238.595 458.59 237.525 458.415 236.979 458.415L236.546 457.981ZM228.491 451.923C228.348 451.768 228.247 451.535 228.462 451.374 228.816 451.109 229.757 451.219 230.108 451.461 230.254 451.562 230.371 451.676 230.166 451.822 229.895 452.015 229.631 452.068 229.3 452.068L228.491 451.923ZM246.606 456.42C246.606 455.222 246.667 454.531 246.144 453.355 245.671 452.29 246.311 451.857 247.328 451.504 249.041 450.91 250.726 449.039 252.322 448.034 253.206 447.478 255.065 445.134 255.065 447.022 255.065 448.541 255.87 449.452 255.296 450.955 254.745 452.397 253.451 456.137 256.162 456.304 257.484 456.385 259.367 452.451 259.367 455.003 259.367 456.946 257.539 456.457 256.538 457.316 255.008 458.629 254.327 460.823 251.86 460.237 251.154 460.069 250.509 460.844 249.493 460.41 248.327 459.912 247.691 458.704 246.953 457.779L246.606 456.42ZM257.432 446.993C257.432 445.798 258.086 445.779 259.136 445.779 259.856 445.779 260.569 445.54 261.243 445.779 262.109 446.086 261.785 447.353 261.474 447.976 261.192 448.543 260.822 448.774 260.204 448.989 259.721 449.156 258.735 449.427 258.385 448.96 258.606 448.588 259.17 448.287 259.569 448.063 260.053 447.791 260.199 447.614 260.493 447.225 260.457 447.177 260.477 447.181 260.435 447.167L260.435 447.109C260.421 447.104 260.179 446.949 260.175 446.935 259.846 446.935 259.627 447.011 259.338 447.08 258.806 447.206 258.205 447.196 257.663 447.196L257.432 446.993ZM318.26 462.984C317.716 462.564 317.374 461.075 318.058 460.671 318.701 460.291 319.081 460.984 319.704 461.104 320.998 461.352 320.841 458.359 321.956 458.646 322.277 458.729 322.479 459.006 322.793 459.109 323.305 459.276 324.643 459.302 324.554 460.092 324.523 460.373 323.082 460.639 322.764 460.815 322.316 461.063 321.833 461.285 321.551 461.74 320.682 463.145 320.668 464.152 318.52 463.562L318.26 462.984ZM329.115 457.316C328.962 456.649 328.296 454.759 329.808 455.119 330.301 455.236 330.616 455.292 331.136 455.292 331.84 455.292 332.895 455.025 332.782 456.015 332.715 456.605 332.378 457.16 332.378 457.779 332.378 458.294 332.69 459.548 332.118 459.803 331.297 460.169 330.217 458.975 329.866 458.386L329.115 457.316ZM297.907 431.408C297.652 430.641 298.089 429.618 298.398 428.863 298.575 428.432 299.231 427.678 299.726 427.678 300.004 427.678 299.772 429.355 299.755 429.644 299.731 430.043 299.64 430.256 299.38 430.598 299.186 430.853 298.672 431.476 298.341 431.524L297.907 431.408ZM301.487 424.266C301.262 423.848 301.257 423.443 301.112 422.993 300.855 422.199 300.322 420.908 300.881 420.131 301.579 419.161 302.288 422.403 302.411 422.704 302.576 423.109 303.38 424.942 302.036 424.439L301.487 424.266ZM321.436 425.249C321.276 424.726 321.454 424.08 321.754 423.63 322.273 422.851 323.567 423.801 323.803 424.381 323.87 424.543 323.816 424.788 323.803 424.96 323.76 425.543 322.487 425.775 322.071 425.596L321.436 425.249ZM344.676 427.562C344.84 426.683 345.155 425.648 345.571 424.815 345.705 424.547 346.471 423.484 346.812 423.976 347.153 424.468 346.553 425.631 346.553 426.261 346.553 427.038 346.185 427.649 345.282 427.649L344.676 427.562ZM385.584 446.993C385.562 446.897 385.571 446.88 385.526 446.82 385.684 446.609 385.676 446.415 386.046 446.415 387.195 446.415 387.544 444.362 388.817 444.362 388.831 444.415 388.822 444.407 388.875 444.42 388.875 444.864 388.702 445.264 388.702 445.721 388.702 445.958 389 446.64 389.135 446.82 388.911 447.12 388.839 447.163 388.384 447.253 387.846 447.361 387.202 447.427 386.652 447.427L385.584 446.993ZM403.252 458.415C401.498 458.415 399.972 457.712 398.344 458.56 396.504 459.518 395.361 460.839 394.072 462.434 392.314 464.609 389.055 469.154 386.652 470.357 386.051 470.658 382.575 470.063 381.975 469.663 380.943 468.975 382.322 468.335 382.322 467.813 381.47 467.602 379.947 468.433 379.319 468.044 378.516 467.546 379.915 466.405 380.07 465.788 379.974 465.757 380.278 464.836 380.359 464.69 380.536 464.364 380.873 463.922 380.734 463.562 380.334 462.529 381.342 462.635 381.975 462.001 382.31 461.666 381.359 460.577 381.167 460.295 381.167 459.101 381.763 458.467 382.755 457.923 383.42 457.559 384.386 458.284 384.862 457.808 385.324 457.346 384.968 456.554 385.295 456.188 385.655 455.787 386.998 456.838 387.345 457.085 388.514 457.915 389.107 456.994 390.319 456.622 392.215 456.04 392.273 458.861 393.523 457.866 394.121 457.39 394.385 457.338 395.082 457.634 395.408 456.651 397.145 456.749 396.295 454.829 395.723 453.537 393.35 456.369 393.35 453.441 393.35 452.195 393.985 451.056 393.985 449.943 393.985 449.306 390.855 447.039 390.319 447.022 389.948 446.33 391.456 445.616 391.935 445.229 392.654 444.65 393 445.94 393.234 446.444 395.075 450.388 399.657 449.143 403.281 449.596 403.886 449.16 406.744 449.951 407.583 450.03 410.095 450.266 413.993 450.448 414.627 453.47 415.046 455.471 417.834 461.494 413.847 461.798 412.036 461.936 410.398 460.407 408.795 459.658 407.044 458.84 405.7 459.061 403.916 458.617L403.252 458.415ZM369.937 464.14C369.19 462.523 371.334 463.359 372.102 463.099 373.011 462.792 374.437 462.007 375.335 462.723 375.822 463.111 378.297 464.98 376.808 465.442 375.157 465.953 372.621 465.678 371.063 464.95L369.937 464.14ZM87.9081 466.312 90.48 466.193C92.0898 465.569 94.0063 469.942 96.254 469.403 98.1613 468.945 100.284 466.829 102.143 466.829 103.738 466.829 104.841 468.087 106.734 468.015 110.321 467.878 111.824 466.212 115.366 467.986 118.232 469.421 121.246 472.056 124.633 471.658 126.964 470.829 132.132 472.335 134.333 473.017 137.446 473.982 137.409 475.039 138.028 477.644 138.226 478.478 138.303 479.475 138.779 480.246 139.321 481.126 145.438 482.073 146.718 481.432 148.73 480.424 148.502 479.712 149.46 477.788 150.415 475.873 152.461 476.505 153.932 477.976L153.932 477.976C154.222 477.821 154.697 477.712 155.35 477.355 156.641 476.648 157.602 475.839 158.554 474.723 159.702 473.381 162.646 469.986 164.27 470.993 164.939 471.407 165.574 470.082 165.916 469.692 166.39 468.944 166.263 468.451 166.263 467.668 166.263 467.169 166.516 466.65 166.609 466.164 166.923 464.528 167.52 465.486 168.428 464.719 169.022 464.217 168.813 463.061 169.496 462.781 170.674 462.299 171.482 464.295 172.412 464.516 172.972 464.649 173.413 464.132 173.913 464.632 174.614 465.334 173.474 466.015 172.874 466.049 172.054 466.095 171.902 466.344 171.141 466.482 170.018 466.686 169.656 465.845 168.63 466.916L170.853 468.159C172.252 468.942 171.271 468.645 171.834 469.779 172.058 470.229 172.694 470.02 172.989 470.502 173.683 471.635 171.977 471.912 172.036 472.815 172.136 474.34 175.031 474.147 175.068 474.261 175.641 474.261 175.926 474.824 176.684 474.55 177.77 474.158 177.715 475.059 178.33 475.822 179.915 477.79 181.458 475.956 181.592 474.174 181.661 473.252 180.584 472.763 180.091 472.121 179.895 471.865 179.983 470.749 179.802 470.704 179.725 470.395 178.908 470.263 178.648 470.213 178.033 470.094 177.841 469.525 177.319 469.374 176.444 467.908 177.933 467.899 178.474 467.494 179.228 467.946 181.504 468.529 182.314 468.044 182.835 468.355 183.732 467.393 183.469 466.8 183.219 466.24 182.472 465.83 182.66 465.152 182.949 464.109 180.836 463.744 181.563 462.29 181.17 461.762 181.614 460.488 181.015 459.89L180.957 456.68C180.941 455.785 179.05 454.795 178.214 454.454 177.226 454.05 175.855 454.705 174.779 454.222 174.186 453.956 173.761 453.229 173.162 453.21 172.049 452.094 169.187 450.967 168.485 449.538 167.745 448.028 167.955 445.959 166.089 448.352 165.274 449.398 164.557 449.045 163.462 449.365 162.183 449.737 160.598 451.253 159.478 451.186 158.605 451.134 154.464 449.839 154.051 449.191 153.714 448.661 153.881 447.214 154.426 446.878 154.883 446.595 156.798 446.575 156.938 446.01 157.023 445.989 157.055 445.887 157.14 445.866 157.212 445.573 160.015 445.729 160.662 445.374 162.328 444.459 162.569 443.655 163.751 442.309 164.037 439.706 162.753 439.455 161.384 437.74 162.031 436.654 159.266 436.67 158.93 436.67 157.94 436.67 155.908 437.062 156.765 435.34 157.891 433.076 159.156 434.473 160.748 434.473L160.777 434.444C160.777 433.166 159.342 431.98 159.709 430.656 159.853 430.138 162.266 428.746 162.885 428.574 164.123 428.23 164.659 427.257 165.223 426.203 166.537 425.111 167.577 425.05 169.178 425.162 169.84 425.208 171.488 426.622 171.546 426.608 172.032 427.46 173.14 426.355 173.451 425.885 174.032 425.009 175.29 425.314 175.789 424.641 177.858 421.854 173.228 422.454 173.047 422.01 172.619 420.961 173.871 420.266 174.75 420.044 174.75 420.043 176.301 420.696 176.887 419.379 177.213 418.645 177.579 417.228 177.579 416.401 177.579 414.546 174.383 412.884 172.989 412.352 172.06 411.997 169.753 412.717 169.352 412.468 168.898 412.188 170.191 411.34 170.42 411.225 171.032 410.918 172.575 410.501 172.903 410.068 172.3 409.271 172.366 408.752 171.95 408.073 171.364 407.118 169.468 407.723 171.199 405.991 172.094 405.096 172.058 401.312 170.651 400.96 168.415 400.4 168.233 401.946 169.15 398.964 169.706 397.155 170.276 395.065 168.745 393.47 167.826 390.935 169.073 390.533 171.257 389.972 172.727 389.594 174.51 387.845 175.356 386.704 176.138 385.651 175.883 385.797 175.674 384.738 175.358 384.66 171.975 380.913 171.69 380.401 170.623 378.486 167.458 381.777 165.339 380.921 164.715 380.669 163.9 381.062 163.289 381.239 162.289 381.529 161.828 380.95 161.008 380.95 160.97 380.794 160.864 380.932 160.662 380.979 160.325 380.641 160.524 380.667 160.604 380.343 161.3 380.17 161.517 379.792 162.365 380.14 163.377 380.556 164.137 379.822 165.252 379.822 165.704 379.822 166.419 379.905 166.84 379.765 167.926 379.402 167.244 379.042 167.475 378.579 166.904 378.008 165.524 376.497 167.302 376.497 168.437 376.497 168.242 377.374 169.15 377.654 169.785 377.85 171.013 377.023 171.315 377.365 173.249 379.554 174.145 374.275 175.645 376.786 175.324 377.215 175.18 377.957 175.299 378.434 175.47 378.477 175.832 378.836 176.02 378.897 176.536 379.014 179.73 381.045 179.773 381.557 179.88 382.838 180.454 384.42 181.996 384.42 182.449 384.42 185.468 385.009 185.085 385.779 184.486 386.987 186.28 387.049 186.875 388.063 188.827 391.387 183.327 387.644 183.238 387.63 182.336 387.481 180.362 386.218 179.716 385.49 178.344 383.946 180.041 387.208 180.091 387.398 180.441 388.728 181.081 388.905 182.372 389.162 183.069 389.3 183.946 389.323 184.45 389.827 185.342 390.719 186.227 390.286 187.02 390.897 187.34 391.144 187.51 392.219 187.626 392.69 187.254 392.813 186.329 392.43 185.778 392.43 183.972 392.43 185.346 393.192 186.125 393.384 187.113 393.627 188.277 394.566 188.376 395.668 188.11 398.794 185.555 397.341 183.931 398.964 183.473 399.422 185.582 399.93 185.865 400.063 187.672 400.912 187.648 401.946 190.051 401.48 191.727 401.155 191.363 400.63 192.274 402.001 192.48 402.311 193.693 403.261 193.256 403.649 192.855 404.003 191.899 403.971 191.841 404.748 191.81 405.156 193.019 405.96 193.169 406.743 193.402 407.96 193.184 409.229 193.486 410.444 193.09 411.813 191.539 415.065 193.544 415.562 193.544 417.15 192.842 417.408 194.41 418.454 195.154 418.949 195.136 420.75 195.94 420.883 197.053 421.067 198.082 420.212 199.174 420.94 200.712 421.966 201.558 423.119 203.273 424.063 204.336 424.648 203.839 426.84 205.9 426.984 207.187 427.074 207.805 427.606 209.105 426.955 211.21 425.901 211.245 425.073 212.078 427.793 212.285 428.468 212.981 428.756 213.464 429.239 213.942 429.717 214.218 430.99 214.648 431.668 215.219 432.494 216.744 434.27 215.831 434.762L211.27 437.22C210.502 437.633 209.624 437.323 208.989 437.567 208.731 437.666 209.043 439.432 208.932 439.88 208.097 443.246 209.309 441.037 211.414 440.256 213.7 439.409 216.927 442.596 219.123 443.177 221.87 443.902 218.356 439.07 220.768 439.07 223.582 439.07 222.746 440.073 224.868 440.892 226.333 441.458 226.465 441.85 226.917 443.234 227.077 443.723 230.033 445.663 230.613 445.663 231.614 445.663 233.625 443.312 234.337 445.199 236.812 446.686 237.325 447.913 240.428 447.136 243.095 446.469 242.631 448.623 244.441 449.016 245.118 449.163 252.072 446.538 252.64 446.009 253.15 445.534 253.889 444.213 254.488 444.013 255.415 443.705 256.245 444.679 257.201 444.621 258.553 444.538 258.817 443.459 260.435 443.753 262.427 444.115 263.014 441.926 264.101 441.064 265.618 439.408 267.473 436.956 267.363 434.645 267.254 432.324 268.05 430.753 268.576 428.631 268.872 427.434 269.486 426.408 269.76 425.306 269.981 424.412 270.375 420.184 270.106 419.465 269.511 417.174 268.605 415.193 268.605 412.785 268.605 410.715 267.898 409.456 269.558 408.419 270.118 408.74 272.965 411.832 272.156 409.344 271.765 408.142 270.509 406.63 269.875 405.47 268.464 402.89 268.195 398.618 265.862 396.477 264.958 394.481 262.446 392.243 261.185 390.492 260.172 389.085 258.548 386.913 256.942 387.571 255.452 388.181 255.598 389.067 253.766 388.15 251.262 386.896 250.707 385.459 250.533 389.509 250.418 392.163 248.781 388.77 248.425 388.468 247.086 387.331 249.482 387.238 249.638 386.299 249.845 385.045 251.751 386.115 252.756 386.039 253.751 385.964 253.661 386.447 254.517 386.675 256.904 387.309 257.248 386.728 258.616 385.2 259.208 384.54 260.38 384.909 261.156 384.13 262.365 382.919 262.151 383.494 263.639 383.205 265.2 382.903 264.312 381.224 263.495 380.603 262.473 377.785 260.088 376.374 260.088 373.229 260.088 370.994 258.203 369.194 256.768 367.649 255.764 366.566 255.57 364.244 254.776 363.543 254.481 363.282 254.973 367.028 254.805 367.649 254.703 368.025 255.686 369.162 255.758 369.76 255.968 371.494 254.474 370.791 253.737 370.193 253.507 370.006 254.031 372.819 254.315 372.911 254.271 372.969 254.244 373.236 254.17 373.374 254.17 374.547 254.479 375.328 254.603 376.41 254.72 377.437 253.237 377.668 252.871 376.902 251.432 373.886 249.025 377.207 251.197 377.625 252.247 377.826 253.259 377.742 253.737 378.81 254.174 379.786 255.242 381.419 253.824 382.367 252.834 383.028 249.718 383.61 248.685 383.61 248.53 383.137 247.152 384.06 246.953 384.246 246.383 384.776 245.688 385.08 244.961 384.68 242.446 383.297 243.444 385.249 243.517 386.733 243.596 388.314 242.99 388.681 241.67 388.872L237.686 389.451C237.253 387.727 238.43 387.281 238.927 385.779 239.486 384.091 238.384 382.716 240.573 381.904 242.145 381.32 240.936 380.919 241.814 380.4 243.01 379.693 244.439 379.515 242.853 377.625 242.75 376.473 241.362 375.641 241.439 374.704 241.521 373.694 242.734 373.806 242.882 372.825 243.074 371.554 239.639 369.865 238.783 369.181 239.288 368.17 236.169 366.85 235.694 366.463 235.003 365.902 233.479 364.273 232.605 364.584 231.998 364.204 227.12 359.562 227.12 361.577 227.12 362.948 228.827 366.616 226.6 367.013 224.733 367.346 226.113 364.02 225.965 363.572 224.301 363.984 222.489 364.768 220.682 364.642 217.718 364.434 219.404 368.033 217.16 367.302 215.623 366.801 214.811 367.452 213.32 368.112 212.149 368.63 208.609 368.753 208.124 369.875L206.738 370.801C206.4 371.026 206.166 371.459 205.843 371.726 205.395 372.097 204.719 372.582 204.14 372.622 202.593 372.73 201.922 374.138 200.791 374.935 199.298 375.932 198.438 377.335 196.749 377.856 195.373 378.28 193.943 377.686 192.506 378.058 188.385 379.124 190.44 372.62 188.926 371.523 188.187 370.989 185.355 371.744 184.624 372.333 183.681 373.094 183.676 372.536 182.777 372.883 181.497 373.375 182.204 374.811 182.546 375.629 183.335 377.52 182.054 377.292 180.929 377.856 179.7 378.472 178.521 378.893 178.071 376.902 180.222 376.186 180.413 374.782 179.197 373.143 177.778 371.23 180.127 371.114 181.102 370.136 181.721 369.514 182.762 370.6 183.441 369.095 184.064 367.712 183.812 366.672 184.884 365.451 186.029 363.873 190.846 361.711 187.886 361.143 186.564 360.889 181.746 361.123 181.131 360.507 179.878 359.251 180.443 356.759 179.341 355.996 178.463 355.389 177.175 355.331 176.454 354.608 175.357 353.508 175.105 352.627 173.481 352.064 172.19 351.616 163.372 350.912 163.925 348.681 164.65 348.498 168.26 348.131 168.977 348.218 170.727 348.431 172.862 347.911 174.462 348.333 178.037 349.276 181.771 354.491 185.346 353.047L187.077 354.261C190.24 353.534 192.033 351.709 195.219 351.196 197.828 350.776 201.005 350.855 203.475 350.097 206.195 349.263 201.959 346.729 201.916 346.165 201.861 345.431 203.657 345.565 204.197 345.326 205.204 344.881 205.582 343.807 206.42 343.533 207.423 343.206 208.556 343.297 208.556 342.088 207.781 341.83 206.937 341.939 206.102 341.741 204.948 341.466 204.457 340.122 203.648 339.861 203.885 336.987 206.277 336.038 207.142 333.644 207.695 332.114 203.979 330.886 203.014 331.273 201.316 331.953 199.723 330.239 198.106 329.77 196.444 329.288 191.443 328.054 190.542 326.849 191.566 325.475 194.075 326.521 195.334 326.068 196.572 325.623 197.367 326.584 198.452 326.04 199.375 325.577 198.662 324.228 199.434 323.668 200.71 322.744 201.563 325.705 202.292 323.784 202.605 322.957 203.694 323.84 204.284 323.986 205.389 324.261 206.5 323.314 207.199 323.495 207.865 323.2 209.922 322.581 210.606 322.743 211.19 322.882 211.472 324.505 212.107 324.015 214.485 322.182 213.388 327.017 214.619 327.398 215.94 327.808 216.272 328.955 217.564 329.278 219.435 329.747 218.091 326.667 218.372 325.75 218.881 324.087 218.211 324.709 218.112 323.293 218.044 322.31 222.7 319.689 223.453 317.885 224.286 315.889 223.545 313.617 224.146 311.697 224.146 309.549 222.979 307.868 223.54 305.683 223.888 304.325 225.559 302.715 225.214 301.316 224.447 301.127 218.991 306.508 221.143 302.415 222.091 300.613 225.507 301.546 224.752 299.437 224.154 297.765 223.795 295.785 223.482 294.001 223.247 292.663 222.644 291.39 222.356 290.068 222.356 289.087 222.044 288.15 221.576 287.321 221.229 286.706 220.311 286.49 220.133 285.847 219.76 284.502 222.764 282.435 220.422 282.435 219.326 282.435 221.268 280.198 221.345 279.919 221.456 279.519 221.315 279.147 221.461 278.704 222.12 276.715 223.466 276.538 224.839 275.322 225.886 274.392 225.771 273.581 226.484 272.488 226.963 271.755 228.744 270.632 229.516 270.175 230.271 269.417 231.285 268.531 231.71 267.572 232.087 266.721 231.081 265.945 231.363 265.201 231.86 263.89 236.237 265.087 234.712 262.309 233.903 260.837 236.841 261.358 237.224 261.384 238.701 261.487 239.702 259.72 240.371 262.309 241.184 265.462 243.334 262.08 244.21 264.391 244.959 266.367 242.886 265.38 242.536 266.358 242.364 266.835 242.738 267.339 242.449 267.774 241.998 268.454 241.308 268.509 240.919 269.191 240.329 270.226 240.092 270.06 240.168 271.331 240.227 272.32 241.077 272.183 241.641 272.748 243.061 274.172 239.549 275.683 238.696 274.281 238.151 273.384 238.623 272.464 238.378 271.476 237.367 271.225 236.758 272.303 236.271 272.979 235.697 273.776 234.943 273.294 234.366 273.76 232.97 274.885 229.524 274.697 232.489 276.594 233.708 277.373 233.258 278.028 233.095 279.312 232.786 281.759 235.871 281.018 237.195 280.729 238.89 279.957 238.078 278.069 240.457 278.069 242.414 278.069 241.885 279.091 243.315 279.456 243.977 279.626 244.767 279.146 245.221 279.601 245.673 280.055 245.764 282.67 245.307 283.129 243.841 284.599 241.568 284.723 243.517 287.177 244.643 288.594 244.437 289.094 244.672 290.791 249.071 290.791 249.193 285.901 247.905 282.753 247.571 281.936 246.144 280.8 246.144 280.093 246.144 279.744 248.446 277.151 248.829 276.767 250.299 275.295 251.225 272.283 252.756 271.418 255.598 269.81 257.809 272.348 258.443 274.888 259.167 277.788 257.493 276.581 256.22 276.941 255.27 277.209 255.892 278.328 256.22 278.849 257.102 280.251 258.394 281.116 258.789 282.782 259.506 285.802 262.629 283.595 262.629 281.336 263.582 278.46 263.658 277.961 263.091 275.177 262.452 272.043 264.799 271.845 265.891 269.654 266.863 267.704 268.069 268.312 269.355 267.023 271.053 265.322 270.624 262.711 272.271 261.297 273.505 260.239 274.35 260.937 274.552 258.84 275.633 256.241 278.157 254.315 278.738 251.726 279.243 249.474 278.482 246.458 278.882 244.151L279.575 240.16C280.732 238.63 284.08 238.105 280.817 235.62 279.064 233.868 275.314 231.594 274.494 229.432 273.356 226.431 272.635 223.953 268.778 223.765 261.104 223.391 253.274 227.717 245.798 227.09 241.767 226.841 236.207 224.866 233.298 222.117 231.696 220.603 228.936 215.461 228.274 213.442 227.455 213.442 223.584 221.042 222.904 222.29 222.201 223.58 221.022 235.17 220.364 228.189 220.074 223.795 219.445 221.277 222.876 218.329 225.898 215.732 225.239 212.137 229.804 210.926 230.829 209.986 232.229 208.808 232.229 207.312 232.229 206.216 230.89 205.375 231.421 204.478 231.839 203.772 232.707 203.623 232.287 202.685L230.901 199.592C230.219 198.068 229.011 199.219 227.581 199.505 225.516 199.918 223.256 198.866 221.461 199.765 219.977 200.303 220.112 201.821 218.141 201.442 216.827 201.19 217.591 199.911 216.986 199.187 215.587 197.51 212.338 198.146 211.01 199.476 209.398 201.091 207.842 200.63 206.045 201.384 203.893 202.287 202.091 204.338 200.155 205.606 197.746 207.184 192.826 207.775 189.964 207.688L185.23 207.543C185.057 207.022 190.212 206.362 191.004 206.271L196.056 205.693C197.785 205.495 198.889 204.14 200.011 202.946L201.397 201.471C201.989 201.155 203.132 200.697 203.533 200.141 203.852 199.7 203.916 198.882 204.37 198.579 205.77 197.646 206.816 199.11 208.354 198.464 209.248 198.088 209.984 197.014 210.866 196.845 212.032 196.621 212.832 195.882 213.782 195.688 215.418 195.354 216.354 198.516 218.054 197.886 220.937 196.817 218.933 194.029 222.558 196.787 224.771 195.876 226.795 199.403 229.545 197.943 231.303 197.01 229.109 195.191 228.592 194.213 227.52 192.187 226.551 189.255 226.167 186.984 225.884 185.315 226.078 183.528 225.763 181.895 224.54 177.511 224.223 170.497 224.81 165.905 225.217 162.724 226.815 159.423 227.61 156.334 227.61 154.877 222.756 156.062 221.432 155.784 218.637 155.198 215.141 153.878 213.291 151.534 211.855 149.714 211.146 148.249 209.105 146.965 206.667 145.431 205.535 141.592 202.725 141.24 200.258 140.935 199.455 144.844 196.691 145.346 194.181 145.802 193.069 142.308 190.369 145.375 188.705 147.264 186.645 145.822 184.652 145.375 181.398 144.645 179.499 146.418 176.482 146.907 173.219 147.437 174.209 153.633 171.084 155.756 170.056 156.934 169.335 158.647 167.533 158.647 165.9 158.647 166.054 160.368 166.118 161.51 166.135 161.81 166.076 164.386 165.31 163.621 164.807 163.118 164.091 161.065 163.924 160.353 163.76 159.656 164.533 159.003 164.79 158.387 165.564 156.534 168.324 155.695 165.887 153.905 163.888 152.436 162.156 151.484 159.825 150.695 158.602 150.282 154.976 149.813 153.733 150.175L144.697 152.72C141.545 153.607 142.564 157.14 139.443 158.098 137.48 158.7 137.36 160.522 136.209 161.972 134.826 163.716 134.346 165.28 133.178 167.09 132.111 168.744 132.81 168.949 132.514 170.531 133.419 171.273 135.711 173.24 135.776 174.406 135.872 176.102 135.298 178.686 134.275 180.131 133.625 181.05 132.601 181.733 132.601 182.907 132.601 184.185 134.073 185.274 134.073 186.984 134.073 187.283 133.834 188.733 134.015 188.777 134.047 188.906 136.627 189.448 136.642 189.442 137.004 189.733 137.248 190.236 137.451 190.657 139.667 193.075 136.895 196.059 135.43 197.77 134.656 198.674 129.893 203.283 132.629 203.813 133.921 204.063 135.266 202.939 136.325 202.339 138.177 201.289 140.045 199.659 142.272 199.534 145.707 199.34 145.365 204.295 145.13 206.734 145.13 208.341 144.849 210.453 144.466 211.996 144.126 213.364 143.071 214.202 142.821 215.582 142.393 217.94 141.884 220.589 144.841 221.191 146.077 221.443 147.961 219.811 148.796 220.093 148.796 221.494 149.424 224.861 147.007 224.054 145.005 223.386 144.396 227.305 143.196 224.893 142.551 223.597 141.641 222.425 140.569 221.481 140.177 219.92 139.167 218.006 140.136 216.478 140.899 215.274 141.952 214.447 142.445 213.153 143.732 209.777 138.412 210.781 136.902 210.059 135.109 209.202 133.525 211.793 132.341 210.493 131.743 209.837 131.279 208.161 130.84 207.833 130.398 208.162 128.582 210.415 128.53 210.926 128.396 212.258 131.671 210.636 131.244 212.112 129.975 216.492 126.046 211.727 126.192 215.755 126.249 217.336 126.893 219.274 125.441 220.411 122.409 222.785 122.978 218.527 121.977 217.143 120.752 211.871 123.982 209.748 126.942 206.445 127.877 205.401 125.904 204.541 127.808 203.726 127.965 203.82 128.644 203.738 128.674 203.553 129.095 203.449 128.923 201.742 129.396 201.269 130.198 200.467 130.047 200.451 130.609 199.389 131.48 197.742 134.57 196.84 131.042 194.821 129.355 192.643 127.517 190.363 127.318 187.505 127.103 184.431 125.535 184.391 122.872 183.833 120.221 183.277 121.738 183.782 121.082 185.452 120.833 186.084 117.151 184.417 116.52 184.122 113.508 182.709 111.831 186.849 109.534 188.575 107.301 190.252 107.816 189.622 106.82 192.247 106.216 193.841 105.184 195.723 104.135 197.105 102.501 199.151 107.122 197.899 107.946 197.741 110.117 197.324 111.502 199.852 109.332 199.852 108.365 199.852 107.63 198.643 106.849 199.389 106.549 199.676 104.993 200.739 104.222 200.546 103.281 200.31 102.803 199.485 102.028 200.719 100.409 203.295 99.6284 206.659 97.4953 208.758L94.2619 211.939C91.9064 214.256 92.7354 210.1 91.6348 210.898 90.8836 211.441 91.4851 212.705 91.8659 213.298L94.8394 217.924C96.0648 219.152 96.9262 220.423 98.7078 219.919 99.6424 219.655 100.846 218.541 101.739 218.763 102.507 221.874 100.184 220.729 98.7945 221.163 98.0709 221.389 96.3983 224.867 96.3983 225.789 96.3983 227.268 96.8264 228.649 96.7448 230.184 96.6178 232.565 95.619 233.063 93.4825 233.683 90.7331 234.48 89.4881 234.663 86.8136 233.886 85.354 233.219 86.137 231.818 85.5434 230.849 84.8167 229.664 83.9198 230.93 82.9452 230.791 80.9713 230.511 78.8508 230.524 82.1368 229.259 83.3045 228.809 83.6521 227.48 84.1289 227.322 85.7971 226.766 87.3102 228.278 88.1705 225.673 88.7602 223.889 86.3664 221.439 88.4304 219.37 89.3428 218.456 89.7568 216.552 87.9685 217.895 87.3255 218.378 86.169 221.687 86.1207 222.493 86.0696 223.35 87.7122 226.888 85.7743 226.888 83.17 226.888 84.3738 223.889 83.0317 223.042 81.7034 222.203 82.428 221.395 81.8768 220.266 80.8797 218.223 79.4337 224.414 76.9403 223.245 74.1485 221.935 71.2337 217.185 67.2979 217.924 65.0154 218.448 63.3237 216.811 61.091 218.358 59.4744 219.478 59.0153 219.745 58.406 217.548 58.1342 216.568 59.6253 216.005 59.8785 215.351 60.2974 214.268 56.8183 214.288 56.3851 214.31 53.6486 214.446 54.3213 212.06 53.5272 210.464 53.0233 209.45 51.5191 209.704 51.0443 208.989 49.7525 207.045 53.4426 203.662 53.1808 201.818 53.1015 201.259 53.2198 197.607 51.9682 198.406 49.425 200.03 48.2997 207.343 47.118 210.088 46.4002 211.48 46.3517 213.61 45.9634 215.177 45.6981 216.247 44.8373 217.187 44.8373 218.3 44.8373 219.559 46.0872 218.199 46.6274 218.531 47.6512 219.162 46.4692 221.698 45.7613 222.261 44.1554 223.54 43.9235 225.021 44.0868 227.003 44.645 228.588 44.8851 232.184 44.722 233.886 44.4694 234.602 44.6208 235.924 44.6208 236.705 44.6208 237.971 44.2487 239.242 44.3034 240.493 44.3213 240.907 44.7661 241.956 44.9817 241.013 45.0907 240.537 45.0854 239.975 45.2848 239.524 45.3204 239.443 45.7562 238.73 45.8766 238.975 46.2865 239.032 46.2318 239.548 46.9593 239.408 47.6105 239.283 48.5817 239.183 48.6338 240.073L48.807 243.037C48.8857 244.987 48.861 245.867 50.1494 247.389 50.67 248.004 52.0244 248.602 52.2858 249.326 52.8571 250.907 53.957 251.012 54.8262 252.276 55.1259 252.712 55.0471 253.344 55.0861 253.866 55.1433 254.628 55.7162 255.034 56.2119 255.601 57.633 256.393 59.6961 256.584 58.8571 258.594 58.4695 259.523 57.0259 261.18 56.129 261.63 53.2549 263.072 54.6009 257.088 52.304 257.177 51.24 257.218 50.482 257.018 49.4749 257.018 48.9533 257.018 48.7278 256.267 48.4211 255.977 47.9712 255.55 47.2032 255.665 46.6456 255.702 46.1831 255.433 45.0355 256.159 44.8703 255.24 44.7063 254.327 44.8235 252.786 45.0435 251.9 45.1658 251.406 45.2095 250.975 45.029 250.483 44.7942 249.843 45.0098 248.993 44.8558 248.329 44.8558 247.255 44.8916 246.221 44.7114 245.162 44.6641 244.885 44.5088 243.316 44.6392 243.095 44.5604 242.909 44.6033 242.192 44.567 241.939 44.2174 241.85 44.4689 245.449 44.466 246.117L44.4371 252.261C44.1929 253.53 44.4228 255.402 44.4228 256.729 44.4228 258.911 44.1891 260.998 44.567 263.177L44.5815 263.35C45.2034 264.38 45.2746 266.727 45.4042 267.934 45.6242 269.982 45.2598 272.04 45.2598 274.093 42.9744 280.537 43.667 287.845 42.6432 294.637 42.4266 296.116 42.3392 298.182 42.7483 299.625 43.1333 300.983 43.6939 302.493 43.7876 303.89L44.0042 304.772C44.1266 305.27 44.6426 308.109 45.1157 308.227 45.4953 307.844 44.8124 305.167 44.8124 304.468 44.8124 303.831 45.0672 303.203 44.8703 302.56 44.6619 301.879 44.4773 301.123 44.3361 300.42 44.2508 299.516 44.551 298.618 44.5961 297.717 44.738 294.879 44.6874 292.255 45.2456 289.476 45.5547 289.258 45.663 287.414 46.4002 287.871 48.1108 288.931 49.6564 289.219 51.6112 289.765 53.6163 290.325 55.4231 291.907 56.6921 293.495 57.7437 293.577 58.9456 295.892 60.1959 296.141 60.9473 299.135 60.0285 303.118 61.2642 306.088 62.5458 309.168 67.0978 311.74 66.2586 315.399 66.1457 315.982 65.7862 318.215 65.9699 318.319 68.0848 319.517 59.8637 327.015 58.4637 327.948 57.9707 328.277 56.6332 329.364 56.0675 329.018 55.6809 328.781 55.9306 327.307 55.2305 328.439 55.0454 328.738 53.3251 331.234 53.3251 329.191 53.3251 328.638 54.1602 326.862 54.3354 326.155 54.8557 326.027 55.6346 326.494 55.8078 327.023 55.8861 327.023 55.9144 327.01 55.981 326.994 55.9948 326.938 56.012 326.921 56.0675 326.907 56.2713 326.098 55.519 325.959 55.519 325.374 55.519 325.299 57.2129 321.884 55.6634 323.437 53.722 325.383 53.745 322.033 52.6323 321.413 51.9162 321.014 52.5688 323.304 52.5455 323.639 52.5041 324.236 51.6899 325.39 52.1124 326.097 51.789 326.641 50.1431 329.603 49.1389 328.092 48.4664 327.08 50.5847 325.936 49.8029 324.68 49.4282 324.079 48.9834 323.577 48.7925 322.888 48.6403 322.339 49.1389 321.599 49.1389 321.037 49.1389 320.195 48.2941 319.671 48.5328 318.666 48.8429 317.359 48.5282 316.399 48.0708 315.138 47.9385 314.075 47.5729 312.941 47.3203 311.871 47.0807 310.856 46.2197 309.869 45.9922 308.95L45.9345 308.95C45.919 308.904 45.903 308.922 45.8478 308.922 45.6993 309.37 46.0576 310.721 46.1654 311.264 46.4411 312.653 46.5305 314.082 46.7715 315.485 47.061 317.17 47.4644 318.753 47.4644 320.517L48.3596 329.827 49.0524 342.232C48.2287 350.794 44.747 359.129 41.5462 367.157 40.9731 370.416 40.1167 371.064 43.6537 372.738 47.0574 374.349 49.9745 375.526 52.892 378.03 53.9843 378.967 58.2008 383.554 59.1856 382.251 58.0104 381.27 56.6843 377.954 55.2882 376.555 54.3407 375.606 54.611 375.303 55.5479 374.965 57.021 374.432 53.0039 373.975 53.8448 372.391 54.6891 370.8 53.9676 370.355 54.0757 368.806 54.1454 367.803 55.8611 365.468 56.7027 364.931 57.1577 364.64 60.2538 367.47 60.2538 367.476 56.5658 368.698 59.9122 371.461 61.1487 372.94L67.8176 380.921C69.0887 382.195 70.1394 384.594 71.888 385.027 72.1341 386.004 72.3713 386.807 73.6492 386.242 75.3882 385.472 76.2201 387.43 78.7301 386.039 80.228 385.209 81.0248 386.567 81.848 387.572 83.1654 389.18 86.2976 389.37 86.8136 391.331 87.4304 393.675 88.7829 396.73 88.9789 399.109 88.9789 401.395 90.5667 402.379 90.5667 404.43 90.5667 405.834 89.3157 406.79 89.2386 408.16 89.1839 409.13 89.4828 409.769 89.2098 410.762 88.5082 413.315 89.5538 413.038 90.1047 415.128 90.3038 415.884 89.9681 416.721 89.9027 417.471 89.8065 418.574 90.1352 419.412 90.48 420.449 90.8792 422.002 90.3072 423.763 90.7976 425.22 91.3136 426.754 91.1152 427.316 91.1152 428.863 91.1152 429.72 91.6927 430.405 91.6927 431.263 91.6927 433.938 90.3901 437.391 88.9501 439.735 88.0518 441.312 88.3205 442.671 87.7664 444.246 85.8749 449.624 91.1324 454.299 89.2965 459.832 88.8827 460.82 89.0061 461.998 88.5458 463.099 88.1429 464.062 88.0678 465.224 87.9081 466.312L87.9081 466.312ZM24.2259 24.2259 484.519 24.2259 484.519 522.838 24.2259 522.838 24.2259 24.2259Z" stroke="#000000" stroke-width="0.242259" stroke-miterlimit="22.9256" fill="#FEFEFE" fill-rule="evenodd" transform="matrix(1 0 0 1.00036 385.629 -0.260722)"/><path d="M38.6554 29.8568 117.003 29.8568 117.003 68.4462 38.6554 68.4462Z" stroke="#000000" stroke-width="0.242259" stroke-miterlimit="3.864" stroke-opacity="0.501961" fill="#FEFEFE" fill-opacity="0.501961" transform="matrix(1 0 0 1.00036 385.629 -0.260722)"/><text font-family="Times New Roman,Times New Roman_MSFontService,sans-serif" font-weight="400" font-size="353" transform="matrix(0.0242259 0 0 0.0242346 453.434 40)">50<tspan x="352.78" y="0">km</tspan><tspan x="-41.3297" y="949.055">30</tspan><tspan x="311.45" y="949.055">mi</tspan></text><text font-family="Arial,Arial_MSFontService,sans-serif" font-weight="400" font-size="282" transform="matrix(6.41612e-16 -0.0242346 0.0242259 6.41842e-16 419.638 74)"><tspan x="288.843" y="-7.64986e-12">d</tspan><tspan x="453.896" y="-1.20212e-11">-</tspan><tspan x="536.422" y="-1.42069e-11">maps</tspan><tspan x="1237.9" y="-3.27851e-11">.</tspan><tspan x="1320.42" y="-3.49708e-11">com</tspan></text><path d="M42.0506 44.2993 56.2829 44.2993 56.2829 46.7015 42.0506 46.7015Z" stroke="#000000" stroke-width="0.242259" stroke-miterlimit="3.864" fill="#D9DADA" transform="matrix(1 0 0 1.00036 385.629 -0.260722)"/><path d="M56.2826 44.2993 70.5149 44.2993 70.5149 46.7015 56.2826 46.7015Z" stroke="#000000" stroke-width="0.242259" stroke-miterlimit="3.864" fill="#FEFEFE" transform="matrix(1 0 0 1.00036 385.629 -0.260722)"/><path d="M70.5146 44.2993 84.7467 44.2993 84.7467 46.7015 70.5146 46.7015Z" stroke="#000000" stroke-width="0.242259" stroke-miterlimit="3.864" fill="#D9DADA" transform="matrix(1 0 0 1.00036 385.629 -0.260722)"/><path d="M84.75 44.2993 98.982 44.2993 98.982 46.7015 84.75 46.7015Z" stroke="#000000" stroke-width="0.242259" stroke-miterlimit="3.864" fill="#FEFEFE" transform="matrix(1 0 0 1.00036 385.629 -0.260722)"/><path d="M98.9823 44.2993 113.215 44.2993 113.215 46.7015 98.9823 46.7015Z" stroke="#000000" stroke-width="0.242259" stroke-miterlimit="3.864" fill="#D9DADA" transform="matrix(1 0 0 1.00036 385.629 -0.260722)"/><path d="M87.6257 51.5414 110.388 51.5414 110.388 53.9436 87.6257 53.9436Z" stroke="#000000" stroke-width="0.242259" stroke-miterlimit="3.864" fill="#FEFEFE" transform="matrix(1 0 0 1.00036 385.629 -0.260722)"/><path d="M64.8632 51.5414 87.6259 51.5414 87.6259 53.9436 64.8632 53.9436Z" stroke="#000000" stroke-width="0.242259" stroke-miterlimit="3.864" fill="#D9DADA" transform="matrix(1 0 0 1.00036 385.629 -0.260722)"/><path d="M42.1005 51.5414 64.8632 51.5414 64.8632 53.9436 42.1005 53.9436Z" stroke="#000000" stroke-width="0.242259" stroke-miterlimit="3.864" fill="#FEFEFE" transform="matrix(1 0 0 1.00036 385.629 -0.260722)"/><path d="M24.2259 24.2259 484.519 24.2259 484.519 522.838 24.2259 522.838Z" stroke="#000000" stroke-width="1.2113" stroke-miterlimit="22.9256" fill="none" fill-rule="evenodd" transform="matrix(1 0 0 1.00036 385.629 -0.260722)"/><path d="M427.296 465.726 484.518 465.726 484.518 522.838 427.296 522.838Z" stroke="#000000" stroke-width="1.2113" stroke-miterlimit="22.9256" fill="none" fill-rule="evenodd" transform="matrix(1 0 0 1.00036 385.629 -0.260722)"/></g></g></g></svg>