<?xml version="1.0" encoding="UTF-8"?>
<!DOCTYPE svg PUBLIC "-//W3C//DTD SVG 1.1//EN" "http://www.w3.org/Graphics/SVG/1.1/DTD/svg11.dtd">
<!-- Creator: CorelDRAW -->
<svg xmlns="http://www.w3.org/2000/svg" xml:space="preserve" width="100%" height="100%" version="1.1" style="shape-rendering:geometricPrecision; text-rendering:geometricPrecision; image-rendering:optimizeQuality; fill-rule:evenodd; clip-rule:evenodd"
viewBox="0 0 21000 29700"
 xmlns:xlink="http://www.w3.org/1999/xlink">
 <defs>
  <style type="text/css">
   <![CDATA[
    .str1 {stroke:black;stroke-width:10;stroke-miterlimit:3.864;stroke-opacity:0.501961}
    .str3 {stroke:black;stroke-width:50;stroke-miterlimit:22.9256}
    .str0 {stroke:black;stroke-width:10;stroke-miterlimit:22.9256}
    .str2 {stroke:black;stroke-width:10;stroke-miterlimit:3.864}
    .fil5 {fill:none}
    .fil0 {fill:#FEFEFE}
    .fil4 {fill:#FEFEFE;fill-rule:nonzero}
    .fil3 {fill:#D9DADA;fill-rule:nonzero}
    .fil2 {fill:black;fill-rule:nonzero}
    .fil1 {fill:#FEFEFE;fill-rule:nonzero;fill-opacity:0.501961}
   ]]>
  </style>
 </defs>
 <g id="Plan_x0020_1">
  <metadata id="CorelCorpID_0Corel-Layer"/>
  <path class="fil0 str0" d="M13262.25 9454.81c-28.8,-25.8 -63.22,-80.05 -120.91,-52.2 -47.43,22.89 -150.5,69.48 -203.09,49.96 -33.36,-12.39 -44.42,-103.46 -60.8,-104.8 -27.23,-2.24 -84.72,67.28 -96.07,90.18 -81.34,0 -130.79,-140.89 -153.23,4.88 -5.37,34.88 -42.22,4.4 -64.45,-2.44 -10.96,-17.6 -10.56,-54.74 -35.27,-53.62 -41.68,1.88 -32.05,12.98 -75.4,-7.31 -51.39,-24.04 -3.65,119.28 -4.86,146.23 -1.66,36.67 -55.56,-0.11 -79.05,1.22 -57.73,3.27 -28.4,115.81 -76.61,32.91 -35.64,-61.28 -64.44,-89.75 -134.98,-118.21 -72.63,-29.29 -121.29,-161.54 -176.34,-219.36 -66.75,-70.12 -2.43,47.43 -2.43,77.99 0,68.36 5.7,119.98 -10.94,187.68 -49.09,-16.36 -22.67,-78.6 -117.96,-59.72 -65.96,13.06 -18.6,-92.26 -71.75,-106.02 -26.15,-6.76 -42.16,-47.89 -64.46,-32.9 -31.02,20.87 0.89,101.35 -41.34,141.36 -41.07,38.93 25.17,102.18 -47.43,152.33 14.66,39.93 81.48,80.48 81.48,123.09 0,37.09 -39.09,80.25 -34.05,109.67 4.72,27.51 27.97,50.67 27.97,78 0,46.78 -70.38,35.15 -96.07,60.93 0,26.72 74.16,73.12 17.02,73.12 -21.69,0 -86.74,-1.5 -104.58,-13.4 -6.73,-4.48 -18.3,-22.2 -27.97,-19.5 -23.35,6.51 -41.49,25.99 -65.67,34.12 -51.38,17.3 -124.82,-36.16 -148.36,-21.94 0,54.98 171.84,129.1 41.34,165.74 -59.67,16.76 -94.23,138.93 -152.01,138.93 -46.68,0 -65.08,-67.85 -102.15,-79.22 -49.4,-15.16 -116.31,25.38 -142.28,67.03 -4.1,77.88 -12.18,139.65 76.61,129.18 60.78,-7.17 13.16,49.21 35.27,98.71 10.66,23.86 11.84,48.14 -12.16,60.93 -83.26,44.35 -27.19,14.87 -35.27,90.18 -5.9,54.96 32.03,117.31 4.87,164.52 -19.22,33.43 -21.56,71.72 -38.92,99.93 -23.07,37.51 -79.62,44.79 -17.02,102.37 2.53,2.32 23.24,15.18 17.02,19.5 -8.42,5.86 -51.54,1.35 -64.45,0 -45.41,-4.74 -44.94,-12.03 -48.64,36.56 -34.13,102.11 -49.54,142.96 -120.4,219.35 -39.79,42.91 11.77,124.32 -54.72,147.46 -45.75,15.91 -139.12,41.61 -29.19,73.12 74.03,21.21 122.45,39.37 74.18,113.34 -20.27,31.06 -11.53,52.34 14.6,84.08 5.72,6.96 46,47.65 31.62,54.84 -26.98,13.49 -121.45,-38.99 -155.66,-38.99 3.45,13.92 67.9,59.52 82.69,74.33 61.01,94.15 110.4,112.32 204.3,154.77 31.48,14.22 -4.66,85.47 48.65,112.12 0,17.98 -53.33,0 -63.24,0 -11.76,47.04 79.08,60.83 71.75,108.46 -13.5,87.74 65.94,12.63 79.04,39 11.26,22.68 -27.1,68.38 -38.91,86.52 -72.14,110.71 -188.51,228.46 -304.02,291.26 -17.12,24.28 -69.82,200.54 -115.53,136.49 -2.93,-0.42 -4.14,-1.22 -7.3,-1.22 -77.34,77.98 -52.65,147.33 -87.55,233.98l-107.02 265.67c-27.09,67.25 -23.33,109.43 -76.61,165.74 -28.33,37.8 -120.14,141.93 -130.12,181.58 -31.59,125.5 -69.06,-25.84 -108.24,4.87 -24.47,19.17 -34.76,84.27 -36.48,114.55 -4.97,87.68 -96.04,60.08 -97.29,78 -3.07,43.69 -10.72,38.99 -52.29,38.99 -70.9,0 -184.44,-16.5 -206.73,29.25 -30.23,62.03 -77.78,26.53 -108.23,97.49 -29.89,69.68 -139.26,89.51 -148.37,154.77 -5.1,36.61 38.72,84.59 32.84,103.59 -4.1,13.22 -115.86,66.47 -130.12,42.65 -45.01,-75.23 -37.49,-126.38 -99.72,-203.51 -38.51,-47.74 -18.08,-54.9 -43.78,6.09 -12.68,30.08 43.47,243.55 30.4,252.26 -8.22,-40.98 -92.34,-66.74 -127.69,-70.68 -60.23,-15.12 -127.04,86.83 -110.66,140.15 25.59,83.24 -14.79,81.43 -68.1,118.21 -23.45,16.19 10.11,68.01 -13.38,96.27 -48.77,58.64 -90.4,64.35 -107.02,147.46 -78.48,0 -21.84,-120.77 -125.25,-37.78 -44.55,35.74 -144.73,80.43 -201.87,80.43 -78.16,0 -54.1,15.7 -62.02,87.74 -3.67,33.38 -36.5,31.12 -47.43,57.28 -14.43,34.56 32.5,77.14 25.54,95.05 -11.91,30.67 -77.15,-12.82 -97.29,-13.4 -8.97,-0.26 -38.25,-2.54 -25.54,13.4 45.98,57.62 3.41,31.12 -46.21,43.88 25.56,59.68 246.03,68.68 87.56,108.46 0,30.55 42.54,35.85 45,57.27 2.64,22.92 -61,22.99 -75.4,31.69 0,64.53 63.54,75.96 -21.89,134.05 -59.45,40.41 -105.29,-86.36 -130.12,-15.84 -14.76,41.9 27.66,57.81 -12.16,93.83 -59.6,53.89 -57.32,34.94 -75.4,115.78 -6.71,30.01 -40.23,42.77 -53.51,69.46 -8.98,18.04 7.22,43.81 -3.65,67.03 -11.19,23.93 -56.05,49.11 -48.64,71.9 10.17,31.26 38.47,63.84 10.94,98.71 -51.93,65.79 -99.71,-20.93 -103.36,13.4 -4.04,38.04 -7.83,72.68 -21.89,108.46 -33.04,78.73 -56.29,72.82 -116.75,110.9 -21.26,13.4 -82.05,89.2 -91.2,84.09 -87.71,-48.98 -137.67,-109.9 -117.96,43.87 10.12,78.95 -105,35.39 -143.5,45.09 0,51.81 167.11,237.26 214.03,255.92 37,14.72 57.71,6.26 13.38,35.34 -30.38,19.94 -92.57,85.69 -102.15,121.86l-57.16 215.71c-17.76,89.04 -85.13,143.84 -85.13,233.98 0,73.96 46.04,127.23 48.65,190.11 2.03,49.06 -18.41,100.12 24.32,138.92 71.6,64.99 96.26,13.48 58.37,120.65 -4.94,13.96 -15.21,94.83 -26.75,98.71l-62.02 -84.08c-31.62,-42.85 -63.58,-16.51 -92.43,-63.37 -19.52,-31.69 1.25,-58.51 -43.78,-41.44 -54.67,20.73 -59.36,17.25 -34.05,65.81 14.39,27.59 42.48,83.47 25.54,103.58 -23.93,28.39 -53.98,39.3 -75.4,70.69 -34.66,86.88 -18.16,114.83 17.03,191.33 22.22,48.33 20.67,79.52 -15.81,120.64 -77.76,87.62 112.06,196.05 92.42,227.89 -13.57,21.99 -48.55,12.53 -59.59,47.53 -31.7,100.52 19.5,195.85 2.44,298.57 0,56.1 -0.69,98.68 14.59,151.11 16.22,55.61 -30.54,48.46 -38.91,86.53 -21.11,95.93 61.88,113.84 97.28,181.58 24.5,46.9 -22,91.89 -15.81,140.14 3.61,28.22 21.42,54.23 17.03,84.09 -5.54,37.62 -47.42,52.63 -63.24,80.43 1.45,1.93 1.22,1.25 1.22,3.66 51.7,12.81 129.69,31.1 153.22,86.52 34.87,82.16 169.93,-30.46 224.98,90.18 12.64,33.72 -18.93,98.93 -3.65,136.49 9.91,24.35 49.82,17.26 63.24,42.65 58.32,110.36 64.73,-121.01 85.12,-127.96l167.82 -57.27c16.35,65.43 2.81,121.87 40.14,186.45 39.93,69.09 115.27,127.39 173.9,179.14 54.42,48.05 -33.33,74.34 71.74,74.34 42.76,0 142.79,102.81 103.37,3.66 -20,-50.29 -19.03,-211.78 -6.08,-264.45 10.99,0 51.46,138.96 58.37,163.3 13.3,46.78 95.7,181.94 74.19,202.3 -32.53,30.77 -66.99,31.28 19.45,68.24 102.2,43.69 -80.54,98.3 -113.09,124.3 20.47,104.06 254.02,62.24 295.51,155.99l134.98 286.39c23.6,50.1 147.46,137.62 121.61,187.67 -14.66,28.37 -81.05,83.34 -66.89,109.68 31.26,58.1 108.38,134.09 -23.1,120.65 -107.62,-11.01 -202.78,7.59 -242,118.2 15.77,106.22 -101.36,126.34 -32.84,225.46 35.91,51.93 -76.66,134.27 -18.24,207.17 27.81,34.72 88.24,87.67 40.13,130.39 -33.96,30.14 -169.24,116.23 -207.95,86.53 -61.28,-47.04 -104.47,-180.79 -207.95,-146.24 -63.42,21.18 -101.96,-4.88 -164.17,-4.88 0,36.29 96.28,59.5 125.26,60.94 90.42,4.52 38.73,43.75 94.85,71.9 37.18,18.64 63.17,52.33 92.42,81.65 41.14,41.22 -3.56,77.48 -25.53,115.77 -23.66,54.16 -88.39,53.88 -114.32,106.02 -10.7,21.5 56.03,94.25 57.16,124.31 0.83,22.17 -182.01,21.09 -224.98,62.15 -20.99,20.07 -20.8,48.37 -37.69,63.37 -25.21,22.41 -48.07,17.76 -72.97,35.34 -24.41,17.22 -58.93,93.44 -74.18,90.18 -61.08,-13.05 -81.2,-130.51 -119.18,-168.17 -67.74,50.67 -69.37,165.33 -144.71,221.79 -27.16,20.36 -68.41,33.79 -79.05,68.25 -26.42,85.58 -32.79,39.24 -109.44,37.77 -64.06,48.19 -136.37,52.26 -195.79,106.03 -37.67,34.1 -84.44,102.8 -133.77,116.99 -129.39,37.21 -312.83,-19.5 -448.74,-19.5 -120.19,0 -113.11,65.11 -194.57,85.3 125.3,0 252.45,-76.08 387.93,-34.12 151.36,46.89 189.74,198.67 172.68,349.76 -5.61,49.7 -22.02,92.23 0,142.58 28.01,64.01 -39.18,128.71 -51.07,190.11 5.56,95.92 41.22,132.14 -13.38,216.92 -32.44,50.39 -13.72,150.21 -51.08,194.98 -36.75,44.06 -35.14,100.29 -19.45,153.56 25.23,85.6 -16.33,91.78 -30.41,159.64 -5.12,24.69 21.78,57.68 26.76,82.87 8.46,42.7 -38.32,126.92 -52.29,170.61 -22.84,136.84 140.27,285.73 -12.16,380.22 -39.59,24.53 -11.61,69.11 -49.86,102.37 -69.21,60.16 -52.28,58.76 -68.1,146.24 -16.5,91.18 -11.98,138.39 69.31,199.86 0,40.11 -41.14,81.54 -52.29,120.64 -34.99,92.17 -21.6,188.17 -52.29,272.98 -33.25,91.9 -35.67,162.88 -52.29,257.14 -7.63,43.32 -73.42,83.09 -98.51,123.08 -36.55,58.28 -44.01,140.3 -60.8,205.95 -59.73,64.88 -84.42,185.99 -93.64,270.55 -10.45,95.75 -76.34,163.61 -136.2,233.98 -34.19,40.18 -52.52,110.95 -82.69,141.36 -5.89,0 -10.15,-1.22 -15.81,-1.22l-98.51 -92.61c-32.68,-30.72 -76.95,-2.73 -104.58,-30.47 -21.17,0 -136.18,46.86 -152.01,58.49 -26.6,0 -77.27,8.15 -99.72,-8.53 -21.45,-15.92 5.59,-43.4 -40.13,-38.99 -82.26,7.93 -121.88,10.93 -203.09,-6.1 -116.9,-24.53 -308.69,-26.87 -285.78,143.8 2.45,18.27 42.92,90.88 38.92,96.28 -24.34,0 -95.62,10.78 -109.45,7.31 -4.17,-20.89 -24.23,-46.02 -32.83,-63.37 -95.07,-19.07 -310,278.7 -336.86,359.5 0,77.65 -19.05,151.56 37.7,208.39 51.3,51.39 48.1,15.42 65.67,99.93 6.65,32.03 32.36,52.2 52.29,75.56 28.1,32.92 -38.25,122.7 -53.51,151.11 -15.47,28.82 -111.68,168.41 -139.85,158.43 -34.26,-12.13 -85.87,-48.21 -122.82,-37.78 -85.8,-28.67 -150.6,-79.34 -249.3,-58.49 -102.76,21.72 -202.4,74.79 -290.65,129.17 -85.81,52.89 -352.69,-43.39 -415.9,-118.21 -22.49,-26.63 -20.05,-174.66 10.95,-196.2 38.62,-26.82 82.29,-33.51 99.72,-84.09 22.78,-66.13 4.46,-99.95 -17.03,-164.52 -75.97,-91.22 -150.72,-194.6 -203.08,-301l-131.34 -266.89c-29.22,-59.36 -24.93,-132.07 -59.59,-194.98 -8.23,-46.62 -64.45,-118.64 -64.45,-160.87 76.36,-25.73 184.71,169.66 268.75,107.24 69.48,-51.59 -102.86,-240.66 -136.2,-281.5 -36.19,-44.35 24.65,-79.73 52.29,-117 48,12 86.08,75.56 143.5,75.56 29.09,-36.51 38.38,-98.57 46.21,-147.46 13,-81.21 -50.24,-134 -107.01,-179.14 -112.31,-59.91 -155.9,-172.62 -211.6,-277.85 -60.13,-113.62 -166.01,-137.54 -184.85,-270.54 -9.62,-67.98 -64.18,-117.76 -87.56,-182.8l-92.42 -257.14c-5.22,-29.86 1.34,-67.31 -23.1,-90.18 -20.95,-19.62 -40.38,-27.83 -48.65,-57.28 -12.49,-44.51 27.21,-94.54 15.81,-140.14 -48.81,0 -79.45,156.47 -103.37,108.46 -16.56,-33.23 -43.99,-118.1 -52.29,-154.77 -8.75,-38.61 5.98,-95.29 10.95,-134.05 10.38,-80.92 -28.08,-97.85 -48.65,-164.52 -5.5,-17.81 -7.09,-75.87 -15.8,-85.31 -26.15,-28.38 -80.48,3.42 -109.45,-25.59 -28.41,-28.44 20.76,-86.08 -29.19,-70.68 -30.85,9.52 -24.09,-27.87 -25.54,-48.75 -13.42,-35.91 -71.83,-109.86 -51.07,-143.8 18.29,-29.92 98.47,-92.25 97.28,-113.33 -2.2,-38.9 -66.06,-1.63 -81.47,6.09 -60.92,30.56 -94.28,36.9 -65.67,-49.96 11.57,-35.11 3.2,-47.89 -15.81,-74.34 -31.13,-43.34 43.78,-79.81 43.78,-130.4 -27,0 -99.72,84.4 -99.72,13.41 0,-64.89 -15.74,-79.58 -58.45,-120.65 3.97,-35.97 41.35,-58.23 41.35,-82.87 -29.73,-9.91 -72.57,-92.79 -21.89,-109.68 0,-8.91 -2.44,-16.92 -2.44,-24.37 -15.03,-3.77 -25.5,-80.95 -26.75,-97.49 -4.88,-64.59 -79.43,-13.19 -114.31,-21.94 -6.15,-24.57 4.86,-55.99 4.86,-82.87 0,-23.87 -26.75,-29.22 -26.75,-48.74 102.03,-34.19 63.43,-102.85 34.05,-173.05 -38.66,-92.4 -0.37,-169.7 -24.32,-265.67 -16.23,-65.07 -50.32,-122.87 -46.22,-194.98 0,-104.75 -16.69,-253.86 -69.31,-353.51l0 0c36.63,-41.88 131.65,-141.27 189.79,-141.27 31.94,0 101.77,192.28 109.44,232.76 10.75,56.79 -2.71,122.75 66.89,140.15 180.94,45.22 236.16,-539.77 244.43,-656.86 0,-60.56 -14.44,-121.53 -23.1,-180.36 -6.41,-43.49 -20.68,-86.33 -20.68,-130.39 -15.54,-83.75 -60.61,-210.38 -30.4,-293.7 23.5,-64.79 173.9,-55.06 173.9,-154.77 0,-48.97 11.47,-125.36 -9.73,-166.95 -12.83,-25.15 -41.96,-47.59 -49.86,-79.22 43.04,-14.11 90.31,-45.49 132.56,-57.27 39.23,-10.95 84.75,27.48 132.48,8.53l138.63 -124.31 111.88 -131.61 68.11 -246.17 -29.19 -255.92 80.26 -112.11 19.46 -268.11 -162.96 -346.09 -165.39 -516.71 394.02 -95.06 162.96 -516.71 -238.36 -387.53 -155.66 2.44 -231.06 -285.17 131.34 -984.67 -209.17 -689.76 65.67 -238.86 -60.8 -363.16 148.36 -165.74 -223.76 -502.08 201.87 -399.72 -48.64 -233.98 160.52 -255.92 294.3 -472.84 179.98 -182.8 345.37 -85.3 603.18 165.73 160.53 -341.22 -14.59 -558.14 -403.75 -316.85 574 -1084.61 46.21 -243.73 99.72 -131.61 24.32 -743.38 80.27 -307.1 -85.13 -726.32 445.09 -51.19 418.34 -258.35 -89.99 -463.09 238.35 -329.04 325.92 -623.95 299.16 -299.79 7.29 -338.78 -248.08 -553.27 24.32 -148.68 245.65 -41.43 279.7 -877.44 352.67 -304.66 114.32 -190.11 561.83 348.54 206.74 -548.4 -2.43 -765.32 228.62 -112.11 170.26 165.74 367.26 -17.07 795.33 380.22 252.94 -319.28 -218.89 -153.55 221.33 -275.42 100.94 -303.44 -23.11 -327.82 -205.52 -282.73 -8.51 -9.75 431.71 -48.75 0 0c25.13,41.92 81.99,39.47 122.83,53.01 46.62,15.47 75.78,34.76 97.89,79.22 14.81,29.77 41.43,45.96 54.73,74.34 16.51,35.2 26.9,63.3 2.43,98.1 -22.16,31.53 -49.79,78.77 12.77,92.61 41.99,15.41 85.56,14.85 124.04,34.13 105.69,52.98 160.41,317.35 282.13,298.57 67.74,-10.45 24.85,119.56 88.77,153.55 58.97,31.36 199.4,102.28 198.23,174.27 -2.05,126.01 82.81,60.57 133.77,85.3 112.05,54.38 128.24,218.72 212.81,258.36 53.05,24.86 90.97,14.99 145.93,9.75 50.28,-4.79 59.88,-3.73 82.69,40.21 19.58,37.73 54.47,10.36 87.56,19.5 54.81,15.15 77.09,106.12 138.64,63.37 32.08,-22.28 59.1,41.41 75.39,60.93 47.87,57.38 96.61,8.17 143.5,82.87 32.53,51.82 101.88,87.4 143.5,131.62 67.45,71.66 94.17,103.1 98.5,213.26 2.37,60.46 11.39,114.03 25.54,171.83 15.96,65.21 55.79,-4.87 92.42,-4.87 44.53,0 62.76,140.15 75.4,174.26 36.59,98.7 100.19,128.03 172.68,196.21 27.79,26.14 78.63,48.2 88.78,86.52 15.11,57.05 -44.74,121.54 -80.26,157.21 -75.89,76.21 -63.62,201.33 -52.29,304.66 5.33,48.63 -0.45,116.75 10.94,163.3 6.05,24.74 20.36,39.55 30.4,62.15 12.61,28.39 24.84,66.79 17.03,97.5 -16.11,63.34 -34.55,72.02 -69.32,124.3 -42.06,63.23 -92.12,185.16 -18.24,248.61 65.6,56.34 150.77,2.15 214.03,30.46 44.39,19.86 13.38,70.01 13.38,109.68 0,82.11 76.41,162.24 7.29,240.08 -28.62,32.22 -67.13,17.88 -97.28,36.56 -35.81,22.17 -18.22,217.71 -29.19,253.48 45.8,90.57 98.9,177.85 137.42,271.76 33.19,80.92 56.14,161.71 102.15,236.42 29.96,48.65 128.23,279.01 75.4,314.41 -67.13,44.99 -43.04,306.38 -51.08,387.53 -5,50.49 0.82,78.33 -31.62,125.52 -87.19,126.83 -195.11,229.26 -166.6,400.94 27.68,166.7 -7.2,348.51 177.55,443.59 81.51,41.95 56.56,94.92 87.56,171.83 40.94,101.54 81.88,203.12 122.82,304.67 36.87,91.48 25.96,191.28 48.64,280.29 7.35,28.87 6.73,63.84 7.82,93.63l0 0zm-6437.26 16534.92c-50.63,119.89 -106.14,243.1 -136.2,370.47 -32,135.64 -47.2,257.84 -110.67,385.1 -28.74,57.61 -80.9,123.97 -93.64,187.67 -1.84,1.39 -3.04,1.84 -4.86,3.65l-2.43 0c-22.96,-30.37 -2.8,-182.37 -1.22,-224.23 3.91,-103.5 -57.48,-213.43 -43.78,-307.1 11.36,-77.62 69.56,-147.35 91.21,-223.01 16.35,-57.18 92.81,-269.32 153.23,-280.29 127.39,-58.68 183.62,-321.81 232.27,-441.16 38.81,-95.23 46.22,-375.34 182.41,-375.34 21.66,64.99 -19.85,90.17 -31.62,153.55 -11.71,63 2.59,124.32 -32.83,185.23 -95.81,164.72 -121.74,332.87 -169.04,510.62l-32.83 54.84zm1719.54 -1158.94c0,92.76 21.65,161.48 121.61,141.36 -40.97,55.23 -29.43,81.9 -107.01,104.81 -49.23,14.53 -98.2,79.15 -110.67,129.17 -11.02,44.17 72.54,5.26 79.05,6.1 9.38,1.2 -34.98,36.06 -41.35,41.43 -51.37,43.24 -127.94,75.28 -184.84,119.43 -36.04,27.97 -129.23,161.11 -127.69,207.17 1.8,53.94 14.05,91.91 -12.16,142.58 -20.48,39.61 -97.9,92.62 -143.5,92.62 -95.7,0 81.83,-193.81 94.85,-241.29 2.08,-7.58 6.95,-72.06 0,-65.81 -102.36,92.19 -51.4,16.24 -77.83,-74.34l-37.69 -129.17c-8.98,-30.77 -66.99,-84.33 -49.86,-104.81 49.46,-59.17 87.54,-60.21 66.88,-148.68 -8.48,-36.29 -53.22,-197.41 -23.11,-218.13 23.69,-142.04 135.49,-154.16 198.23,-272.98 56.81,-107.61 51.39,-174.87 170.25,-236.42 84.49,-43.74 93.34,-99.46 194.57,-120.65 155.01,-32.46 179.69,7.65 300.38,-113.33 30.46,-30.54 138.25,-12.19 182.41,-12.19 6.61,26.9 -83.74,42.06 -104.58,48.75 -35.69,11.45 -55.9,33.28 -49.86,70.68 1.13,7.05 -161.26,243.56 -190.93,259.57 -82.84,44.68 -110.75,39.61 -120.39,140.15l-18.24 190.11 -8.52 43.87zm404.96 -1360.02c-11.53,-0.89 -17.61,-23.07 -20.67,-34.12 -4.65,-16.73 -13.4,-31.13 -19.46,-46.31 -11.42,-28.65 11.04,-14.99 23.11,-4.88 18.95,15.85 46.03,13.41 69.31,13.41 24.36,0 46.62,10.69 29.19,35.34 -15.68,22.16 -32.96,42.58 -59.59,48.75l-21.89 -12.19zm1393.63 -9621.29c22.35,-23.78 30.75,-52.5 36.49,-82.86 5.42,-28.61 -3.58,-38.37 -8.52,-63.37 -3.98,-20.11 -3.66,-40.99 -7.29,-60.94 -5.14,-28.3 -3.21,-30.41 12.16,-57.27 8.91,-15.59 21.63,-35.48 37.7,-43.88 38.62,-20.21 13.85,74.59 13.37,91.4 -0.76,26.07 -14.13,63.08 -7.29,87.75 9.47,34.1 6.14,41.45 -13.38,73.12 -15.49,25.15 -27.6,47.62 -51.07,68.24l-12.17 -12.19zm-9343.12 -12849.48l13061.32 0 0 27700 -13061.32 0 0 -27700z"/>
  <polygon class="fil1 str1" points="1595.62,1232.43 4445.28,1232.43 4445.28,2825.33 1595.62,2825.33 "/>
  <path class="fil2" d="M1198.37 2963.39c0,-17.45 4.47,-34.48 13.46,-51.13 8.93,-16.61 21.77,-29.59 38.43,-38.86 16.69,-9.26 34.1,-13.92 52.16,-13.92 17.92,0 35.18,4.56 51.69,13.74 16.56,9.12 29.4,21.92 38.53,38.43 9.17,16.51 13.73,33.77 13.73,51.74 0,18.01 -4.56,35.27 -13.73,51.78 -9.13,16.51 -21.97,29.35 -38.53,38.53 -16.51,9.17 -33.77,13.78 -51.69,13.78 -18.06,0 -35.47,-4.66 -52.16,-13.97 -16.66,-9.36 -29.5,-22.34 -38.43,-38.95 -8.99,-16.65 -13.46,-33.68 -13.46,-51.17zm17.22 0c0,14.62 3.76,28.88 11.24,42.7 7.48,13.83 18.2,24.65 32.13,32.46 13.92,7.81 28.41,11.71 43.46,11.71 15,0 29.35,-3.85 43.08,-11.52 13.74,-7.67 24.46,-18.39 32.13,-32.17 7.67,-13.79 11.52,-28.18 11.52,-43.18 0,-14.96 -3.85,-29.36 -11.52,-43.14 -7.67,-13.78 -18.39,-24.5 -32.13,-32.12 -13.73,-7.62 -28.08,-11.43 -43.08,-11.43 -15.05,0 -29.54,3.9 -43.46,11.66 -13.93,7.76 -24.65,18.58 -32.13,32.46 -7.48,13.87 -11.24,28.08 -11.24,42.57zm103.57 -33.35l5.08 -16.94c11.53,2.78 20.7,8.61 27.52,17.55 6.87,8.98 10.3,19.85 10.3,32.59 0,16.19 -5.22,29.31 -15.71,39.42 -10.49,10.11 -24.98,15.15 -43.55,15.15 -12.14,0 -22.68,-2.31 -31.61,-6.92 -8.99,-4.56 -15.71,-11.15 -20.28,-19.61 -4.56,-8.52 -6.82,-18.25 -6.82,-29.16 0,-12.23 2.92,-22.39 8.8,-30.48 5.88,-8.09 13.88,-13.6 23.94,-16.56l4.23 16.37c-6.91,2.77 -12.23,6.82 -15.89,12.23 -3.72,5.41 -5.55,11.71 -5.55,19 0,10.58 3.76,19.33 11.28,26.2 7.53,6.87 18.35,10.3 32.37,10.3 14.06,0 24.69,-3.24 31.89,-9.74 7.19,-6.49 10.81,-14.86 10.81,-25.16 0,-8.28 -2.39,-15.57 -7.24,-21.83 -4.8,-6.25 -11.33,-10.39 -19.57,-12.41z"/>
  <path id="1" class="fil2" d="M1403.83 2668.23l-18.58 0c14.44,9.27 21.68,22.91 21.68,40.92 0,11.67 -3.19,22.39 -9.64,32.13 -6.4,9.78 -15.38,17.35 -26.86,22.76 -11.52,5.37 -24.74,8.05 -39.69,8.05 -14.59,0 -27.8,-2.45 -39.7,-7.29 -11.86,-4.9 -20.98,-12.19 -27.29,-21.92 -6.35,-9.69 -9.5,-20.61 -9.5,-32.6 0,-8.84 1.88,-16.7 5.6,-23.56 3.72,-6.87 8.61,-12.47 14.58,-16.8l-72.67 0 0 -24.83 202.07 0 0 23.14zm-73.05 78.46c18.72,0 32.69,-3.95 41.96,-11.9 9.26,-7.91 13.87,-17.27 13.87,-28.04 0,-10.86 -4.42,-20.08 -13.26,-27.7 -8.84,-7.57 -22.34,-11.38 -40.5,-11.38 -19.94,0 -34.62,3.85 -43.98,11.61 -9.36,7.72 -14.01,17.27 -14.01,28.6 0,11.06 4.46,20.27 13.45,27.71 8.98,7.38 23.14,11.1 42.47,11.1z"/>
  <polygon id="2" class="fil2" points="1343.15,2615.69 1318.32,2615.69 1318.32,2538.93 1343.15,2538.93 "/>
  <path id="3" class="fil2" d="M1403.83 2511.83l-146.47 0 0 -22.29 20.69 0c-7.15,-4.56 -12.93,-10.68 -17.26,-18.3 -4.37,-7.62 -6.54,-16.27 -6.54,-26.01 0,-10.82 2.26,-19.71 6.73,-26.62 4.52,-6.92 10.77,-11.81 18.86,-14.63 -17.07,-11.67 -25.59,-26.77 -25.59,-45.39 0,-14.58 4,-25.83 12.04,-33.63 8.05,-7.86 20.42,-11.81 37.12,-11.81l100.42 0 0 24.84 -92.19 0c-9.88,0 -17.03,0.84 -21.4,2.44 -4.38,1.6 -7.86,4.52 -10.54,8.8 -2.68,4.23 -4,9.22 -4,14.91 0,10.35 3.44,18.91 10.26,25.73 6.86,6.82 17.82,10.2 32.87,10.2l85 0 0 24.84 -95.06 0c-11.01,0 -19.29,2.02 -24.79,6.07 -5.5,4.04 -8.28,10.67 -8.28,19.85 0,6.96 1.84,13.4 5.51,19.33 3.66,5.93 9.03,10.21 16.13,12.89 7.05,2.63 17.26,3.95 30.57,3.95l75.92 0 0 24.83z"/>
  <path id="4" class="fil2" d="M1385.49 2181.07c7.85,9.22 13.35,18.11 16.6,26.62 3.25,8.52 4.84,17.64 4.84,27.43 0,16.08 -3.9,28.45 -11.75,37.11 -7.81,8.65 -17.83,12.98 -30.01,12.98 -7.15,0 -13.69,-1.65 -19.62,-4.89 -5.93,-3.29 -10.63,-7.57 -14.2,-12.84 -3.58,-5.32 -6.31,-11.24 -8.14,-17.88 -1.27,-4.89 -2.49,-12.27 -3.72,-22.1 -2.35,-20.04 -5.22,-34.86 -8.51,-44.31 -3.39,-0.1 -5.55,-0.14 -6.44,-0.14 -10.07,0 -17.17,2.35 -21.31,7.05 -5.6,6.35 -8.37,15.81 -8.37,28.32 0,11.71 2.07,20.36 6.16,25.92 4.09,5.59 11.38,9.68 21.78,12.37l-3.39 24.27c-10.4,-2.21 -18.82,-5.84 -25.21,-10.92 -6.4,-5.08 -11.29,-12.41 -14.77,-22.01 -3.44,-9.55 -5.18,-20.7 -5.18,-33.3 0,-12.51 1.46,-22.72 4.42,-30.57 2.97,-7.81 6.64,-13.6 11.11,-17.27 4.46,-3.67 10.11,-6.25 16.93,-7.76 4.23,-0.8 11.85,-1.22 22.81,-1.22l32.93 0c23,0 37.53,-0.52 43.69,-1.55 6.17,-0.99 12.05,-3.06 17.69,-6.07l0 25.96c-5.22,2.5 -11.34,4.1 -18.34,4.8zm-55.04 1.98c3.67,9.03 6.78,22.57 9.32,40.64 1.45,10.25 3.1,17.49 4.93,21.73 1.84,4.23 4.52,7.48 8,9.78 3.53,2.31 7.43,3.48 11.76,3.48 6.54,0 12.04,-2.49 16.42,-7.52 4.37,-5.04 6.58,-12.38 6.58,-22.02 0,-9.55 -2.07,-18.06 -6.25,-25.54 -4.14,-7.43 -9.84,-12.93 -17.03,-16.41 -5.6,-2.69 -13.83,-4 -24.7,-4l-9.03 -0.14z"/>
  <path id="5" class="fil2" d="M1459.99 2119.78l-202.63 0 0 -22.57 19.24 0c-7.44,-5.32 -13.03,-11.34 -16.75,-18.07 -3.72,-6.68 -5.6,-14.81 -5.6,-24.36 0,-12.51 3.2,-23.52 9.65,-33.07 6.39,-9.55 15.47,-16.74 27.14,-21.63 11.71,-4.85 24.5,-7.3 38.47,-7.3 14.91,0 28.37,2.69 40.36,8.05 11.95,5.36 21.12,13.17 27.52,23.42 6.35,10.21 9.54,20.98 9.54,32.27 0,8.28 -1.74,15.71 -5.22,22.25 -3.48,6.58 -7.85,11.94 -13.17,16.18l71.45 0 0 24.83zm-128.5 -22.57c18.77,0 32.69,-3.81 41.67,-11.39 8.99,-7.62 13.45,-16.84 13.45,-27.65 0,-11.01 -4.65,-20.42 -13.97,-28.23 -9.31,-7.85 -23.7,-11.76 -43.22,-11.76 -18.63,0 -32.55,3.81 -41.82,11.48 -9.26,7.67 -13.87,16.79 -13.87,27.42 0,10.54 4.94,19.85 14.77,27.94 9.87,8.14 24.17,12.19 42.99,12.19z"/>
  <path id="6" class="fil2" d="M1360.09 1972.7l-3.96 -24.55c9.84,-1.37 17.36,-5.22 22.63,-11.53 5.22,-6.3 7.85,-15.14 7.85,-26.43 0,-11.43 -2.3,-19.9 -6.96,-25.45 -4.61,-5.5 -10.06,-8.28 -16.32,-8.28 -5.6,0 -10.02,2.5 -13.22,7.44 -2.21,3.48 -4.98,11.94 -8.42,25.4 -4.56,18.15 -8.51,30.71 -11.85,37.77 -3.39,7 -7.99,12.32 -13.92,15.94 -5.88,3.62 -12.42,5.46 -19.57,5.46 -6.54,0 -12.56,-1.51 -18.11,-4.47 -5.55,-3.01 -10.16,-7.06 -13.83,-12.18 -2.82,-3.86 -5.22,-9.13 -7.19,-15.76 -1.98,-6.68 -2.97,-13.78 -2.97,-21.4 0,-11.48 1.65,-21.54 4.99,-30.2 3.29,-8.7 7.81,-15.1 13.45,-19.24 5.69,-4.09 13.27,-6.96 22.77,-8.51l3.38 24.27c-7.62,1.08 -13.59,4.28 -17.87,9.55 -4.28,5.27 -6.4,12.7 -6.4,22.34 0,11.34 1.88,19.47 5.65,24.32 3.76,4.84 8.18,7.29 13.21,7.29 3.2,0 6.12,-0.99 8.71,-3.01 2.63,-2.02 4.84,-5.18 6.58,-9.5 0.94,-2.5 3.06,-9.74 6.35,-21.87 4.66,-17.5 8.52,-29.73 11.48,-36.69 2.96,-6.96 7.34,-12.42 12.98,-16.37 5.69,-4 12.75,-5.98 21.21,-5.98 8.24,0 16,2.4 23.29,7.25 7.29,4.84 12.93,11.8 16.93,20.88 4,9.13 5.97,19.43 5.97,30.91 0,19 -3.95,33.53 -11.8,43.5 -7.9,9.98 -19.57,16.33 -35.04,19.1z"/>
  <polygon id="7" class="fil2" points="1403.83,1814.66 1375.61,1814.66 1375.61,1786.44 1403.83,1786.44 "/>
  <path id="8" class="fil2" d="M1350.21 1647.63l3.38 -24.27c16.7,2.68 29.73,9.45 39.19,20.41 9.45,10.96 14.15,24.46 14.15,40.41 0,19.99 -6.53,36.08 -19.61,48.21 -13.08,12.18 -31.8,18.25 -56.16,18.25 -15.81,0 -29.59,-2.63 -41.39,-7.85 -11.86,-5.22 -20.75,-13.17 -26.63,-23.9 -5.92,-10.68 -8.89,-22.29 -8.89,-34.9 0,-15.85 4,-28.88 12.04,-38.95 8.05,-10.11 19.48,-16.6 34.25,-19.42l3.67 23.99c-9.83,2.3 -17.22,6.35 -22.2,12.23 -4.94,5.83 -7.44,12.88 -7.44,21.16 0,12.51 4.47,22.67 13.41,30.53 8.98,7.81 23.09,11.71 42.47,11.71 19.66,0 33.92,-3.76 42.81,-11.29 8.89,-7.57 13.35,-17.4 13.35,-29.49 0,-9.78 -2.96,-17.92 -8.93,-24.41 -5.93,-6.54 -15.1,-10.68 -27.47,-12.42z"/>
  <path id="9" class="fil2" d="M1330.59 1611.51c-27.04,0 -47.08,-7.53 -60.11,-22.63 -10.82,-12.56 -16.23,-27.94 -16.23,-46.05 0,-20.08 6.59,-36.54 19.76,-49.34 13.12,-12.75 31.33,-19.14 54.51,-19.14 18.82,0 33.59,2.82 44.36,8.46 10.77,5.65 19.14,13.88 25.12,24.7 5.97,10.77 8.93,22.58 8.93,35.32 0,20.51 -6.53,37.07 -19.66,49.72 -13.12,12.65 -32.03,18.96 -56.68,18.96zm0.05 -25.4c18.72,0 32.74,-4.1 42,-12.28 9.32,-8.23 13.97,-18.53 13.97,-31 0,-12.32 -4.65,-22.57 -14.01,-30.81 -9.36,-8.18 -23.61,-12.27 -42.76,-12.27 -18.06,0 -31.75,4.14 -41.01,12.37 -9.32,8.23 -13.97,18.48 -13.97,30.71 0,12.47 4.61,22.77 13.87,31 9.27,8.18 23.24,12.28 41.91,12.28z"/>
  <path id="10" class="fil2" d="M1403.83 1445.23l-146.47 0 0 -22.29 20.69 0c-7.15,-4.56 -12.93,-10.68 -17.26,-18.3 -4.37,-7.62 -6.54,-16.27 -6.54,-26.01 0,-10.82 2.26,-19.71 6.73,-26.62 4.52,-6.92 10.77,-11.81 18.86,-14.63 -17.07,-11.67 -25.59,-26.77 -25.59,-45.39 0,-14.58 4,-25.83 12.04,-33.63 8.05,-7.86 20.42,-11.81 37.12,-11.81l100.42 0 0 24.84 -92.19 0c-9.88,0 -17.03,0.84 -21.4,2.44 -4.38,1.6 -7.86,4.52 -10.54,8.8 -2.68,4.23 -4,9.22 -4,14.91 0,10.35 3.44,18.91 10.26,25.73 6.86,6.82 17.82,10.2 32.87,10.2l85 0 0 24.84 -95.06 0c-11.01,0 -19.29,2.02 -24.79,6.07 -5.5,4.04 -8.28,10.67 -8.28,19.85 0,6.96 1.84,13.4 5.51,19.33 3.66,5.93 9.03,10.21 16.13,12.89 7.05,2.63 17.26,3.95 30.57,3.95l75.92 0 0 24.83z"/>
  <g id="_2129636158928">
   <g>
    <polygon class="fil3 str2" points="1738.89,1821.07 2538.91,1821.07 2538.91,1920.23 1738.89,1920.23 "/>
    <polygon class="fil4 str2" points="2538.91,1821.07 3338.94,1821.07 3338.94,1920.23 2538.91,1920.23 "/>
    <polygon class="fil3 str2" points="3338.93,1821.07 4138.96,1821.07 4138.96,1920.23 3338.93,1920.23 "/>
    <polygon class="fil3 str2" points="3021.24,2120.01 4300.8,2120.01 4300.8,2219.17 3021.24,2219.17 "/>
    <polygon class="fil4 str2" points="1741.69,2120.01 3021.25,2120.01 3021.25,2219.17 1741.69,2219.17 "/>
   </g>
   <path class="fil2" d="M2458.97 1447.16l57.09 -27.52 5.71 0 0 197.2c0,13.12 0.53,21.35 1.64,24.58 1.12,3.18 3.36,5.71 6.82,7.41 3.47,1.71 10.53,2.7 21.17,2.94l0 6.35 -88.19 0 0 -6.35c11.05,-0.24 18.16,-1.18 21.34,-2.88 3.23,-1.65 5.47,-3.88 6.76,-6.7 1.24,-2.83 1.88,-11.29 1.88,-25.35l0 -126.29c0,-16.99 -0.59,-27.93 -1.7,-32.75 -0.83,-3.7 -2.3,-6.41 -4.41,-8.11 -2.18,-1.71 -4.71,-2.59 -7.71,-2.59 -4.29,0 -10.23,1.76 -17.81,5.35l-2.59 -5.29z"/>
   <path id="1" class="fil2" d="M3093.28 1412.94l0 157.16 39.98 -36.63c8.52,-7.82 13.46,-12.76 14.81,-14.82 0.95,-1.41 1.42,-2.76 1.42,-4.17 0,-2.29 -1,-4.23 -2.89,-5.94 -1.88,-1.65 -4.99,-2.59 -9.4,-2.82l0 -5.65 68.61 0 0 5.65c-9.35,0.23 -17.17,1.7 -23.4,4.35 -6.23,2.7 -13.05,7.47 -20.52,14.29l-40.63 37.22 40.34 51.33c11.29,14.05 18.81,23.04 22.58,26.98 5.58,5.24 10.4,8.65 14.58,10.17 2.94,1.12 7.99,1.71 15.17,1.71l0 6.35 -76.73 0 0 -6.35c4.41,-0.12 7.35,-0.76 8.88,-1.94 1.58,-1.24 2.35,-2.88 2.35,-5.06 0,-2.64 -2.3,-6.88 -6.88,-12.7l-48.27 -61.79 0 52.21c0,10.23 0.7,16.93 2.11,20.17 1.47,3.17 3.47,5.46 6.12,6.88 2.64,1.35 8.35,2.11 17.17,2.23l0 6.35 -80.08 0 0 -6.35c7.99,0 14.05,-1 18.05,-2.94 2.41,-1.23 4.23,-3.17 5.46,-5.76 1.71,-3.76 2.59,-10.29 2.59,-19.52l0 -143.94c0,-18.05 -0.41,-29.1 -1.18,-33.16 -0.82,-4.05 -2.11,-6.82 -3.99,-8.35 -1.83,-1.58 -4.24,-2.35 -7.18,-2.35 -2.41,0 -6.05,1 -10.82,2.94l-2.93 -6.35 46.74 -19.4 7.94 0z"/>
   <path id="2" class="fil2" d="M3270.02 1529.24c11.41,-11.53 18.17,-18.17 20.22,-19.93 5.12,-4.36 10.65,-7.77 16.59,-10.18 5.93,-2.41 11.81,-3.64 17.63,-3.64 9.88,0 18.29,2.88 25.4,8.64 7.06,5.76 11.82,14.11 14.17,25.11 11.88,-13.88 21.88,-22.93 30.05,-27.28 8.17,-4.3 16.58,-6.47 25.22,-6.47 8.35,0 15.82,2.17 22.35,6.47 6.46,4.29 11.64,11.34 15.4,21.16 2.53,6.65 3.82,17.11 3.82,31.4l0 67.97c0,9.82 0.71,16.58 2.18,20.23 1.12,2.46 3.23,4.64 6.23,6.4 3.06,1.77 8,2.65 14.88,2.65l0 6.35 -77.26 0 0 -6.35 3.29 0c6.7,0 11.99,-1.29 15.76,-3.94 2.64,-1.82 4.52,-4.76 5.64,-8.76 0.47,-1.94 0.71,-7.47 0.71,-16.58l0 -67.91c0,-12.88 -1.53,-21.93 -4.65,-27.22 -4.52,-7.35 -11.7,-11.06 -21.63,-11.06 -6.06,0 -12.23,1.53 -18.41,4.59 -6.11,3 -13.58,8.7 -22.34,16.93l-0.35 1.94 0.7 7.41 0 75.32c0,10.7 0.59,17.4 1.77,20.05 1.23,2.59 3.46,4.82 6.76,6.58 3.29,1.77 8.93,2.65 16.87,2.65l0 6.35 -79.37 0 0 -6.35c8.64,0 14.58,-1 17.81,-3.06 3.24,-2.06 5.47,-5.17 6.7,-9.29 0.59,-1.94 0.89,-7.58 0.89,-16.93l0 -67.91c0,-12.88 -1.88,-22.17 -5.65,-27.87 -5.05,-7.41 -12.05,-11.11 -21.11,-11.11 -6.17,0 -12.28,1.7 -18.34,5.05 -9.47,5.06 -16.82,10.82 -21.93,17.17l0 84.67c0,10.29 0.7,16.93 2.12,20.05 1.41,3.06 3.52,5.35 6.35,6.94 2.76,1.53 8.4,2.29 16.93,2.29l0 6.35 -77.97 0 0 -6.35c7.24,0 12.29,-0.76 15.17,-2.29 2.89,-1.59 5.06,-4 6.59,-7.41 1.47,-3.35 2.23,-9.88 2.23,-19.58l0 -60.33c0,-17.28 -0.53,-28.45 -1.53,-33.51 -0.82,-3.82 -2.05,-6.41 -3.82,-7.82 -1.7,-1.47 -4.05,-2.18 -6.99,-2.18 -3.24,0 -7.06,0.89 -11.53,2.59l-2.58 -6.35 47.62 -19.4 7.41 0 0 33.75z"/>
   <path id="3" class="fil2" d="M2747.55 1424.23l-13.47 29.28 -70.55 0 -15.47 31.28c30.81,4.52 55.04,15.81 72.79,33.98 15.23,15.64 22.82,33.99 22.82,55.15 0,12.29 -2.47,23.7 -7.47,34.11 -5,10.46 -11.29,19.4 -18.87,26.75 -7.53,7.35 -16,13.29 -25.29,17.75 -13.17,6.3 -26.69,9.47 -40.57,9.47 -13.99,0 -24.16,-2.35 -30.57,-7.11 -6.35,-4.71 -9.53,-9.94 -9.53,-15.64 0,-3.18 1.3,-6 3.94,-8.47 2.65,-2.47 6,-3.65 10,-3.65 2.94,0 5.58,0.42 7.82,1.36 2.23,0.88 6,3.23 11.4,6.99 8.59,5.94 17.35,8.88 26.17,8.88 13.4,0 25.22,-5.11 35.39,-15.29 10.12,-10.17 15.23,-22.57 15.23,-37.21 0,-14.12 -4.52,-27.34 -13.58,-39.57 -9.11,-12.29 -21.58,-21.76 -37.57,-28.4 -12.46,-5.18 -29.52,-8.18 -51.09,-9l44.8 -90.66 83.67 0z"/>
   <path id="4" class="fil2" d="M2783.53 1542.53c0,-26.64 4,-49.51 12.05,-68.74 8.06,-19.22 18.7,-33.57 32.05,-42.98 10.29,-7.47 20.99,-11.17 31.98,-11.17 17.94,0 33.99,9.11 48.22,27.34 17.81,22.64 26.69,53.27 26.69,91.96 0,27.05 -3.88,50.09 -11.7,69.03 -7.82,18.93 -17.76,32.63 -29.87,41.21 -12.11,8.53 -23.81,12.82 -35.04,12.82 -22.29,0 -40.81,-13.11 -55.62,-39.39 -12.53,-22.17 -18.76,-48.86 -18.76,-80.08zm33.87 4.23c0,32.1 3.94,58.33 11.82,78.67 6.52,17.11 16.28,25.63 29.22,25.63 6.17,0 12.58,-2.76 19.22,-8.34 6.65,-5.59 11.65,-14.88 15.11,-27.99 5.24,-19.7 7.88,-47.57 7.88,-83.43 0,-26.64 -2.76,-48.86 -8.23,-66.62 -4.11,-13.23 -9.46,-22.58 -15.99,-28.05 -4.65,-3.82 -10.35,-5.7 -16.99,-5.7 -7.76,0 -14.7,3.53 -20.76,10.52 -8.23,9.53 -13.87,24.46 -16.81,44.92 -3,20.41 -4.47,40.52 -4.47,60.39z"/>
   <path class="fil2" d="M2597.64 2416.94l57.09 -27.52 5.71 0 0 197.2c0,13.12 0.53,21.35 1.64,24.58 1.12,3.18 3.36,5.71 6.82,7.41 3.47,1.71 10.53,2.7 21.17,2.94l0 6.35 -88.19 0 0 -6.35c11.05,-0.24 18.16,-1.18 21.34,-2.88 3.23,-1.65 5.47,-3.88 6.76,-6.7 1.24,-2.83 1.88,-11.29 1.88,-25.35l0 -126.29c0,-16.99 -0.59,-27.93 -1.7,-32.75 -0.83,-3.7 -2.3,-6.41 -4.41,-8.11 -2.18,-1.71 -4.71,-2.59 -7.71,-2.59 -4.29,0 -10.23,1.76 -17.81,5.35l-2.59 -5.29z"/>
   <path id="1" class="fil2" d="M3232.3 2499.02c11.41,-11.53 18.17,-18.17 20.22,-19.93 5.12,-4.36 10.65,-7.77 16.59,-10.18 5.93,-2.41 11.81,-3.64 17.63,-3.64 9.88,0 18.29,2.88 25.4,8.64 7.06,5.76 11.82,14.11 14.17,25.11 11.88,-13.88 21.88,-22.93 30.05,-27.28 8.17,-4.3 16.58,-6.47 25.22,-6.47 8.35,0 15.82,2.17 22.35,6.47 6.46,4.29 11.64,11.34 15.4,21.16 2.53,6.65 3.82,17.11 3.82,31.4l0 67.97c0,9.82 0.71,16.58 2.18,20.23 1.12,2.46 3.23,4.64 6.23,6.4 3.06,1.77 8,2.65 14.88,2.65l0 6.35 -77.26 0 0 -6.35 3.29 0c6.7,0 11.99,-1.29 15.76,-3.94 2.64,-1.82 4.52,-4.76 5.64,-8.76 0.47,-1.94 0.71,-7.47 0.71,-16.58l0 -67.91c0,-12.88 -1.53,-21.93 -4.65,-27.22 -4.52,-7.35 -11.7,-11.06 -21.63,-11.06 -6.06,0 -12.23,1.53 -18.41,4.59 -6.11,3 -13.58,8.7 -22.34,16.93l-0.35 1.94 0.7 7.41 0 75.32c0,10.7 0.59,17.4 1.77,20.05 1.23,2.59 3.46,4.82 6.76,6.58 3.29,1.77 8.93,2.65 16.87,2.65l0 6.35 -79.37 0 0 -6.35c8.64,0 14.58,-1 17.81,-3.06 3.24,-2.06 5.47,-5.17 6.7,-9.29 0.59,-1.94 0.89,-7.58 0.89,-16.93l0 -67.91c0,-12.88 -1.88,-22.17 -5.65,-27.87 -5.05,-7.41 -12.05,-11.11 -21.11,-11.11 -6.17,0 -12.28,1.7 -18.34,5.05 -9.47,5.06 -16.82,10.82 -21.93,17.17l0 84.67c0,10.29 0.7,16.93 2.12,20.05 1.41,3.06 3.52,5.35 6.35,6.94 2.76,1.53 8.4,2.29 16.93,2.29l0 6.35 -77.97 0 0 -6.35c7.24,0 12.29,-0.76 15.17,-2.29 2.89,-1.59 5.06,-4 6.59,-7.41 1.47,-3.35 2.23,-9.88 2.23,-19.58l0 -60.33c0,-17.28 -0.53,-28.45 -1.53,-33.51 -0.82,-3.82 -2.05,-6.41 -3.82,-7.82 -1.7,-1.47 -4.05,-2.18 -6.99,-2.18 -3.24,0 -7.06,0.89 -11.53,2.59l-2.58 -6.35 47.62 -19.4 7.41 0 0 33.75z"/>
   <path id="2" class="fil2" d="M3499.94 2382.72c4.76,0 8.88,1.7 12.29,5.05 3.35,3.41 5.05,7.53 5.05,12.29 0,4.82 -1.7,9 -5.05,12.41 -3.41,3.47 -7.53,5.17 -12.29,5.17 -4.82,0 -9,-1.7 -12.41,-5.17 -3.47,-3.41 -5.17,-7.59 -5.17,-12.41 0,-4.76 1.7,-8.88 5.05,-12.29 3.41,-3.35 7.59,-5.05 12.53,-5.05zm14.17 82.55l0 127c0,9.82 0.7,16.34 2.17,19.58 1.41,3.29 3.53,5.7 6.35,7.29 2.82,1.59 8,2.41 15.47,2.41l0 6.35 -76.56 0 0 -6.35c7.65,0 12.82,-0.76 15.41,-2.23 2.64,-1.47 4.7,-3.94 6.29,-7.35 1.53,-3.41 2.29,-10 2.29,-19.7l0 -61.03c0,-16.99 -0.53,-27.99 -1.53,-33.05 -0.82,-3.64 -2.05,-6.17 -3.82,-7.58 -1.7,-1.47 -4.06,-2.18 -7,-2.18 -3.23,0 -7.11,0.89 -11.7,2.59l-2.41 -6.35 47.45 -19.4 7.59 0z"/>
   <path id="3" class="fil2" d="M2745.81 2512.31c0,-26.64 4,-49.51 12.05,-68.74 8.06,-19.22 18.7,-33.57 32.05,-42.98 10.29,-7.47 20.99,-11.17 31.98,-11.17 17.94,0 33.99,9.11 48.22,27.34 17.81,22.64 26.69,53.27 26.69,91.96 0,27.05 -3.88,50.09 -11.7,69.03 -7.82,18.93 -17.76,32.63 -29.87,41.21 -12.11,8.53 -23.81,12.82 -35.04,12.82 -22.29,0 -40.81,-13.11 -55.62,-39.39 -12.53,-22.17 -18.76,-48.86 -18.76,-80.08zm33.87 4.23c0,32.1 3.94,58.33 11.82,78.67 6.52,17.11 16.28,25.63 29.22,25.63 6.17,0 12.58,-2.76 19.22,-8.34 6.65,-5.59 11.65,-14.88 15.11,-27.99 5.24,-19.7 7.88,-47.57 7.88,-83.43 0,-26.64 -2.76,-48.86 -8.23,-66.62 -4.11,-13.23 -9.46,-22.58 -15.99,-28.05 -4.65,-3.82 -10.35,-5.7 -16.99,-5.7 -7.76,0 -14.7,3.53 -20.76,10.52 -8.23,9.53 -13.87,24.46 -16.81,44.92 -3,20.41 -4.47,40.52 -4.47,60.39z"/>
   <path id="4" class="fil2" d="M2922.2 2512.31c0,-26.64 4,-49.51 12.05,-68.74 8.06,-19.22 18.7,-33.57 32.05,-42.98 10.29,-7.47 20.99,-11.17 31.98,-11.17 17.94,0 33.99,9.11 48.22,27.34 17.81,22.64 26.69,53.27 26.69,91.96 0,27.05 -3.88,50.09 -11.7,69.03 -7.82,18.93 -17.76,32.63 -29.87,41.21 -12.11,8.53 -23.81,12.82 -35.04,12.82 -22.29,0 -40.81,-13.11 -55.62,-39.39 -12.53,-22.17 -18.76,-48.86 -18.76,-80.08zm33.87 4.23c0,32.1 3.94,58.33 11.82,78.67 6.52,17.11 16.28,25.63 29.22,25.63 6.17,0 12.58,-2.76 19.22,-8.34 6.65,-5.59 11.65,-14.88 15.11,-27.99 5.24,-19.7 7.88,-47.57 7.88,-83.43 0,-26.64 -2.76,-48.86 -8.23,-66.62 -4.11,-13.23 -9.46,-22.58 -15.99,-28.05 -4.65,-3.82 -10.35,-5.7 -16.99,-5.7 -7.76,0 -14.7,3.53 -20.76,10.52 -8.23,9.53 -13.87,24.46 -16.81,44.92 -3,20.41 -4.47,40.52 -4.47,60.39z"/>
  </g>
  <rect class="fil5 str3" x="1000" y="1000" width="13061.32" height="27700"/>
 </g>
</svg>
