<svg width="300" height="656" xmlns="http://www.w3.org/2000/svg" xmlns:xlink="http://www.w3.org/1999/xlink" overflow="hidden"><defs><clipPath id="clip0"><rect x="440" y="44" width="300" height="656"/></clipPath><clipPath id="clip1"><rect x="441" y="45" width="299" height="654"/></clipPath><clipPath id="clip2"><rect x="441" y="45" width="299" height="654"/></clipPath></defs><g clip-path="url(#clip0)" transform="translate(-440 -44)"><g clip-path="url(#clip1)"><g clip-path="url(#clip2)"><path d="M318.291 226.913C317.6 226.294 316.773 224.992 315.389 225.66 314.251 226.21 311.777 227.328 310.515 226.859 309.714 226.562 309.449 224.376 309.056 224.344 308.402 224.29 307.022 225.959 306.75 226.508 304.798 226.508 303.611 223.127 303.073 226.626 302.944 227.463 302.059 226.731 301.526 226.567 301.263 226.145 301.272 225.253 300.679 225.28 299.679 225.325 299.91 225.592 298.87 225.105 297.636 224.528 298.782 227.967 298.753 228.614 298.713 229.494 297.42 228.612 296.856 228.644 295.47 228.722 296.174 231.423 295.017 229.433 294.162 227.963 293.471 227.279 291.778 226.596 290.035 225.893 288.867 222.719 287.546 221.332 285.944 219.649 287.487 222.47 287.487 223.203 287.487 224.844 287.624 226.083 287.225 227.708 286.047 227.315 286.681 225.821 284.394 226.275 282.811 226.588 283.947 224.06 282.672 223.73 282.044 223.568 281.66 222.581 281.125 222.94 280.38 223.441 281.146 225.373 280.133 226.333 279.147 227.267 280.737 228.785 278.994 229.989 279.346 230.947 280.95 231.92 280.95 232.943 280.95 233.833 280.012 234.869 280.133 235.575 280.246 236.235 280.804 236.791 280.804 237.447 280.804 238.57 279.115 238.291 278.498 238.909 278.498 239.551 280.278 240.664 278.907 240.664 278.386 240.664 276.825 240.628 276.397 240.343 276.235 240.235 275.958 239.81 275.726 239.875 275.165 240.031 274.73 240.498 274.149 240.694 272.916 241.109 271.154 239.826 270.589 240.167 270.589 241.487 274.713 243.265 271.581 244.145 270.149 244.547 269.319 247.479 267.933 247.479 266.812 247.479 266.371 245.851 265.481 245.578 264.296 245.214 262.69 246.187 262.067 247.186 261.968 249.056 261.774 250.538 263.905 250.287 265.364 250.115 264.221 251.468 264.752 252.656 265.007 253.228 265.036 253.811 264.46 254.118 262.462 255.182 263.807 254.475 263.613 256.282 263.472 257.601 264.382 259.098 263.73 260.231 263.269 261.033 263.213 261.952 262.796 262.629 262.242 263.529 260.885 263.704 262.388 265.086 262.448 265.142 262.945 265.45 262.796 265.554 262.594 265.695 261.559 265.586 261.249 265.554 260.16 265.44 260.171 265.265 260.082 266.431 259.263 268.882 258.893 269.862 257.192 271.696 256.237 272.726 257.475 274.679 255.879 275.235 254.781 275.617 252.54 276.233 255.179 276.99 256.955 277.499 258.117 277.934 256.959 279.71 256.472 280.455 256.682 280.966 257.309 281.728 257.447 281.895 258.413 282.871 258.068 283.044 257.421 283.368 255.153 282.108 254.332 282.108 254.415 282.442 255.962 283.536 256.317 283.892 257.781 286.151 258.966 286.588 261.22 287.606 261.976 287.948 261.108 289.658 262.388 290.297 262.388 290.729 261.108 290.297 260.87 290.297 260.588 291.426 262.768 291.757 262.592 292.9 262.268 295.006 264.174 293.203 264.489 293.836 264.759 294.381 263.838 295.477 263.555 295.913 261.824 298.57 259.031 301.396 256.259 302.903 255.848 303.486 254.583 307.716 253.486 306.179 253.416 306.168 253.387 306.149 253.311 306.149 251.455 308.021 252.047 309.685 251.21 311.765L248.641 318.141C247.991 319.755 248.081 320.767 246.802 322.118 246.123 323.026 243.919 325.525 243.68 326.476 242.921 329.488 242.022 325.856 241.082 326.593 240.495 327.053 240.248 328.616 240.206 329.342 240.087 331.447 237.901 330.784 237.871 331.214 237.798 332.263 237.614 332.15 236.616 332.15 234.915 332.15 232.19 331.754 231.655 332.852 230.93 334.341 229.788 333.489 229.058 335.192 228.34 336.864 225.715 337.34 225.497 338.906 225.374 339.785 226.426 340.936 226.285 341.392 226.186 341.71 223.504 342.988 223.162 342.416 222.082 340.611 222.262 339.383 220.769 337.532 219.844 336.386 220.335 336.214 219.718 337.678 219.414 338.4 220.761 343.523 220.448 343.732 220.25 342.749 218.231 342.13 217.383 342.036 215.938 341.673 214.334 344.12 214.727 345.399 215.341 347.397 214.372 347.354 213.093 348.236 212.53 348.625 213.336 349.869 212.772 350.547 211.601 351.954 210.602 352.091 210.203 354.086 208.32 354.086 209.679 351.187 207.197 353.179 206.128 354.037 203.724 355.109 202.353 355.109 200.477 355.109 201.054 355.486 200.864 357.215 200.776 358.016 199.988 357.962 199.726 358.59 199.379 359.419 200.506 360.441 200.339 360.871 200.053 361.607 198.487 360.563 198.004 360.55 197.788 360.543 197.086 360.489 197.391 360.871 198.494 362.254 197.473 361.618 196.282 361.924 196.895 363.357 202.186 363.573 198.383 364.527 198.383 365.26 199.404 365.388 199.463 365.902 199.527 366.452 197.999 366.453 197.654 366.662 197.654 368.211 199.179 368.485 197.128 369.879 195.701 370.849 194.601 367.807 194.005 369.499 193.651 370.505 194.669 370.887 193.714 371.751 192.283 373.045 192.338 372.59 191.904 374.53 191.743 375.25 190.938 375.556 190.62 376.197 190.404 376.63 190.793 377.248 190.532 377.806 190.264 378.38 189.187 378.984 189.365 379.531 189.609 380.281 190.288 381.063 189.627 381.9 188.381 383.479 187.234 381.398 187.147 382.222 187.05 383.135 186.959 383.966 186.621 384.825 185.828 386.714 185.27 386.572 183.819 387.486 183.309 387.808 181.85 389.627 181.631 389.505 179.526 388.329 178.327 386.867 178.8 390.557 179.043 392.452 176.28 391.407 175.356 391.64 175.356 392.883 179.366 397.334 180.492 397.782 181.38 398.135 181.877 397.932 180.813 398.63 180.084 399.108 178.592 400.686 178.362 401.554L176.99 406.731C176.564 408.868 174.947 410.183 174.947 412.347 174.947 414.122 176.052 415.4 176.115 416.909 176.163 418.087 175.673 419.312 176.698 420.243 178.417 421.803 179.008 420.567 178.099 423.139 177.981 423.474 177.734 425.415 177.457 425.508L175.969 423.49C175.21 422.462 174.443 423.094 173.75 421.969 173.282 421.209 173.78 420.565 172.7 420.975 171.388 421.472 171.275 421.389 171.882 422.554 172.228 423.216 172.902 424.557 172.495 425.04 171.921 425.721 171.2 425.983 170.686 426.737 169.854 428.822 170.25 429.492 171.094 431.328 171.628 432.488 171.591 433.237 170.715 434.224 168.849 436.327 173.404 438.929 172.933 439.693 172.607 440.221 171.768 439.994 171.503 440.834 170.742 443.246 171.971 445.534 171.562 447.999 171.562 449.346 171.545 450.368 171.912 451.626 172.301 452.961 171.179 452.789 170.978 453.703 170.471 456.005 172.463 456.435 173.313 458.061 173.901 459.186 172.785 460.266 172.933 461.424 173.02 462.101 173.447 462.725 173.342 463.442 173.209 464.345 172.204 464.705 171.824 465.372 171.859 465.419 171.853 465.402 171.853 465.46 173.094 465.768 174.966 466.207 175.531 467.537 176.367 469.508 179.609 466.806 180.93 469.701 181.233 470.51 180.476 472.075 180.842 472.977 181.08 473.561 182.038 473.391 182.36 474 183.76 476.649 183.914 471.096 184.403 470.929L188.431 469.555C188.823 471.125 188.498 472.48 189.394 474.03 190.352 475.688 192.161 477.087 193.568 478.329 194.874 479.482 192.768 480.113 195.289 480.113 196.316 480.113 198.716 482.58 197.77 480.201 197.29 478.994 197.314 475.118 197.624 473.854 197.888 473.854 198.859 477.189 199.025 477.773 199.344 478.896 201.322 482.14 200.806 482.628 200.025 483.367 199.198 483.379 201.273 484.266 203.725 485.315 199.34 486.625 198.558 487.249 199.05 489.747 204.655 488.743 205.651 490.993L208.89 497.866C209.456 499.069 212.429 501.169 211.809 502.37 211.457 503.051 209.863 504.37 210.203 505.003 210.954 506.397 212.804 508.221 209.649 507.898 207.066 507.634 204.782 508.08 203.841 510.735 204.219 513.284 201.408 513.767 203.053 516.146 203.915 517.392 201.213 519.368 202.615 521.118 203.283 521.951 204.733 523.222 203.578 524.247 202.763 524.971 199.516 527.037 198.587 526.324 197.117 525.195 196.08 521.985 193.597 522.814 192.075 523.323 191.15 522.697 189.657 522.697 189.657 523.568 191.967 524.125 192.663 524.16 194.833 524.268 193.592 525.21 194.939 525.885 195.832 526.333 196.455 527.141 197.157 527.845 198.145 528.834 197.072 529.704 196.545 530.623 195.977 531.923 194.423 531.916 193.801 533.168 193.544 533.684 195.146 535.43 195.173 536.151 195.193 536.683 190.805 536.657 189.773 537.643 189.27 538.124 189.274 538.804 188.869 539.164 188.264 539.701 187.715 539.59 187.117 540.012 186.532 540.425 185.703 542.254 185.337 542.176 183.871 541.863 183.388 539.044 182.477 538.14 180.851 539.356 180.812 542.108 179.004 543.463 178.352 543.952 177.362 544.274 177.107 545.101 176.473 547.155 176.32 546.043 174.48 546.007 172.943 547.164 171.207 547.262 169.781 548.552 168.877 549.37 167.755 551.019 166.571 551.36 163.465 552.253 159.063 550.892 155.801 550.892 152.917 550.892 153.087 552.454 151.132 552.939 154.139 552.939 157.19 551.113 160.442 552.12 164.074 553.246 164.995 556.888 164.586 560.514 164.451 561.707 164.058 562.728 164.586 563.936 165.258 565.472 163.646 567.025 163.36 568.499 163.494 570.801 164.35 571.67 163.039 573.705 162.261 574.914 162.71 577.31 161.813 578.384 160.931 579.442 160.97 580.791 161.347 582.07 161.952 584.124 160.955 584.272 160.617 585.901 160.494 586.494 161.139 587.285 161.259 587.89 161.462 588.915 160.339 590.936 160.004 591.984 159.456 595.269 163.37 598.842 159.712 601.11 158.762 601.698 159.434 602.768 158.516 603.566 156.854 605.01 157.261 604.977 156.881 607.076 156.485 609.265 156.594 610.398 158.545 611.873 158.545 612.835 157.557 613.83 157.29 614.768 156.45 616.98 156.771 619.284 156.035 621.32 155.237 623.525 155.179 625.229 154.78 627.491 154.597 628.531 153.018 629.485 152.415 630.445 151.538 631.844 151.359 633.812 150.956 635.388 149.523 636.945 148.93 639.851 148.709 641.881 148.458 644.179 146.877 645.807 145.44 647.496 144.62 648.46 144.18 650.159 143.456 650.889 143.314 650.889 143.212 650.859 143.076 650.859L140.712 648.637C139.928 647.9 138.865 648.571 138.202 647.906 137.694 647.906 134.934 649.03 134.554 649.309 133.916 649.309 132.699 649.505 132.161 649.105 131.646 648.723 132.295 648.063 131.198 648.169 129.223 648.359 128.272 648.431 126.323 648.022 123.518 647.434 118.915 647.378 119.465 651.474 119.524 651.912 120.495 653.655 120.399 653.784 119.815 653.784 118.104 654.043 117.772 653.96 117.672 653.458 117.191 652.855 116.984 652.439 114.703 651.981 109.544 659.128 108.9 661.067 108.9 662.93 108.442 664.704 109.804 666.068 111.036 667.301 110.959 666.438 111.38 668.466 111.54 669.235 112.157 669.719 112.635 670.28 113.31 671.07 111.717 673.225 111.351 673.906 110.98 674.598 108.671 677.948 107.995 677.709 107.173 677.418 105.934 676.552 105.047 676.802 102.988 676.114 101.433 674.898 99.064 675.398 96.5978 675.919 94.2065 677.193 92.0885 678.498 90.0291 679.768 83.624 677.457 82.107 675.661 81.5673 675.022 81.6258 671.469 82.3698 670.953 83.2967 670.309 84.3447 670.148 84.7631 668.934 85.3098 667.347 84.8701 666.536 84.3543 664.986 82.5311 662.797 80.7371 660.316 79.4805 657.762L76.3283 651.357C75.6271 649.932 75.73 648.187 74.8982 646.677 74.7007 645.558 73.3514 643.83 73.3514 642.816 75.184 642.199 77.7844 646.888 79.8014 645.39 81.4689 644.152 77.3327 639.614 76.5326 638.634 75.664 637.57 77.1242 636.721 77.7875 635.826 78.9395 636.114 79.8534 637.64 81.2315 637.64 81.9296 636.763 82.1526 635.274 82.3405 634.101 82.6525 632.152 81.1348 630.885 79.7723 629.801 77.0769 628.364 76.0307 625.659 74.694 623.133 73.2509 620.406 70.7098 619.832 70.2576 616.64 70.0267 615.009 68.7173 613.814 68.1562 612.253L65.9381 606.082C65.8129 605.365 65.9703 604.466 65.3837 603.917 64.8809 603.446 64.4146 603.25 64.2161 602.543 63.9164 601.474 64.8692 600.274 64.5956 599.179 63.4242 599.179 62.6888 602.935 62.1147 601.782 61.7173 600.985 61.059 598.948 60.8598 598.068 60.6498 597.141 61.0033 595.781 61.1226 594.851 61.3717 592.909 60.4487 592.502 59.955 590.902 59.823 590.475 59.7848 589.081 59.5758 588.855 58.9482 588.174 57.6443 588.937 56.949 588.241 56.2672 587.558 57.4473 586.175 56.2485 586.544 55.5081 586.773 55.6703 585.876 55.6355 585.374 55.3134 584.513 53.9116 582.738 54.4099 581.923 54.8488 581.205 56.7731 579.709 56.7445 579.203 56.6917 578.27 55.1591 579.164 54.7893 579.35 53.3272 580.083 52.5266 580.235 53.2132 578.151 53.4909 577.308 53.29 577.001 52.8338 576.366 52.0867 575.326 53.8845 574.451 53.8845 573.237 53.2365 573.237 51.4912 575.262 51.4912 573.559 51.4912 572.001 51.1135 571.649 50.0885 570.663 50.1837 569.8 51.0808 569.266 51.0808 568.674 50.3673 568.436 49.3392 566.447 50.5555 566.042 50.5555 565.828 50.4969 565.636 50.4969 565.457 50.1362 565.367 49.8849 563.514 49.8549 563.117 49.7378 561.567 47.9486 562.801 47.1115 562.591 46.9639 562.001 47.2282 561.247 47.2282 560.602 47.2282 560.029 46.5862 559.901 46.5862 559.432 49.0349 558.612 48.1085 556.964 47.4034 555.279 46.4755 553.061 47.3945 551.206 46.8197 548.903 46.4302 547.341 45.612 545.954 45.7104 544.224 45.7104 541.71 45.3099 538.131 44.047 535.739L44.047 535.739C44.9261 534.734 47.2066 532.349 48.6019 532.349 49.3685 532.349 51.0444 536.964 51.2284 537.935 51.4864 539.298 51.1634 540.881 52.8338 541.299 57.1763 542.384 58.5016 528.344 58.7 525.534 58.7 524.081 58.3535 522.617 58.1456 521.206 57.9918 520.162 57.6493 519.134 57.6493 518.076 57.2764 516.066 56.1947 513.027 56.9197 511.028 57.4837 509.473 61.0933 509.706 61.0933 507.313 61.0933 506.138 61.3686 504.304 60.8598 503.306 60.5519 502.703 59.8527 502.164 59.6632 501.405 60.6961 501.066 61.8306 500.313 62.8446 500.031 63.7861 499.768 64.8785 500.69 66.024 500.235L69.3511 497.252 72.0362 494.093 73.6709 488.185 72.9703 482.043 74.8965 479.353 75.3636 472.918 71.4526 464.612 67.4832 452.211 76.9396 449.93 80.8506 437.529 75.13 428.228 71.3942 428.287 65.8489 421.443 69.001 397.811 63.9809 381.257 65.557 375.524 64.0978 366.808 67.6584 362.831 62.2882 350.781 67.1331 341.188 65.9657 335.572 69.8182 329.43 76.8813 318.082 81.2008 313.695 89.4896 311.648 103.966 315.625 107.818 307.436 107.468 294.041 97.7784 286.437 111.554 260.406 112.663 254.557 115.057 251.398 115.64 233.557 117.567 226.187 115.524 208.755 126.206 207.527 136.246 201.327 134.086 190.212 139.806 182.316 147.628 167.341 154.808 160.146 154.983 152.015 149.029 138.737 149.613 135.169 155.508 134.174 162.221 113.116 170.685 105.804 173.429 101.242 186.913 109.607 191.874 96.4452 191.816 78.0777 197.303 75.3871 201.389 79.3648 210.203 78.9551 229.291 88.0803 235.361 80.4177 230.108 76.7325 235.42 70.1225 237.842 62.84 237.288 54.9724 232.355 48.187 232.151 47.953 242.512 46.783 242.512 46.783C243.115 47.789 244.48 47.7302 245.46 48.0552 246.579 48.4265 247.279 48.8894 247.809 49.9565 248.165 50.6709 248.804 51.0595 249.123 51.7406 249.519 52.5854 249.768 53.2598 249.181 54.095 248.649 54.8517 247.986 55.9854 249.488 56.3176 250.495 56.6874 251.541 56.674 252.464 57.1367 255.001 58.4082 256.314 64.753 259.236 64.3023 260.861 64.0515 259.832 67.1717 261.366 67.9875 262.781 68.7401 266.152 70.4422 266.123 72.1699 266.074 75.1941 268.111 73.6236 269.334 74.2171 272.023 75.5222 272.412 79.4663 274.441 80.4177 275.714 81.0143 276.625 80.7774 277.944 80.6517 279.15 80.5367 279.381 80.5621 279.928 81.6167 280.398 82.5222 281.235 81.8653 282.03 82.0847 283.345 82.4483 283.88 84.6315 285.357 83.6056 286.127 83.0708 286.775 84.5994 287.166 85.0679 288.315 86.445 289.485 85.2639 290.61 87.0567 291.391 88.3004 293.055 89.1543 294.054 90.2156 295.673 91.9354 296.314 92.6899 296.418 95.3338 296.475 96.7848 296.691 98.0704 297.031 99.4576 297.414 101.023 298.37 99.3408 299.249 99.3408 300.318 99.3408 300.755 102.704 301.059 103.523 301.937 105.892 303.463 106.596 305.203 108.232 305.87 108.859 307.09 109.389 307.334 110.308 307.696 111.678 306.26 113.225 305.407 114.081 303.586 115.91 303.881 118.913 304.153 121.393 304.28 122.56 304.142 124.195 304.415 125.312 304.56 125.906 304.904 126.262 305.145 126.804 305.447 127.485 305.741 128.407 305.553 129.144 305.167 130.664 304.724 130.872 303.89 132.127 302.88 133.645 301.679 136.571 303.452 138.094 305.026 139.446 307.07 138.145 308.589 138.825 309.654 139.301 308.91 140.505 308.91 141.457 308.91 143.428 310.744 145.351 309.085 147.219 308.398 147.992 307.474 147.648 306.75 148.096 305.891 148.628 306.313 153.321 306.049 154.18 307.149 156.353 308.423 158.448 309.348 160.702 310.144 162.644 310.695 164.583 311.799 166.376 312.518 167.543 314.877 173.072 313.609 173.922 311.998 175.001 312.576 181.275 312.383 183.222 312.263 184.434 312.402 185.102 311.624 186.235 309.531 189.279 306.941 191.737 307.626 195.857 308.29 199.858 307.453 204.221 311.887 206.503 313.843 207.51 313.244 208.781 313.988 210.627 314.971 213.064 315.953 215.502 316.936 217.939 317.821 220.135 317.559 222.53 318.103 224.666 318.279 225.359 318.265 226.198 318.291 226.913L318.291 226.913ZM163.798 623.747C162.583 626.625 161.251 629.582 160.529 632.638 159.761 635.894 159.397 638.826 157.873 641.881 157.184 643.263 155.932 644.856 155.626 646.385 155.582 646.418 155.553 646.429 155.509 646.472L155.451 646.472C154.9 645.743 155.384 642.095 155.422 641.091 155.516 638.607 154.042 635.969 154.371 633.721 154.644 631.858 156.04 630.184 156.56 628.368 156.952 626.996 158.787 621.905 160.237 621.641 163.295 620.233 164.644 613.918 165.812 611.054 166.743 608.768 166.921 602.046 170.19 602.046 170.71 603.605 169.713 604.21 169.431 605.731 169.15 607.243 169.493 608.714 168.643 610.176 166.344 614.13 165.721 618.165 164.586 622.431L163.798 623.747ZM205.067 595.933C205.067 598.159 205.586 599.808 207.985 599.326 207.002 600.651 207.279 601.291 205.417 601.841 204.236 602.19 203.06 603.74 202.761 604.941 202.497 606.001 204.502 605.067 204.658 605.087 204.883 605.116 203.819 605.953 203.666 606.082 202.433 607.119 200.595 607.888 199.23 608.948 198.365 609.619 196.128 612.815 196.165 613.92 196.208 615.215 196.502 616.126 195.873 617.342 195.382 618.292 193.524 619.565 192.429 619.565 190.133 619.565 194.393 614.913 194.706 613.774 194.756 613.592 194.872 612.044 194.706 612.194 192.249 614.407 193.472 612.584 192.838 610.41L191.933 607.31C191.718 606.572 190.326 605.286 190.737 604.795 191.924 603.375 192.838 603.35 192.342 601.227 192.138 600.356 191.064 596.489 191.787 595.991 192.356 592.583 195.039 592.292 196.545 589.44 197.908 586.857 197.778 585.243 200.631 583.766 202.658 582.716 202.871 581.379 205.3 580.87 209.02 580.091 209.613 581.054 212.509 578.151 213.24 577.418 215.827 577.858 216.887 577.858 217.046 578.504 214.877 578.867 214.377 579.028 213.521 579.303 213.036 579.827 213.18 580.724 213.208 580.893 209.31 586.57 208.598 586.954 206.61 588.026 205.94 587.904 205.709 590.317L205.271 594.88 205.067 595.933ZM214.786 563.293C214.509 563.271 214.363 562.739 214.29 562.474 214.178 562.072 213.968 561.727 213.822 561.362 213.548 560.675 214.087 561.003 214.377 561.245 214.832 561.626 215.482 561.567 216.041 561.567 216.625 561.567 217.159 561.824 216.741 562.415 216.365 562.947 215.95 563.437 215.311 563.585L214.786 563.293ZM248.232 332.384C248.769 331.813 248.97 331.124 249.108 330.396 249.238 329.709 249.022 329.475 248.904 328.875 248.808 328.392 248.816 327.891 248.729 327.412 248.605 326.733 248.652 326.682 249.021 326.038 249.234 325.663 249.54 325.186 249.925 324.985 250.852 324.5 250.258 326.775 250.246 327.178 250.228 327.804 249.907 328.692 250.071 329.284 250.298 330.102 250.219 330.279 249.75 331.039 249.378 331.643 249.088 332.182 248.524 332.677L248.232 332.384ZM23.9998 23.9998 337.468 23.9998 337.468 688.793 23.9998 688.793 23.9998 23.9998Z" stroke="#000000" stroke-width="0.239998" stroke-miterlimit="22.9256" fill="#FEFEFE" fill-rule="evenodd" transform="matrix(1 0 0 1.00976 402.57 -0.0203048)"/><path d="M38.2945 29.578 106.686 29.578 106.686 67.8072 38.2945 67.8072Z" stroke="#000000" stroke-width="0.239998" stroke-miterlimit="3.864" stroke-opacity="0.501961" fill="#FEFEFE" fill-opacity="0.501961" transform="matrix(1 0 0 1.00976 402.57 -0.0203048)"/><path d="M28.7606 71.1206C28.7606 70.7018 28.8679 70.2931 29.0836 69.8935 29.2979 69.4949 29.6061 69.1834 30.0059 68.9609 30.4065 68.7387 30.8243 68.6268 31.2578 68.6268 31.6878 68.6268 32.1021 68.7363 32.4983 68.9566 32.8957 69.1755 33.2039 69.4827 33.423 69.8789 33.6431 70.2751 33.7525 70.6894 33.7525 71.1206 33.7525 71.5529 33.6431 71.9671 33.423 72.3633 33.2039 72.7596 32.8957 73.0677 32.4983 73.2881 32.1021 73.5081 31.6878 73.6188 31.2578 73.6188 30.8243 73.6188 30.4065 73.5069 30.0059 73.2835 29.6061 73.0589 29.2979 72.7473 29.0836 72.3487 28.8679 71.9491 28.7606 71.5404 28.7606 71.1206ZM29.1739 71.1206C29.1739 71.4715 29.2641 71.8138 29.4436 72.1454 29.6231 72.4773 29.8804 72.737 30.2147 72.9245 30.5488 73.1119 30.8966 73.2055 31.2578 73.2055 31.6178 73.2055 31.9622 73.1131 32.2917 72.929 32.6214 72.7449 32.8787 72.4877 33.0628 72.157 33.2469 71.826 33.3393 71.4806 33.3393 71.1206 33.3393 70.7616 33.2469 70.416 33.0628 70.0853 32.8787 69.7546 32.6214 69.4973 32.2917 69.3144 31.9622 69.1315 31.6178 69.0401 31.2578 69.0401 30.8966 69.0401 30.5488 69.1337 30.2147 69.3199 29.8804 69.5062 29.6231 69.7658 29.4436 70.099 29.2641 70.4318 29.1739 70.7729 29.1739 71.1206ZM31.6595 70.3202 31.7814 69.9137C32.0582 69.9804 32.2782 70.1203 32.4419 70.3349 32.6068 70.5504 32.6891 70.8113 32.6891 71.117 32.6891 71.5056 32.5638 71.8205 32.3121 72.0631 32.0603 72.3057 31.7126 72.4267 31.2669 72.4267 30.9755 72.4267 30.7226 72.3713 30.5082 72.2606 30.2925 72.1512 30.1312 71.993 30.0215 71.79 29.9121 71.5855 29.8579 71.352 29.8579 71.0902 29.8579 70.7966 29.9279 70.5528 30.0691 70.3586 30.2102 70.1645 30.4022 70.0322 30.6436 69.9612L30.7451 70.3541C30.5793 70.4206 30.4516 70.5178 30.3638 70.6476 30.2745 70.7774 30.2306 70.9286 30.2306 71.1036 30.2306 71.3575 30.3208 71.5675 30.5013 71.7324 30.682 71.8973 30.9417 71.9796 31.2782 71.9796 31.6156 71.9796 31.8707 71.9018 32.0435 71.7458 32.2161 71.5901 32.303 71.3892 32.303 71.142 32.303 70.9433 32.2456 70.7683 32.1292 70.6181 32.014 70.4681 31.8573 70.3687 31.6595 70.3202Z" transform="matrix(1 0 0 1.00976 402.57 -0.0203048)"/><path d="M33.6916 64.0369 33.2457 64.0369C33.5922 64.2593 33.766 64.5867 33.766 65.0189 33.766 65.299 33.6894 65.5563 33.5346 65.7901 33.381 66.0248 33.1655 66.2064 32.89 66.3363 32.6135 66.4652 32.2962 66.5295 31.9374 66.5295 31.5873 66.5295 31.2702 66.4707 30.9846 66.3545 30.7 66.2369 30.4811 66.062 30.3297 65.8284 30.1773 65.5959 30.1017 65.3338 30.1017 65.0461 30.1017 64.8339 30.1468 64.6453 30.2361 64.4806 30.3254 64.3158 30.4427 64.1814 30.586 64.0774L28.8419 64.0774 28.8419 63.4815 33.6916 63.4815 33.6916 64.0369ZM31.9384 65.9199C32.3877 65.9199 32.7229 65.8251 32.9454 65.6343 33.1677 65.4445 33.2783 65.2198 33.2783 64.9613 33.2783 64.7007 33.1722 64.4794 32.9601 64.2965 32.7479 64.1149 32.4239 64.0234 31.9881 64.0234 31.5095 64.0234 31.1572 64.1158 30.9326 64.3021 30.7079 64.4873 30.5963 64.7165 30.5963 64.9885 30.5963 65.2539 30.7034 65.4749 30.9191 65.6535 31.1346 65.8306 31.4745 65.9199 31.9384 65.9199Z" transform="matrix(1 0 0 1.00976 402.57 -0.0203048)"/><path d="M32.2353 62.7759 31.6394 62.7759 31.6394 60.9337 32.2353 60.9337Z" transform="matrix(1 0 0 1.00976 402.57 -0.0203048)"/><path d="M33.6916 60.2833 30.1763 60.2833 30.1763 59.7484 30.6729 59.7484C30.5013 59.6389 30.3626 59.492 30.2587 59.3092 30.1538 59.1263 30.1017 58.9187 30.1017 58.6849 30.1017 58.4252 30.1559 58.2119 30.2632 58.0461 30.3717 57.88 30.5217 57.7626 30.7158 57.6949 30.3062 57.4149 30.1017 57.0525 30.1017 56.6056 30.1017 56.2557 30.1977 55.9857 30.3907 55.7985 30.5838 55.6098 30.8807 55.515 31.2815 55.515L33.6916 55.515 33.6916 56.1112 31.479 56.1112C31.2419 56.1112 31.0703 56.1314 30.9654 56.1697 30.8603 56.2081 30.7768 56.2782 30.7125 56.3809 30.6482 56.4825 30.6165 56.6022 30.6165 56.7388 30.6165 56.9872 30.699 57.1926 30.8627 57.3563 31.0274 57.52 31.2904 57.6011 31.6516 57.6011L33.6916 57.6011 33.6916 58.1972 31.4102 58.1972C31.1459 58.1972 30.9472 58.2457 30.8152 58.3429 30.6832 58.4399 30.6165 58.599 30.6165 58.8193 30.6165 58.9864 30.6607 59.1409 30.7487 59.2832 30.8366 59.4256 30.9654 59.5283 31.1358 59.5926 31.305 59.6557 31.5501 59.6874 31.8695 59.6874L33.6916 59.6874 33.6916 60.2833Z" transform="matrix(1 0 0 1.00976 402.57 -0.0203048)"/><path d="M33.2514 52.3451C33.4398 52.5664 33.5718 52.7798 33.6498 52.984 33.7278 53.1885 33.766 53.4074 33.766 53.6423 33.766 54.0283 33.6724 54.3251 33.484 54.533 33.2965 54.7406 33.0561 54.8445 32.7637 54.8445 32.5921 54.8445 32.4352 54.8049 32.2929 54.7271 32.1506 54.6482 32.0378 54.5454 31.9521 54.419 31.8662 54.2913 31.8006 54.1492 31.7567 53.9899 31.7262 53.8725 31.697 53.6954 31.6674 53.4595 31.611 52.9785 31.5422 52.6228 31.4632 52.396 31.3818 52.3936 31.33 52.3927 31.3086 52.3927 31.067 52.3927 30.8966 52.4491 30.7972 52.5619 30.6628 52.7143 30.5963 52.9413 30.5963 53.2415 30.5963 53.5226 30.646 53.7302 30.7442 53.8636 30.8423 53.9978 31.0173 54.0959 31.2669 54.1605L31.1855 54.743C30.9359 54.6899 30.7338 54.6028 30.5805 54.4809 30.4269 54.359 30.3095 54.183 30.226 53.9527 30.1435 53.7235 30.1017 53.4559 30.1017 53.1535 30.1017 52.8532 30.1367 52.6082 30.2078 52.4198 30.2791 52.2324 30.3671 52.0934 30.4744 52.0053 30.5814 51.9172 30.717 51.8553 30.8807 51.8191 30.9822 51.7999 31.1651 51.7898 31.4282 51.7898L32.2185 51.7898C32.7705 51.7898 33.1192 51.7773 33.267 51.7526 33.4151 51.7288 33.5562 51.6792 33.6916 51.6069L33.6916 52.2299C33.5663 52.2899 33.4194 52.3284 33.2514 52.3451ZM31.9305 52.3927C32.0186 52.6094 32.0932 52.9343 32.1542 53.368 32.189 53.614 32.2286 53.7878 32.2725 53.8895 32.3166 53.9911 32.381 54.069 32.4645 54.1242 32.5492 54.1797 32.6428 54.2078 32.7467 54.2078 32.9037 54.2078 33.0357 54.148 33.1408 54.0273 33.2457 53.9063 33.2987 53.7302 33.2987 53.4988 33.2987 53.2696 33.249 53.0654 33.1487 52.8859 33.0493 52.7075 32.9125 52.5755 32.74 52.492 32.6056 52.4275 32.4081 52.396 32.1472 52.396L31.9305 52.3927Z" transform="matrix(1 0 0 1.00976 402.57 -0.0203048)"/><path d="M35.0394 50.8742 30.1763 50.8742 30.1763 50.3325 30.6381 50.3325C30.4595 50.2048 30.3254 50.0604 30.2361 49.8988 30.1468 49.7385 30.1017 49.5434 30.1017 49.3142 30.1017 49.014 30.1785 48.7497 30.3333 48.5205 30.4867 48.2914 30.7046 48.1188 30.9846 48.0014 31.2657 47.885 31.5726 47.8262 31.9079 47.8262 32.2658 47.8262 32.5888 47.8908 32.8765 48.0194 33.1633 48.1481 33.3834 48.3355 33.537 48.5815 33.6894 48.8265 33.766 49.085 33.766 49.356 33.766 49.5547 33.7242 49.733 33.6407 49.89 33.5572 50.0479 33.4523 50.1765 33.3246 50.2783L35.0394 50.2783 35.0394 50.8742ZM31.9554 50.3325C32.4059 50.3325 32.74 50.2411 32.9555 50.0592 33.1713 49.8763 33.2783 49.655 33.2783 49.3956 33.2783 49.1313 33.1667 48.9055 32.943 48.7181 32.7196 48.5297 32.3742 48.4358 31.9058 48.4358 31.4586 48.4358 31.1246 48.5273 30.9021 48.7113 30.6798 48.8954 30.5692 49.1143 30.5692 49.3694 30.5692 49.6224 30.6878 49.8458 30.9237 50.04 31.1606 50.2353 31.5038 50.3325 31.9554 50.3325Z" transform="matrix(1 0 0 1.00976 402.57 -0.0203048)"/><path d="M32.6418 47.3443 32.5468 46.7551C32.7829 46.7222 32.9634 46.6298 33.0899 46.4784 33.2152 46.3272 33.2783 46.1151 33.2783 45.8441 33.2783 45.5698 33.2231 45.3665 33.1113 45.2333 33.0006 45.1013 32.8698 45.0346 32.7196 45.0346 32.5852 45.0346 32.4791 45.0946 32.4023 45.2131 32.3493 45.2967 32.2828 45.4997 32.2002 45.8227 32.0908 46.2583 31.996 46.5598 31.9158 46.7292 31.8345 46.8972 31.7241 47.0249 31.5818 47.1118 31.4406 47.1986 31.2837 47.2428 31.1121 47.2428 30.9551 47.2428 30.8106 47.2066 30.6774 47.1355 30.5442 47.0633 30.4336 46.9661 30.3455 46.8432 30.2779 46.7506 30.2203 46.6241 30.173 46.465 30.1255 46.3046 30.1017 46.1343 30.1017 45.9514 30.1017 45.6759 30.1413 45.4344 30.2215 45.2266 30.3004 45.0178 30.4089 44.8642 30.5442 44.7648 30.6808 44.6667 30.8627 44.5978 31.0907 44.5606L31.1718 45.1431C30.989 45.169 30.8457 45.2458 30.743 45.3723 30.6402 45.4987 30.5894 45.6771 30.5894 45.9084 30.5894 46.1806 30.6345 46.3757 30.725 46.4921 30.8152 46.6082 30.9213 46.667 31.042 46.667 31.1188 46.667 31.1889 46.6433 31.251 46.5948 31.3142 46.5463 31.3672 46.4705 31.409 46.3668 31.4315 46.3068 31.4824 46.133 31.5614 45.8419 31.6732 45.4219 31.7658 45.1284 31.8369 44.9614 31.9079 44.7943 32.013 44.6633 32.1484 44.5685 32.285 44.4725 32.4544 44.425 32.6574 44.425 32.8552 44.425 33.0414 44.4826 33.2164 44.599 33.3913 44.7151 33.5267 44.8822 33.6227 45.1001 33.7187 45.3192 33.766 45.5664 33.766 45.8419 33.766 46.2979 33.6712 46.6466 33.4828 46.8859 33.2932 47.1254 33.0131 47.2778 32.6418 47.3443Z" transform="matrix(1 0 0 1.00976 402.57 -0.0203048)"/><path d="M33.6916 43.5514 33.0143 43.5514 33.0143 42.8741 33.6916 42.8741Z" transform="matrix(1 0 0 1.00976 402.57 -0.0203048)"/><path d="M32.4047 39.5427 32.4858 38.9602C32.8866 39.0246 33.1993 39.187 33.4264 39.4501 33.6532 39.7131 33.766 40.0371 33.766 40.4199 33.766 40.8997 33.6093 41.2858 33.2953 41.5769 32.9814 41.8693 32.5322 42.0149 31.9475 42.0149 31.5681 42.0149 31.2374 41.9518 30.9542 41.8265 30.6695 41.7013 30.4562 41.5105 30.3151 41.2529 30.173 40.9966 30.1017 40.718 30.1017 40.4153 30.1017 40.035 30.1977 39.7222 30.3907 39.4806 30.5838 39.2379 30.8582 39.0822 31.2126 39.0145L31.3007 39.5902C31.0648 39.6454 30.8874 39.7426 30.7679 39.8838 30.6494 40.0237 30.5894 40.1929 30.5894 40.3916 30.5894 40.6918 30.6966 40.9357 30.9112 41.1243 31.1267 41.3117 31.4654 41.4053 31.9305 41.4053 32.4023 41.4053 32.7445 41.3151 32.9579 41.1344 33.1713 40.9527 33.2783 40.7168 33.2783 40.4266 33.2783 40.1919 33.2073 39.9966 33.064 39.8408 32.9217 39.6838 32.7016 39.5845 32.4047 39.5427Z" transform="matrix(1 0 0 1.00976 402.57 -0.0203048)"/><path d="M31.9338 38.6758C31.2849 38.6758 30.8039 38.4951 30.4912 38.1327 30.2315 37.8313 30.1017 37.4622 30.1017 37.0275 30.1017 36.5456 30.2599 36.1506 30.5759 35.8434 30.8908 35.5374 31.3278 35.384 31.8842 35.384 32.3358 35.384 32.6903 35.4517 32.9488 35.5871 33.2073 35.7227 33.4081 35.9202 33.5517 36.1799 33.6949 36.4384 33.766 36.7218 33.766 37.0275 33.766 37.5198 33.6093 37.9172 33.2941 38.2208 32.9793 38.5244 32.5254 38.6758 31.9338 38.6758ZM31.935 38.0663C32.3843 38.0663 32.7208 37.9679 32.943 37.7715 33.1667 37.574 33.2783 37.3268 33.2783 37.0275 33.2783 36.7319 33.1667 36.4859 32.9421 36.2881 32.7174 36.0918 32.3754 35.9936 31.9158 35.9936 31.4824 35.9936 31.1538 36.093 30.9316 36.2905 30.7079 36.488 30.5963 36.734 30.5963 37.0275 30.5963 37.3268 30.707 37.574 30.9292 37.7715 31.1517 37.9679 31.487 38.0663 31.935 38.0663Z" transform="matrix(1 0 0 1.00976 402.57 -0.0203048)"/><path d="M33.6916 34.6852 30.1763 34.6852 30.1763 34.1502 30.6729 34.1502C30.5013 34.0408 30.3626 33.8939 30.2587 33.711 30.1538 33.5281 30.1017 33.3205 30.1017 33.0868 30.1017 32.8271 30.1559 32.6138 30.2632 32.4479 30.3717 32.2818 30.5217 32.1645 30.7158 32.0968 30.3062 31.8167 30.1017 31.4543 30.1017 31.0074 30.1017 30.6575 30.1977 30.3875 30.3907 30.2003 30.5838 30.0117 30.8807 29.9169 31.2815 29.9169L33.6916 29.9169 33.6916 30.5131 31.479 30.5131C31.2419 30.5131 31.0703 30.5332 30.9654 30.5716 30.8603 30.61 30.7768 30.6801 30.7125 30.7828 30.6482 30.8843 30.6165 31.0041 30.6165 31.1406 30.6165 31.389 30.699 31.5945 30.8627 31.7582 31.0274 31.9218 31.2904 32.003 31.6516 32.003L33.6916 32.003 33.6916 32.5991 31.4102 32.5991C31.1459 32.5991 30.9472 32.6476 30.8152 32.7448 30.6832 32.8417 30.6165 33.0009 30.6165 33.2212 30.6165 33.3882 30.6607 33.5428 30.7487 33.6851 30.8366 33.8274 30.9654 33.9301 31.1358 33.9945 31.305 34.0576 31.5501 34.0893 31.8695 34.0893L33.6916 34.0893 33.6916 34.6852Z" transform="matrix(1 0 0 1.00976 402.57 -0.0203048)"/><path d="M41.7329 43.7052 60.9332 43.7052 60.9332 46.0851 41.7329 46.0851Z" stroke="#000000" stroke-width="0.239998" stroke-miterlimit="3.864" fill="#D9DADA" transform="matrix(1 0 0 1.00976 402.57 -0.0203048)"/><path d="M60.9332 43.7052 80.1337 43.7052 80.1337 46.0851 60.9332 46.0851Z" stroke="#000000" stroke-width="0.239998" stroke-miterlimit="3.864" fill="#FEFEFE" transform="matrix(1 0 0 1.00976 402.57 -0.0203048)"/><path d="M80.1335 43.7052 99.334 43.7052 99.334 46.0851 80.1335 46.0851Z" stroke="#000000" stroke-width="0.239998" stroke-miterlimit="3.864" fill="#D9DADA" transform="matrix(1 0 0 1.00976 402.57 -0.0203048)"/><path d="M72.509 50.8797 103.218 50.8797 103.218 53.2595 72.509 53.2595Z" stroke="#000000" stroke-width="0.239998" stroke-miterlimit="3.864" fill="#D9DADA" transform="matrix(1 0 0 1.00976 402.57 -0.0203048)"/><path d="M41.8001 50.8797 72.5093 50.8797 72.5093 53.2595 41.8001 53.2595Z" stroke="#000000" stroke-width="0.239998" stroke-miterlimit="3.864" fill="#FEFEFE" transform="matrix(1 0 0 1.00976 402.57 -0.0203048)"/><path d="M59.0147 34.7315 60.3848 34.071 60.5219 34.071 60.5219 38.8038C60.5219 39.1186 60.5346 39.3162 60.5612 39.3937 60.5881 39.47 60.6419 39.5307 60.7249 39.5715 60.8082 39.6126 60.9776 39.6363 61.233 39.6421L61.233 39.7945 59.1164 39.7945 59.1164 39.6421C59.3816 39.6363 59.5523 39.6138 59.6286 39.573 59.7061 39.5334 59.7599 39.4798 59.7908 39.4122 59.8206 39.3442 59.8359 39.1412 59.8359 38.8038L59.8359 35.7728C59.8359 35.3651 59.8218 35.1025 59.7952 34.9868 59.7752 34.898 59.74 34.833 59.6893 34.7922 59.637 34.7512 59.5763 34.73 59.5043 34.73 59.4013 34.73 59.2588 34.7723 59.0768 34.8584L59.0147 34.7315Z" transform="matrix(1 0 0 1.00976 402.57 -0.0203048)"/><path d="M74.238 33.9102 74.238 37.682 75.1975 36.8029C75.402 36.6152 75.5205 36.4967 75.5529 36.4472 75.5757 36.4134 75.587 36.381 75.587 36.3471 75.587 36.2922 75.563 36.2456 75.5176 36.2046 75.4725 36.165 75.3979 36.1424 75.292 36.1369L75.292 36.0013 76.9387 36.0013 76.9387 36.1369C76.7143 36.1424 76.5266 36.1777 76.3771 36.2413 76.2275 36.3061 76.0639 36.4206 75.8846 36.5843L74.9095 37.4775 75.8776 38.7094C76.1486 39.0466 76.3291 39.2624 76.4195 39.357 76.5535 39.4827 76.6691 39.5646 76.7695 39.601 76.84 39.6279 76.9612 39.6421 77.1335 39.6421L77.1335 39.7945 75.292 39.7945 75.292 39.6421C75.3979 39.6392 75.4684 39.6238 75.5052 39.5955 75.5431 39.5658 75.5616 39.5264 75.5616 39.4741 75.5616 39.4107 75.5063 39.309 75.3964 39.1693L74.238 37.6863 74.238 38.9394C74.238 39.1849 74.2548 39.3457 74.2886 39.4234 74.3239 39.4995 74.3719 39.5545 74.4355 39.5886 74.4988 39.621 74.6359 39.6392 74.8476 39.6421L74.8476 39.7945 72.9257 39.7945 72.9257 39.6421C73.1174 39.6421 73.2629 39.6181 73.3589 39.5715 73.4167 39.542 73.4604 39.4954 73.4899 39.4333 73.5309 39.343 73.5521 39.1863 73.5521 38.9648L73.5521 35.5103C73.5521 35.0771 73.5422 34.8119 73.5237 34.7144 73.5041 34.6172 73.4731 34.5508 73.428 34.514 73.3841 34.4761 73.3262 34.4576 73.2557 34.4576 73.1978 34.4576 73.1105 34.4817 72.996 34.5282L72.9257 34.3758 74.0474 33.9102 74.238 33.9102Z" transform="matrix(1 0 0 1.00976 402.57 -0.0203048)"/><path d="M78.4797 36.7014C78.7535 36.4247 78.9158 36.2653 78.965 36.2231 79.0878 36.1184 79.2206 36.0366 79.3631 35.9788 79.5054 35.9209 79.6465 35.8914 79.7862 35.8914 80.0233 35.8914 80.2252 35.9605 80.3958 36.0988 80.5653 36.237 80.6795 36.4374 80.7359 36.7014 81.021 36.3683 81.261 36.1511 81.4571 36.0467 81.6532 35.9435 81.855 35.8914 82.0624 35.8914 82.2628 35.8914 82.442 35.9435 82.5988 36.0467 82.7538 36.1496 82.8781 36.3188 82.9684 36.5545 83.0291 36.7141 83.06 36.9651 83.06 37.3081L83.06 38.9394C83.06 39.175 83.0771 39.3373 83.1124 39.4249 83.1392 39.4839 83.1899 39.5362 83.2619 39.5785 83.3353 39.621 83.4539 39.6421 83.619 39.6421L83.619 39.7945 81.7648 39.7945 81.7648 39.6421 81.8437 39.6421C82.0045 39.6421 82.1315 39.6111 82.222 39.5475 82.2853 39.5038 82.3304 39.4333 82.3573 39.3373 82.3686 39.2907 82.3744 39.158 82.3744 38.9394L82.3744 37.3095C82.3744 37.0004 82.3376 36.7832 82.2628 36.6563 82.1543 36.4799 81.982 36.3908 81.7437 36.3908 81.5982 36.3908 81.4501 36.4275 81.3018 36.501 81.1552 36.573 80.9759 36.7098 80.7657 36.9073L80.7573 36.9539 80.7741 37.1317 80.7741 38.9394C80.7741 39.1962 80.7882 39.357 80.8165 39.4206 80.8461 39.4827 80.8996 39.5362 80.9788 39.5785 81.0577 39.621 81.1931 39.6421 81.3837 39.6421L81.3837 39.7945 79.4788 39.7945 79.4788 39.6421C79.6861 39.6421 79.8287 39.6181 79.9062 39.5686 79.984 39.5192 80.0375 39.4446 80.067 39.3457 80.0812 39.2991 80.0884 39.1638 80.0884 38.9394L80.0884 37.3095C80.0884 37.0004 80.0433 36.7775 79.9528 36.6407 79.8316 36.4628 79.6636 36.374 79.4462 36.374 79.2981 36.374 79.1514 36.4148 79.006 36.4952 78.7787 36.6167 78.6023 36.7549 78.4797 36.9073L78.4797 38.9394C78.4797 39.1863 78.4965 39.3457 78.5306 39.4206 78.5644 39.494 78.615 39.549 78.683 39.5871 78.7492 39.6238 78.8846 39.6421 79.0893 39.6421L79.0893 39.7945 77.218 39.7945 77.218 39.6421C77.3918 39.6421 77.513 39.6238 77.5821 39.5871 77.6515 39.549 77.7035 39.4911 77.7402 39.4093 77.7755 39.3289 77.7938 39.1722 77.7938 38.9394L77.7938 37.4915C77.7938 37.0767 77.781 36.8087 77.757 36.6872 77.7374 36.5955 77.7079 36.5334 77.6654 36.4995 77.6246 36.4643 77.5682 36.4472 77.4976 36.4472 77.4199 36.4472 77.3282 36.4686 77.2209 36.5094L77.159 36.357 78.3018 35.8914 78.4797 35.8914 78.4797 36.7014Z" transform="matrix(1 0 0 1.00976 402.57 -0.0203048)"/><path d="M65.9405 34.1812 65.6173 34.8839 63.9241 34.8839 63.5528 35.6346C64.2922 35.7431 64.8737 36.014 65.2997 36.4501 65.6653 36.8255 65.8474 37.2659 65.8474 37.7737 65.8474 38.0687 65.7881 38.3425 65.6681 38.5923 65.5481 38.8434 65.3972 39.0579 65.2153 39.2343 65.0345 39.4107 64.8313 39.5533 64.6083 39.6603 64.2922 39.8115 63.9678 39.8876 63.6346 39.8876 63.2989 39.8876 63.0548 39.8312 62.901 39.717 62.7486 39.6039 62.6722 39.4784 62.6722 39.3416 62.6722 39.2653 62.7034 39.1976 62.7668 39.1383 62.8304 39.079 62.9108 39.0507 63.0068 39.0507 63.0774 39.0507 63.1407 39.0608 63.1945 39.0834 63.248 39.1045 63.3385 39.1609 63.4681 39.2511 63.6742 39.3937 63.8845 39.4642 64.0961 39.4642 64.4177 39.4642 64.7014 39.3416 64.9455 39.0973 65.1884 38.8532 65.311 38.5556 65.311 38.2043 65.311 37.8654 65.2025 37.5481 64.9851 37.2546 64.7665 36.9596 64.4672 36.7323 64.0834 36.573 63.7844 36.4487 63.375 36.3767 62.8573 36.357L63.9325 34.1812 65.9405 34.1812Z" transform="matrix(1 0 0 1.00976 402.57 -0.0203048)"/><path d="M66.804 37.0203C66.804 36.381 66.9 35.8321 67.0932 35.3706 67.2867 34.9093 67.542 34.5649 67.8624 34.3391 68.1094 34.1598 68.3662 34.071 68.6299 34.071 69.0605 34.071 69.4457 34.2896 69.7872 34.7272 70.2146 35.2705 70.4278 36.0056 70.4278 36.9342 70.4278 37.5834 70.3346 38.1363 70.147 38.5909 69.9593 39.0452 69.7207 39.374 69.4301 39.5799 69.1395 39.7846 68.8587 39.8876 68.5891 39.8876 68.0542 39.8876 67.6097 39.573 67.2543 38.9422 66.9536 38.4102 66.804 37.7696 66.804 37.0203ZM67.6169 37.1219C67.6169 37.8923 67.7115 38.5218 67.9006 39.0099 68.0571 39.4206 68.2913 39.625 68.6019 39.625 68.7499 39.625 68.9038 39.5588 69.0631 39.4249 69.2227 39.2907 69.3427 39.0678 69.4258 38.7531 69.5515 38.2803 69.6149 37.6115 69.6149 36.7508 69.6149 36.1115 69.5487 35.5782 69.4174 35.152 69.3187 34.8344 69.1903 34.61 69.0336 34.4788 68.922 34.3871 68.7852 34.342 68.6259 34.342 68.4396 34.342 68.2731 34.4267 68.1276 34.5944 67.9301 34.8232 67.7948 35.1815 67.7242 35.6725 67.6522 36.1624 67.6169 36.645 67.6169 37.1219Z" transform="matrix(1 0 0 1.00976 402.57 -0.0203048)"/><path d="M62.3427 58.006 63.7129 57.3455 63.8499 57.3455 63.8499 62.0783C63.8499 62.3931 63.8626 62.5906 63.8893 62.6682 63.9161 62.7445 63.9699 62.8052 64.0529 62.846 64.1362 62.887 64.3057 62.9108 64.561 62.9166L64.561 63.069 62.4445 63.069 62.4445 62.9166C62.7097 62.9108 62.8803 62.8882 62.9566 62.8474 63.0342 62.8078 63.0879 62.7543 63.1189 62.6866 63.1486 62.6187 63.164 62.4157 63.164 62.0783L63.164 59.0473C63.164 58.6396 63.1498 58.377 63.1232 58.2613 63.1033 58.1725 63.068 58.1075 63.0174 58.0667 62.965 58.0257 62.9043 58.0045 62.8323 58.0045 62.7294 58.0045 62.5868 58.0468 62.4049 58.1329L62.3427 58.006Z" transform="matrix(1 0 0 1.00976 402.57 -0.0203048)"/><path d="M77.5744 59.9759C77.8483 59.6992 78.0105 59.5398 78.0597 59.4976 78.1826 59.3929 78.3153 59.3111 78.4578 59.2532 78.6002 59.1954 78.7413 59.1659 78.881 59.1659 79.1181 59.1659 79.3199 59.235 79.4905 59.3732 79.66 59.5115 79.7742 59.7119 79.8306 59.9759 80.1157 59.6427 80.3557 59.4256 80.5518 59.3212 80.7479 59.218 80.9497 59.1659 81.1571 59.1659 81.3575 59.1659 81.5368 59.218 81.6935 59.3212 81.8485 59.4241 81.9728 59.5933 82.0631 59.829 82.1238 59.9886 82.1548 60.2396 82.1548 60.5826L82.1548 62.2138C82.1548 62.4495 82.1718 62.6118 82.2071 62.6994 82.234 62.7584 82.2846 62.8107 82.3566 62.853 82.43 62.8954 82.5486 62.9166 82.7137 62.9166L82.7137 63.069 80.8595 63.069 80.8595 62.9166 80.9385 62.9166C81.0993 62.9166 81.2262 62.8856 81.3167 62.822 81.3801 62.7783 81.4252 62.7078 81.4521 62.6118 81.4633 62.5652 81.4691 62.4325 81.4691 62.2138L81.4691 60.584C81.4691 60.2749 81.4324 60.0577 81.3575 59.9307 81.249 59.7544 81.0767 59.6653 80.8384 59.6653 80.6929 59.6653 80.5449 59.702 80.3965 59.7755 80.2499 59.8475 80.0706 59.9843 79.8604 60.1818L79.852 60.2283 79.8688 60.4062 79.8688 62.2138C79.8688 62.4706 79.8829 62.6314 79.9113 62.695 79.9408 62.7572 79.9943 62.8107 80.0735 62.853 80.1525 62.8954 80.2878 62.9166 80.4784 62.9166L80.4784 63.069 78.5735 63.069 78.5735 62.9166C78.7809 62.9166 78.9234 62.8926 79.001 62.8431 79.0787 62.7937 79.1322 62.719 79.1618 62.6202 79.1759 62.5736 79.1831 62.4382 79.1831 62.2138L79.1831 60.584C79.1831 60.2749 79.138 60.0519 79.0475 59.9151 78.9263 59.7373 78.7583 59.6485 78.5409 59.6485 78.3928 59.6485 78.2462 59.6893 78.1007 59.7697 77.8735 59.8912 77.6971 60.0294 77.5744 60.1818L77.5744 62.2138C77.5744 62.4608 77.5912 62.6202 77.6253 62.695 77.6591 62.7685 77.7098 62.8234 77.7777 62.8616 77.8439 62.8983 77.9793 62.9166 78.184 62.9166L78.184 63.069 76.3127 63.069 76.3127 62.9166C76.4865 62.9166 76.6077 62.8983 76.6768 62.8616 76.7462 62.8234 76.7983 62.7656 76.835 62.6838 76.8703 62.6034 76.8885 62.4466 76.8885 62.2138L76.8885 60.7659C76.8885 60.3512 76.8758 60.0831 76.8518 59.9617 76.8321 59.87 76.8026 59.8079 76.7601 59.774 76.7193 59.7388 76.6629 59.7217 76.5923 59.7217 76.5146 59.7217 76.4229 59.7431 76.3156 59.7839L76.2537 59.6315 77.3966 59.1659 77.5744 59.1659 77.5744 59.9759Z" transform="matrix(1 0 0 1.00976 402.57 -0.0203048)"/><path d="M83.9977 57.1847C84.1119 57.1847 84.2108 57.2255 84.2927 57.3059 84.3731 57.3877 84.4139 57.4866 84.4139 57.6009 84.4139 57.7165 84.3731 57.8169 84.2927 57.8987 84.2108 57.982 84.1119 58.0228 83.9977 58.0228 83.882 58.0228 83.7817 57.982 83.6999 57.8987 83.6166 57.8169 83.5758 57.7165 83.5758 57.6009 83.5758 57.4866 83.6166 57.3877 83.697 57.3059 83.7788 57.2255 83.8792 57.1847 83.9977 57.1847ZM84.3378 59.1659 84.3378 62.2138C84.3378 62.4495 84.3546 62.606 84.3899 62.6838 84.4237 62.7627 84.4746 62.8206 84.5423 62.8587 84.6099 62.8969 84.7343 62.9166 84.9135 62.9166L84.9135 63.069 83.0761 63.069 83.0761 62.9166C83.2597 62.9166 83.3838 62.8983 83.446 62.863 83.5093 62.8278 83.5587 62.7685 83.5969 62.6866 83.6336 62.6048 83.6519 62.4466 83.6519 62.2138L83.6519 60.7491C83.6519 60.3414 83.6392 60.0774 83.6152 59.9559 83.5955 59.8686 83.5659 59.8079 83.5235 59.774 83.4827 59.7388 83.426 59.7217 83.3555 59.7217 83.278 59.7217 83.1848 59.7431 83.0747 59.7839L83.0168 59.6315 84.1556 59.1659 84.3378 59.1659Z" transform="matrix(1 0 0 1.00976 402.57 -0.0203048)"/><path d="M65.8988 60.2948C65.8988 59.6555 65.9948 59.1066 66.188 58.6451 66.3814 58.1838 66.6368 57.8394 66.9572 57.6136 67.2041 57.4343 67.4609 57.3455 67.7247 57.3455 68.1552 57.3455 68.5404 57.5641 68.8819 58.0017 69.3094 58.545 69.5225 59.2801 69.5225 60.2087 69.5225 60.8579 69.4294 61.4108 69.2417 61.8654 69.054 62.3197 68.8155 62.6485 68.5248 62.8544 68.2342 63.0591 67.9534 63.1621 67.6839 63.1621 67.1489 63.1621 66.7044 62.8474 66.349 62.2167 66.0483 61.6847 65.8988 61.0441 65.8988 60.2948ZM66.7116 60.3963C66.7116 61.1667 66.8062 61.7963 66.9953 62.2844 67.1518 62.695 67.386 62.8995 67.6966 62.8995 67.8447 62.8995 67.9985 62.8333 68.1579 62.6994 68.3175 62.5652 68.4375 62.3423 68.5205 62.0276 68.6463 61.5548 68.7096 60.8859 68.7096 60.0253 68.7096 59.386 68.6434 58.8527 68.5121 58.4264 68.4135 58.1089 68.2851 57.8845 68.1283 57.7533 68.0168 57.6616 67.88 57.6165 67.7206 57.6165 67.5344 57.6165 67.3678 57.7012 67.2224 57.8689 67.0248 58.0976 66.8895 58.456 66.8189 58.947 66.7469 59.4368 66.7116 59.9195 66.7116 60.3963Z" transform="matrix(1 0 0 1.00976 402.57 -0.0203048)"/><path d="M70.1321 60.2948C70.1321 59.6555 70.2281 59.1066 70.4213 58.6451 70.6147 58.1838 70.8701 57.8394 71.1905 57.6136 71.4374 57.4343 71.6942 57.3455 71.958 57.3455 72.3885 57.3455 72.7737 57.5641 73.1153 58.0017 73.5427 58.545 73.7558 59.2801 73.7558 60.2087 73.7558 60.8579 73.6627 61.4108 73.475 61.8654 73.2873 62.3197 73.0488 62.6485 72.7581 62.8544 72.4675 63.0591 72.1867 63.1621 71.9172 63.1621 71.3822 63.1621 70.9378 62.8474 70.5823 62.2167 70.2816 61.6847 70.1321 61.0441 70.1321 60.2948ZM70.945 60.3963C70.945 61.1667 71.0395 61.7963 71.2286 62.2844 71.3851 62.695 71.6194 62.8995 71.9299 62.8995 72.078 62.8995 72.2318 62.8333 72.3912 62.6994 72.5508 62.5652 72.6708 62.3423 72.7538 62.0276 72.8796 61.5548 72.9429 60.8859 72.9429 60.0253 72.9429 59.386 72.8767 58.8527 72.7454 58.4264 72.6468 58.1089 72.5184 57.8845 72.3617 57.7533 72.2501 57.6616 72.1133 57.6165 71.9539 57.6165 71.7677 57.6165 71.6011 57.7012 71.4557 57.8689 71.2582 58.0976 71.1228 58.456 71.0522 58.947 70.9802 59.4368 70.945 59.9195 70.945 60.3963Z" transform="matrix(1 0 0 1.00976 402.57 -0.0203048)"/><path d="M23.9998 23.9998 337.468 23.9998 337.468 688.793 23.9998 688.793Z" stroke="#000000" stroke-width="1.19999" stroke-miterlimit="22.9256" fill="none" fill-rule="evenodd" transform="matrix(1 0 0 1.00976 402.57 -0.0203048)"/></g></g></g></svg>