<?xml version="1.0" encoding="utf-8"?>
<svg viewBox="0 0 309.752 339.514" xmlns="http://www.w3.org/2000/svg">
  <g transform="matrix(1, 0, 0, 1, -80.921364, -100.339378)">
    <circle style="stroke-width: 9px; fill: none; stroke: rgb(255, 255, 255);" cx="246.98" cy="255.433" r="118.297"/>
    <g transform="matrix(0.998804, -0.508916, 0.508916, 0.998804, -123.635834, 105.542267)" style="">
      <path style="stroke-width: 4px; stroke: rgb(255, 255, 255); fill: none;" d="M 143.864 293.504 L 215.952 180.474 L 252.191 167.299 L 261.193 197.809 L 153.329 303.211 C 148.536 308.263 142.086 295.378 143.864 293.504 Z" transform="matrix(0.960082, 0.27972, -0.27972, 0.960082, 73.8901, -47.260256)"/>
      <path style="stroke-width: 4px; stroke: rgb(255, 255, 255); fill: none;" d="M 156.068 332.621 L 236.076 218.596 L 272.864 205.407 L 280.5 235.948 C 280.5 235.948 206.165 308.876 167.634 343.878 C 165.417 345.892 153.534 337.612 156.068 332.621 Z" transform="matrix(0.837427, 0.546549, -0.546549, 0.837427, 185.171267, -75.659879)"/>
      <path style="stroke-width: 4px; stroke: rgb(255, 255, 255); fill: none;" d="M 164.72 371.164 L 237.778 259.307 L 274.567 246.118 L 282.202 276.659 C 282.202 276.659 176.802 374.488 176.668 377.483 C 176.106 378.387 161.687 377.701 164.72 371.164 Z" transform="matrix(0.629176, 0.777263, -0.777263, 0.629176, 325.262554, -57.842682)"/>
    </g>
  </g>
</svg>